<svg xmlns="http://www.w3.org/2000/svg" width="92.591" height="93.602" viewBox="0 0 92.591 93.602">
  <g id="Group_17332" data-name="Group 17332" transform="translate(-519.001 -2996.021)">
    <g id="Group_1054" data-name="Group 1054" transform="translate(536.607 3064.335)">
      <g id="Group_1047" data-name="Group 1047">
        <path id="Path_470" data-name="Path 470" d="M1315.636,149.288a9.742,9.742,0,1,1,9.742-9.742A9.753,9.753,0,0,1,1315.636,149.288Zm0-18.8a9.055,9.055,0,1,0,9.055,9.055A9.065,9.065,0,0,0,1315.636,130.491Z" transform="translate(-1305.894 -129.804)" fill="#ff0058"/>
      </g>
      <g id="Group_1053" data-name="Group 1053" transform="translate(3.568 3.999)">
        <g id="Group_1048" data-name="Group 1048" transform="translate(0 4.5)">
          <rect id="Rectangle_241" data-name="Rectangle 241" width="0.687" height="6.869" fill="#ff0058"/>
        </g>
        <g id="Group_1049" data-name="Group 1049" transform="translate(0.17 0.87)">
          <path id="Path_471" data-name="Path 471" d="M1323.685,147.73h-12.353v-.687H1323V136.888h.687Z" transform="translate(-1311.332 -136.888)" fill="#ff0058"/>
        </g>
        <g id="Group_1050" data-name="Group 1050" transform="translate(8.702 4.618)">
          <rect id="Rectangle_242" data-name="Rectangle 242" width="0.687" height="6.869" fill="#ff0058"/>
        </g>
        <g id="Group_1051" data-name="Group 1051" transform="translate(4.526)">
          <rect id="Rectangle_243" data-name="Rectangle 243" width="0.687" height="11.368" fill="#ff0058"/>
        </g>
        <g id="Group_1052" data-name="Group 1052" transform="translate(0 1.917)">
          <path id="Path_472" data-name="Path 472" d="M1320.131,145.6c-1.609,0-1.882-1.737-2.124-3.271-.308-1.953-.616-3.232-2.053-3.232-1.467,0-1.673,1.333-1.822,3.366-.113,1.542-.229,3.137-1.66,3.137a1.419,1.419,0,0,1-1.388-1.291h.687a.735.735,0,0,0,.7.6c.738,0,.86-.945.974-2.5.131-1.783.293-4,2.508-4,2.131,0,2.464,2.114,2.732,3.813.263,1.673.492,2.69,1.445,2.69.448,0,.709-.388,1.086-1.027.388-.657.871-1.475,1.873-1.475v.687c-.569,0-.864.43-1.282,1.137C1321.431,144.876,1321,145.6,1320.131,145.6Z" transform="translate(-1311.085 -138.411)" fill="#ff0058"/>
        </g>
      </g>
    </g>
    <g id="Group_1072" data-name="Group 1072" transform="translate(577.075 3020.671)">
      <g id="Group_1055" data-name="Group 1055" transform="translate(0 0)">
        <path id="Path_473" data-name="Path 473" d="M1379.495,95.707a14.718,14.718,0,1,1,14.718-14.717A14.734,14.734,0,0,1,1379.495,95.707Zm0-28.748a14.031,14.031,0,1,0,14.031,14.031A14.047,14.047,0,0,0,1379.495,66.958Z" transform="translate(-1364.777 -66.271)" fill="#ff0058"/>
      </g>
      <g id="Group_1070" data-name="Group 1070" transform="translate(4.873 6.655)">
        <g id="Group_1056" data-name="Group 1056">
          <path id="Path_474" data-name="Path 474" d="M1391.354,91.823h-19.487V75.954h19.487Zm-18.8-.687h18.112V76.641h-18.112Z" transform="translate(-1371.867 -75.954)" fill="#ff0058"/>
        </g>
        <g id="Group_1057" data-name="Group 1057" transform="translate(0.549 2.702)">
          <rect id="Rectangle_244" data-name="Rectangle 244" width="18.798" height="0.687" fill="#ff0058"/>
        </g>
        <g id="Group_1058" data-name="Group 1058" transform="translate(1.979 4.781)">
          <rect id="Rectangle_245" data-name="Rectangle 245" width="2.86" height="0.687" fill="#ff0058"/>
        </g>
        <g id="Group_1059" data-name="Group 1059" transform="translate(1.979 6.167)">
          <rect id="Rectangle_246" data-name="Rectangle 246" width="12.669" height="0.687" fill="#ff0058"/>
        </g>
        <g id="Group_1060" data-name="Group 1060" transform="translate(1.979 11.709)">
          <rect id="Rectangle_247" data-name="Rectangle 247" width="7.969" height="0.687" fill="#ff0058"/>
        </g>
        <g id="Group_1061" data-name="Group 1061" transform="translate(1.979 10.324)">
          <rect id="Rectangle_248" data-name="Rectangle 248" width="3.473" height="0.687" fill="#ff0058"/>
        </g>
        <g id="Group_1062" data-name="Group 1062" transform="translate(5.657 4.781)">
          <rect id="Rectangle_249" data-name="Rectangle 249" width="2.86" height="0.687" fill="#ff0058"/>
        </g>
        <g id="Group_1063" data-name="Group 1063" transform="translate(1.979 8.938)">
          <rect id="Rectangle_250" data-name="Rectangle 250" width="4.904" height="0.687" fill="#ff0058"/>
        </g>
        <g id="Group_1064" data-name="Group 1064" transform="translate(7.904 8.938)">
          <rect id="Rectangle_251" data-name="Rectangle 251" width="6.334" height="0.687" fill="#ff0058"/>
        </g>
        <g id="Group_1065" data-name="Group 1065" transform="translate(1.979 7.645)">
          <rect id="Rectangle_252" data-name="Rectangle 252" width="2.86" height="0.687" fill="#ff0058"/>
        </g>
        <g id="Group_1066" data-name="Group 1066" transform="translate(5.657 7.645)">
          <rect id="Rectangle_253" data-name="Rectangle 253" width="2.86" height="0.687" fill="#ff0058"/>
        </g>
        <g id="Group_1067" data-name="Group 1067" transform="translate(1.979 13.095)">
          <rect id="Rectangle_254" data-name="Rectangle 254" width="2.86" height="0.687" fill="#ff0058"/>
        </g>
        <g id="Group_1068" data-name="Group 1068" transform="translate(5.657 13.095)">
          <rect id="Rectangle_255" data-name="Rectangle 255" width="2.86" height="0.687" fill="#ff0058"/>
        </g>
        <g id="Group_1069" data-name="Group 1069" transform="translate(9.335 7.645)">
          <rect id="Rectangle_256" data-name="Rectangle 256" width="4.699" height="0.687" fill="#ff0058"/>
        </g>
      </g>
      <g id="Group_1071" data-name="Group 1071" transform="translate(20.981 8.117)">
        <rect id="Rectangle_257" data-name="Rectangle 257" width="1.899" height="0.687" fill="#ff0058"/>
      </g>
    </g>
    <g id="Group_1087" data-name="Group 1087" transform="translate(575.647 3053.715)">
      <g id="Group_1073" data-name="Group 1073">
        <path id="Path_475" data-name="Path 475" d="M1380.564,150.08a17.864,17.864,0,1,1,17.865-17.864A17.885,17.885,0,0,1,1380.564,150.08Zm0-35.042a17.177,17.177,0,1,0,17.178,17.177A17.2,17.2,0,0,0,1380.564,115.038Z" transform="translate(-1362.699 -114.351)" fill="#ff0058"/>
      </g>
      <g id="Group_1074" data-name="Group 1074" transform="translate(11.459 4.26)">
        <path id="Path_476" data-name="Path 476" d="M1390.018,146.135h-10.646V120.55h10.646Zm-9.958-.687h9.271V121.237h-9.271Z" transform="translate(-1379.372 -120.55)" fill="#ff0058"/>
      </g>
      <g id="Group_1075" data-name="Group 1075" transform="translate(13.258 5.972)">
        <path id="Path_477" data-name="Path 477" d="M1392.637,148.626H1381.99v-2.055h.687v1.368h9.272V123.728h-1.368v-.687h2.055Z" transform="translate(-1381.99 -123.041)" fill="#ff0058"/>
      </g>
      <g id="Group_1076" data-name="Group 1076" transform="translate(13.126 12.746)">
        <path id="Path_478" data-name="Path 478" d="M1387.652,135.235a.515.515,0,0,1-.452-.213c-.168-.246-.056-.535.052-.815a2.512,2.512,0,0,0,.1-.291h-.03a1.946,1.946,0,0,0-1.271.585,2.588,2.588,0,0,1-1.7.735.6.6,0,0,1-.557-.26c-.181-.295-.006-.641.164-.976a2.849,2.849,0,0,0,.181-.408c-.15-.021-.623-.023-1.855,1.212l-.486-.487c.661-.661,1.511-1.421,2.223-1.421a.789.789,0,0,1,.729.315c.208.339,0,.743-.178,1.1-.032.063-.076.15-.111.227a2.054,2.054,0,0,0,1.162-.575,2.583,2.583,0,0,1,1.7-.735.706.706,0,0,1,.625.271,1.028,1.028,0,0,1-.054.957c-.006.014-.012.03-.019.047a2.864,2.864,0,0,0,.856-.68l.486.486A2.4,2.4,0,0,1,1387.652,135.235Z" transform="translate(-1381.798 -132.897)" fill="#ff0058"/>
      </g>
      <g id="Group_1077" data-name="Group 1077" transform="translate(13.126 6.628)">
        <path id="Path_479" data-name="Path 479" d="M1387.652,126.332a.514.514,0,0,1-.452-.213c-.168-.246-.056-.535.052-.815a2.514,2.514,0,0,0,.1-.291h-.03a1.949,1.949,0,0,0-1.271.585,2.584,2.584,0,0,1-1.7.735.6.6,0,0,1-.557-.26c-.181-.295-.006-.641.164-.975a2.891,2.891,0,0,0,.181-.408c-.15-.021-.621-.022-1.855,1.212l-.487-.486c.662-.662,1.512-1.421,2.223-1.421a.789.789,0,0,1,.729.314c.208.339,0,.743-.178,1.1-.032.064-.076.151-.111.227a2.054,2.054,0,0,0,1.162-.575,2.583,2.583,0,0,1,1.7-.735.7.7,0,0,1,.625.271,1.026,1.026,0,0,1-.054.957c-.006.014-.012.031-.019.047a2.853,2.853,0,0,0,.856-.68l.486.486A2.394,2.394,0,0,1,1387.652,126.332Z" transform="translate(-1381.798 -123.995)" fill="#ff0058"/>
      </g>
      <g id="Group_1078" data-name="Group 1078" transform="translate(13.126 18.309)">
        <path id="Path_480" data-name="Path 480" d="M1387.652,143.329a.514.514,0,0,1-.452-.214c-.168-.246-.056-.535.052-.815a2.512,2.512,0,0,0,.1-.291h-.03a1.949,1.949,0,0,0-1.271.585,2.585,2.585,0,0,1-1.7.736.6.6,0,0,1-.557-.26c-.181-.295-.006-.641.164-.975a2.857,2.857,0,0,0,.181-.408c-.15-.021-.623-.022-1.855,1.212l-.486-.486c.661-.662,1.511-1.421,2.223-1.421a.79.79,0,0,1,.729.314c.208.339,0,.743-.178,1.1-.032.064-.076.15-.111.227a2.05,2.05,0,0,0,1.162-.575,2.586,2.586,0,0,1,1.7-.735.7.7,0,0,1,.625.271,1.026,1.026,0,0,1-.054.957c-.006.014-.012.031-.019.047a2.853,2.853,0,0,0,.856-.68l.486.486A2.4,2.4,0,0,1,1387.652,143.329Z" transform="translate(-1381.798 -140.991)" fill="#ff0058"/>
      </g>
      <g id="Group_1079" data-name="Group 1079" transform="translate(13.126 24.983)">
        <path id="Path_481" data-name="Path 481" d="M1387.652,153.04a.514.514,0,0,1-.452-.213c-.168-.246-.056-.535.052-.815a2.515,2.515,0,0,0,.1-.291h-.03a1.949,1.949,0,0,0-1.271.585,2.584,2.584,0,0,1-1.7.735.6.6,0,0,1-.557-.26c-.181-.295-.006-.641.164-.975a2.892,2.892,0,0,0,.181-.408c-.15-.023-.623-.022-1.855,1.212l-.486-.486c.661-.662,1.511-1.421,2.223-1.421a.789.789,0,0,1,.729.314c.208.339,0,.743-.178,1.1-.032.064-.076.151-.111.227a2.05,2.05,0,0,0,1.162-.575,2.583,2.583,0,0,1,1.7-.735.7.7,0,0,1,.625.271,1.026,1.026,0,0,1-.054.957c-.006.014-.012.031-.019.047a2.848,2.848,0,0,0,.855-.679l.486.487A2.4,2.4,0,0,1,1387.652,153.04Z" transform="translate(-1381.798 -150.703)" fill="#ff0058"/>
      </g>
      <g id="Group_1080" data-name="Group 1080" transform="translate(11.776 10.568)">
        <rect id="Rectangle_258" data-name="Rectangle 258" width="10.012" height="0.687" fill="#ff0058"/>
      </g>
      <g id="Group_1081" data-name="Group 1081" transform="translate(11.776 16.13)">
        <rect id="Rectangle_259" data-name="Rectangle 259" width="10.012" height="0.687" fill="#ff0058"/>
      </g>
      <g id="Group_1082" data-name="Group 1082" transform="translate(11.776 22.805)">
        <rect id="Rectangle_260" data-name="Rectangle 260" width="10.012" height="0.687" fill="#ff0058"/>
      </g>
      <g id="Group_1086" data-name="Group 1086" transform="translate(21.777 13.29)">
        <g id="Group_1083" data-name="Group 1083">
          <rect id="Rectangle_261" data-name="Rectangle 261" width="1.784" height="0.687" fill="#ff0058"/>
        </g>
        <g id="Group_1084" data-name="Group 1084" transform="translate(0 5.562)">
          <rect id="Rectangle_262" data-name="Rectangle 262" width="1.784" height="0.687" fill="#ff0058"/>
        </g>
        <g id="Group_1085" data-name="Group 1085" transform="translate(0 12.237)">
          <rect id="Rectangle_263" data-name="Rectangle 263" width="1.784" height="0.687" fill="#ff0058"/>
        </g>
      </g>
    </g>
    <g id="Group_1104" data-name="Group 1104" transform="translate(519.001 3009.944)">
      <g id="Group_1088" data-name="Group 1088">
        <path id="Path_482" data-name="Path 482" d="M1305.965,102.041a25.689,25.689,0,1,1,25.69-25.689A25.719,25.719,0,0,1,1305.965,102.041Zm0-50.691a25,25,0,1,0,25,25A25.03,25.03,0,0,0,1305.965,51.349Z" transform="translate(-1280.276 -50.662)" fill="#ff0058"/>
      </g>
      <g id="Group_1103" data-name="Group 1103" transform="translate(6.84 13.6)">
        <g id="Group_1089" data-name="Group 1089">
          <path id="Path_483" data-name="Path 483" d="M1308.67,83.382h-18.442V70.45h18.442Zm-17.755-.687h17.068V71.137h-17.068Z" transform="translate(-1290.228 -70.45)" fill="#ff0058"/>
        </g>
        <g id="Group_1093" data-name="Group 1093" transform="translate(6.184 3.099)">
          <g id="Group_1090" data-name="Group 1090">
            <rect id="Rectangle_264" data-name="Rectangle 264" width="0.687" height="6.734" fill="#ff0058"/>
          </g>
          <g id="Group_1091" data-name="Group 1091" transform="translate(2.693 2.02)">
            <rect id="Rectangle_265" data-name="Rectangle 265" width="0.687" height="4.714" fill="#ff0058"/>
          </g>
          <g id="Group_1092" data-name="Group 1092" transform="translate(5.387 4.377)">
            <rect id="Rectangle_266" data-name="Rectangle 266" width="0.687" height="2.357" fill="#ff0058"/>
          </g>
        </g>
        <g id="Group_1094" data-name="Group 1094" transform="translate(8.571 7.347)">
          <path id="Path_484" data-name="Path 484" d="M1321.141,94.072H1302.7v-7.69h.687v7h17.067V81.827h-8.227V81.14h8.914Z" transform="translate(-1302.699 -81.14)" fill="#ff0058"/>
        </g>
        <g id="Group_1095" data-name="Group 1095" transform="translate(17.448 12.857)">
          <path id="Path_485" data-name="Path 485" d="M1334.058,102.089h-18.441v-5.95h.687V101.4h17.067V89.844h-8.534v-.687h9.221Z" transform="translate(-1315.616 -89.157)" fill="#ff0058"/>
        </g>
        <g id="Group_1096" data-name="Group 1096" transform="translate(18.098 11.081)">
          <rect id="Rectangle_267" data-name="Rectangle 267" width="5.357" height="0.687" fill="#ff0058"/>
        </g>
        <g id="Group_1097" data-name="Group 1097" transform="translate(11.211 13.775)">
          <rect id="Rectangle_268" data-name="Rectangle 268" width="8.571" height="0.687" fill="#ff0058"/>
        </g>
        <g id="Group_1098" data-name="Group 1098" transform="translate(11.211 16.469)">
          <rect id="Rectangle_269" data-name="Rectangle 269" width="4.285" height="0.687" fill="#ff0058"/>
        </g>
        <g id="Group_1099" data-name="Group 1099" transform="translate(11.173 12.588)">
          <rect id="Rectangle_270" data-name="Rectangle 270" width="0.687" height="5.51" fill="#ff0058"/>
        </g>
        <g id="Group_1100" data-name="Group 1100" transform="translate(23.846 20.842)">
          <path id="Path_486" data-name="Path 486" d="M1327.748,102.661a3.4,3.4,0,0,1-2.823-1.5l.569-.384a2.719,2.719,0,0,0,2.254,1.2Z" transform="translate(-1324.925 -100.776)" fill="#ff0058"/>
        </g>
        <g id="Group_1101" data-name="Group 1101" transform="translate(27.727 19.322)">
          <path id="Path_487" data-name="Path 487" d="M1330.839,101.7l-.267-.633a2.715,2.715,0,0,0,1.659-2.5h.687A3.4,3.4,0,0,1,1330.839,101.7Z" transform="translate(-1330.572 -98.565)" fill="#ff0058"/>
        </g>
        <g id="Group_1102" data-name="Group 1102" transform="translate(26.669 15.918)">
          <path id="Path_488" data-name="Path 488" d="M1331.476,95.825a2.7,2.7,0,0,0-2.444-1.526v-.687a3.386,3.386,0,0,1,3.061,1.912Z" transform="translate(-1329.032 -93.611)" fill="#ff0058"/>
        </g>
      </g>
    </g>
    <g id="Group_1105" data-name="Group 1105" transform="translate(567.38 3053.933)">
      <path id="Path_489" data-name="Path 489" d="M1353.055,119.438a2.385,2.385,0,1,1,2.384-2.385A2.387,2.387,0,0,1,1353.055,119.438Zm0-4.082a1.7,1.7,0,1,0,1.7,1.7A1.7,1.7,0,0,0,1353.055,115.355Z" transform="translate(-1350.67 -114.668)" fill="#ff0058"/>
    </g>
    <g id="Group_1106" data-name="Group 1106" transform="translate(570.916 3045.986)">
      <rect id="Rectangle_271" data-name="Rectangle 271" width="14.227" height="0.687" transform="matrix(0.791, -0.612, 0.612, 0.791, 0, 8.7)" fill="#ff0058"/>
    </g>
    <g id="Group_1107" data-name="Group 1107" transform="translate(564.296 3051.49)">
      <rect id="Rectangle_272" data-name="Rectangle 272" width="0.687" height="5.037" transform="translate(0 0.531) rotate(-50.541)" fill="#ff0058"/>
    </g>
    <g id="Group_1108" data-name="Group 1108" transform="translate(570.883 3057.436)">
      <rect id="Rectangle_273" data-name="Rectangle 273" width="0.687" height="9.118" transform="translate(0 0.486) rotate(-44.994)" fill="#ff0058"/>
    </g>
    <g id="Group_1109" data-name="Group 1109" transform="translate(553.315 3057.404)">
      <rect id="Rectangle_274" data-name="Rectangle 274" width="18.257" height="0.687" transform="translate(0 10.56) rotate(-35.336)" fill="#ff0058"/>
    </g>
    <g id="Group_1112" data-name="Group 1112" transform="translate(580.844 3001.797)">
      <g id="Group_1110" data-name="Group 1110" transform="translate(3.003)">
        <rect id="Rectangle_275" data-name="Rectangle 275" width="0.687" height="6.693" fill="#ff0058"/>
      </g>
      <g id="Group_1111" data-name="Group 1111" transform="translate(0 3.003)">
        <rect id="Rectangle_276" data-name="Rectangle 276" width="6.693" height="0.687" fill="#ff0058"/>
      </g>
    </g>
    <g id="Group_1113" data-name="Group 1113" transform="translate(565.914 2996.021)">
      <path id="Path_490" data-name="Path 490" d="M1351.855,51.59a3.318,3.318,0,1,1,3.319-3.318A3.322,3.322,0,0,1,1351.855,51.59Zm0-5.949a2.631,2.631,0,1,0,2.631,2.631A2.634,2.634,0,0,0,1351.855,45.641Z" transform="translate(-1348.537 -44.954)" fill="#ff0058"/>
    </g>
    <g id="Group_1116" data-name="Group 1116" transform="translate(604.898 3047.146)">
      <g id="Group_1114" data-name="Group 1114" transform="translate(3.003)">
        <rect id="Rectangle_277" data-name="Rectangle 277" width="0.687" height="6.693" fill="#ff0058"/>
      </g>
      <g id="Group_1115" data-name="Group 1115" transform="translate(0 3.003)">
        <rect id="Rectangle_278" data-name="Rectangle 278" width="6.693" height="0.687" fill="#ff0058"/>
      </g>
    </g>
    <g id="Group_1117" data-name="Group 1117" transform="translate(555.828 3082.986)">
      <path id="Path_491" data-name="Path 491" d="M1337.179,163.578a3.318,3.318,0,1,1,3.319-3.318A3.322,3.322,0,0,1,1337.179,163.578Zm0-5.95a2.631,2.631,0,1,0,2.631,2.632A2.634,2.634,0,0,0,1337.179,157.628Z" transform="translate(-1333.861 -156.941)" fill="#ff0058"/>
    </g>
    <g id="Group_1120" data-name="Group 1120" transform="translate(526.8 3060.529)">
      <g id="Group_1118" data-name="Group 1118" transform="translate(3.003)">
        <rect id="Rectangle_279" data-name="Rectangle 279" width="0.687" height="6.693" fill="#ff0058"/>
      </g>
      <g id="Group_1119" data-name="Group 1119" transform="translate(0 3.003)">
        <rect id="Rectangle_280" data-name="Rectangle 280" width="6.693" height="0.687" fill="#ff0058"/>
      </g>
    </g>
    <g id="Group_1123" data-name="Group 1123" transform="translate(565.037 3068.451)">
      <g id="Group_1121" data-name="Group 1121" transform="translate(3.003)">
        <rect id="Rectangle_281" data-name="Rectangle 281" width="0.687" height="6.693" fill="#ff0058"/>
      </g>
      <g id="Group_1122" data-name="Group 1122" transform="translate(0 3.003)">
        <rect id="Rectangle_282" data-name="Rectangle 282" width="6.693" height="0.687" fill="#ff0058"/>
      </g>
    </g>
  </g>
</svg>
