<svg xmlns="http://www.w3.org/2000/svg" width="101.945" height="71.32" viewBox="0 0 101.945 71.32">
  <g id="Group_996" data-name="Group 996" transform="translate(-534.5 -49.935)">
    <g id="Group_960" data-name="Group 960" transform="translate(552.527 49.935)">
      <path id="Path_425" data-name="Path 425" d="M567.327,55.113a2.589,2.589,0,1,1,2.589-2.589A2.592,2.592,0,0,1,567.327,55.113Zm0-4.582a1.993,1.993,0,1,0,1.993,1.992A1.995,1.995,0,0,0,567.327,50.531Z" transform="translate(-564.738 -49.935)" fill="#ff0058"/>
    </g>
    <g id="Group_961" data-name="Group 961" transform="translate(549.95 62.82)">
      <path id="Path_426" data-name="Path 426" d="M562.145,75.008a1.73,1.73,0,1,1,1.73-1.73A1.732,1.732,0,0,1,562.145,75.008Zm0-2.863a1.134,1.134,0,1,0,1.134,1.133A1.135,1.135,0,0,0,562.145,72.144Z" transform="translate(-560.415 -71.548)" fill="#ff0058"/>
    </g>
    <g id="Group_962" data-name="Group 962" transform="translate(631.268 101.761)">
      <path id="Path_427" data-name="Path 427" d="M699.4,142.044a2.589,2.589,0,1,1,2.589-2.589A2.592,2.592,0,0,1,699.4,142.044Zm0-4.582a1.993,1.993,0,1,0,1.992,1.992A2,2,0,0,0,699.4,137.462Z" transform="translate(-696.815 -136.866)" fill="#ff0058"/>
    </g>
    <g id="Group_963" data-name="Group 963" transform="translate(604.353 114.932)">
      <path id="Path_428" data-name="Path 428" d="M653.4,162.419a1.73,1.73,0,1,1,1.73-1.73A1.732,1.732,0,0,1,653.4,162.419Zm0-2.863a1.134,1.134,0,1,0,1.134,1.133A1.134,1.134,0,0,0,653.4,159.555Z" transform="translate(-651.669 -158.959)" fill="#ff0058"/>
    </g>
    <g id="Group_964" data-name="Group 964" transform="translate(608.934 51.939)">
      <path id="Path_429" data-name="Path 429" d="M668.242,71.073a8.888,8.888,0,1,1,8.888-8.888A8.9,8.9,0,0,1,668.242,71.073Zm0-17.18a8.292,8.292,0,1,0,8.292,8.292A8.3,8.3,0,0,0,668.242,53.893Z" transform="translate(-659.354 -53.297)" fill="#ff0058"/>
    </g>
    <g id="Group_965" data-name="Group 965" transform="translate(544.797 110.923)">
      <path id="Path_430" data-name="Path 430" d="M588.433,162.567h-31.5a5.166,5.166,0,0,1,0-10.332h31.5a5.166,5.166,0,0,1,0,10.332Zm-31.5-9.735a4.57,4.57,0,0,0,0,9.139h31.5a4.57,4.57,0,0,0,0-9.139Z" transform="translate(-551.771 -152.235)" fill="#ff0058"/>
    </g>
    <g id="Group_966" data-name="Group 966" transform="translate(547.659 60.53)">
      <path id="Path_431" data-name="Path 431" d="M605.273,114.115h-48.7V67.706h48.7Zm-48.1-.6h47.508V68.3H557.169Z" transform="translate(-556.573 -67.706)" fill="#ff0058"/>
    </g>
    <g id="Group_967" data-name="Group 967" transform="translate(548.244 85.154)">
      <rect id="Rectangle_209" data-name="Rectangle 209" width="48.104" height="0.596" fill="#ff0058"/>
    </g>
    <g id="Group_968" data-name="Group 968" transform="translate(548.244 67.401)">
      <rect id="Rectangle_210" data-name="Rectangle 210" width="48.104" height="0.596" transform="translate(0 0)" fill="#ff0058"/>
    </g>
    <g id="Group_969" data-name="Group 969" transform="translate(581.446 70.837)">
      <path id="Path_432" data-name="Path 432" d="M625.3,97.045h-12.05V85H625.3Zm-11.454-.6H624.7V85.592H613.842Z" transform="translate(-613.246 -84.996)" fill="#ff0058"/>
    </g>
    <g id="Group_970" data-name="Group 970" transform="translate(551.68 75.418)">
      <rect id="Rectangle_211" data-name="Rectangle 211" width="23.192" height="0.596" transform="translate(0 0)" fill="#ff0058"/>
    </g>
    <g id="Group_971" data-name="Group 971" transform="translate(551.68 71.983)">
      <rect id="Rectangle_212" data-name="Rectangle 212" width="18.325" height="0.596" transform="translate(0)" fill="#ff0058"/>
    </g>
    <g id="Group_972" data-name="Group 972" transform="translate(589.189 63.965)">
      <rect id="Rectangle_213" data-name="Rectangle 213" width="4.295" height="0.596" fill="#ff0058"/>
    </g>
    <g id="Group_973" data-name="Group 973" transform="translate(603.506 76.564)">
      <rect id="Rectangle_214" data-name="Rectangle 214" width="4.295" height="0.596" transform="translate(0 0)" fill="#ff0058"/>
    </g>
    <g id="Group_974" data-name="Group 974" transform="translate(551.68 78.855)">
      <rect id="Rectangle_215" data-name="Rectangle 215" width="18.325" height="0.596" transform="translate(0)" fill="#ff0058"/>
    </g>
    <g id="Group_977" data-name="Group 977" transform="translate(534.5 64.264)">
      <g id="Group_975" data-name="Group 975" transform="translate(2.279)">
        <rect id="Rectangle_216" data-name="Rectangle 216" width="0.596" height="5.154" fill="#ff0058"/>
      </g>
      <g id="Group_976" data-name="Group 976" transform="translate(0 2.279)">
        <rect id="Rectangle_217" data-name="Rectangle 217" width="5.154" height="0.596" fill="#ff0058"/>
      </g>
    </g>
    <g id="Group_980" data-name="Group 980" transform="translate(626.126 112.081)">
      <g id="Group_978" data-name="Group 978" transform="translate(2.279)">
        <rect id="Rectangle_218" data-name="Rectangle 218" width="0.596" height="5.154" fill="#ff0058"/>
      </g>
      <g id="Group_979" data-name="Group 979" transform="translate(0 2.279)">
        <rect id="Rectangle_219" data-name="Rectangle 219" width="5.154" height="0.596" fill="#ff0058"/>
      </g>
    </g>
    <g id="Group_981" data-name="Group 981" transform="translate(590.036 74.846)">
      <path id="Path_433" data-name="Path 433" d="M660.893,136.411H627.655v-12.9h.6v12.3H660.3v-43.5H633.68v-.6h27.213Z" transform="translate(-627.655 -91.72)" fill="#ff0058"/>
    </g>
    <g id="Group_982" data-name="Group 982" transform="translate(592.9 78.282)">
      <path id="Path_434" data-name="Path 434" d="M660.542,133.3H632.458v-7.17h.6V132.7h26.891V98.079H635.619v-.6h24.922Z" transform="translate(-632.458 -97.483)" fill="#ff0058"/>
    </g>
    <g id="Group_983" data-name="Group 983" transform="translate(596.061 88.017)">
      <rect id="Rectangle_220" data-name="Rectangle 220" width="7.731" height="0.596" transform="translate(0)" fill="#ff0058"/>
    </g>
    <g id="Group_984" data-name="Group 984" transform="translate(607.576 94.603)">
      <rect id="Rectangle_221" data-name="Rectangle 221" width="12.885" height="0.596" transform="translate(0)" fill="#ff0058"/>
    </g>
    <g id="Group_985" data-name="Group 985" transform="translate(596.061 101.761)">
      <rect id="Rectangle_222" data-name="Rectangle 222" width="7.731" height="0.596" transform="translate(0)" fill="#ff0058"/>
    </g>
    <g id="Group_986" data-name="Group 986" transform="translate(593.198 109.205)">
      <rect id="Rectangle_223" data-name="Rectangle 223" width="10.293" height="0.596" fill="#ff0058"/>
    </g>
    <g id="Group_987" data-name="Group 987" transform="translate(596.036 85.154)">
      <path id="Path_435" data-name="Path 435" d="M646.5,115.333h-8.753v-.6H646.5a2.565,2.565,0,0,0,0-5.131h-8.778v-.6H646.5a3.161,3.161,0,1,1,0,6.323Z" transform="translate(-637.719 -109.01)" fill="#ff0058"/>
    </g>
    <g id="Group_988" data-name="Group 988" transform="translate(596.061 98.897)">
      <path id="Path_436" data-name="Path 436" d="M646.514,138.386h-8.753v-.6h8.753a2.565,2.565,0,0,0,0-5.131h-8.753v-.6h8.753a3.161,3.161,0,0,1,0,6.323Z" transform="translate(-637.761 -132.063)" fill="#ff0058"/>
    </g>
    <g id="Group_989" data-name="Group 989" transform="translate(593.198 106.342)">
      <path id="Path_437" data-name="Path 437" d="M644.574,150.873H632.958v-.6h11.616a2.565,2.565,0,1,0,0-5.13h-8.753v-.6h8.753a3.161,3.161,0,1,1,0,6.322Z" transform="translate(-632.958 -144.551)" fill="#ff0058"/>
    </g>
    <g id="Group_990" data-name="Group 990" transform="translate(604.189 91.739)">
      <path id="Path_438" data-name="Path 438" d="M667.891,126.379H654.556a3.161,3.161,0,0,1,0-6.323h13.335v.6H654.556a2.565,2.565,0,0,0,0,5.131h13.335Z" transform="translate(-651.395 -120.056)" fill="#ff0058"/>
    </g>
    <g id="Group_991" data-name="Group 991" transform="translate(616.836 56.758)">
      <rect id="Rectangle_224" data-name="Rectangle 224" width="6.703" height="0.596" transform="translate(0 6.192) rotate(-67.492)" fill="#ff0058"/>
    </g>
    <g id="Group_992" data-name="Group 992" transform="translate(615.234 63.965)">
      <path id="Path_439" data-name="Path 439" d="M670.79,75.21a.871.871,0,1,1,.871-.87A.872.872,0,0,1,670.79,75.21Zm0-1.145a.275.275,0,1,0,.275.275A.275.275,0,0,0,670.79,74.065Z" transform="translate(-669.92 -73.469)" fill="#ff0058"/>
    </g>
    <g id="Group_993" data-name="Group 993" transform="translate(551.096 90.308)">
      <path id="Path_440" data-name="Path 440" d="M580.387,122.26a.85.85,0,0,1-.711-.295c-.3-.382-.144-.979.018-1.611.128-.5.287-1.119.1-1.363a.682.682,0,0,0-.549-.168c-1.022,0-1.814.792-2.652,1.631-.888.887-1.805,1.805-3.075,1.805a.833.833,0,0,1-.722-.312c-.305-.423-.082-1.091.154-1.8.144-.432.362-1.086.235-1.261-.041-.058-.18-.064-.239-.064a4.033,4.033,0,0,0-2.989,1.764,3.812,3.812,0,0,1-2.738,1.672.767.767,0,0,1-.688-.3c-.263-.4-.018-.975.265-1.645.2-.477.478-1.131.33-1.353-.057-.087-.228-.135-.479-.135a4.067,4.067,0,0,0-3.711,3.138h-.6a4.6,4.6,0,0,1,4.307-3.734,1.089,1.089,0,0,1,.976.4c.324.489.018,1.214-.278,1.914-.141.333-.4.953-.317,1.083.005.008.054.036.191.036.95,0,1.575-.685,2.3-1.477a4.561,4.561,0,0,1,3.43-1.958.834.834,0,0,1,.723.311c.305.424.083,1.092-.154,1.8-.144.432-.361,1.086-.235,1.261.042.058.181.064.238.064,1.022,0,1.814-.792,2.652-1.631.888-.888,1.805-1.805,3.074-1.805a1.217,1.217,0,0,1,1.02.4c.368.474.186,1.187.01,1.876-.1.4-.242.946-.125,1.1.043.056.169.064.24.064,1.006,0,1.658-.783,2.348-1.611.748-.9,1.521-1.825,2.806-1.825a.883.883,0,0,1,.73.284c.256.321.156.767.049,1.24-.094.419-.192.853-.011,1.078a1.251,1.251,0,0,0,.95.261c.647,0,1.134-.655,1.7-1.413.705-.948,1.505-2.023,2.882-2.023a.844.844,0,0,1,.752.318c.264.391.044.94-.188,1.522-.125.314-.335.838-.248.966.014.021.085.057.258.057a2.654,2.654,0,0,0,1.793-1.058,3.183,3.183,0,0,1,2.215-1.232.958.958,0,0,1,.782.308,1.8,1.8,0,0,1,.083,1.48c-.074.371-.166.832-.041.985a.449.449,0,0,0,.321.089,1.8,1.8,0,0,0,1.755-1.127A1.871,1.871,0,0,1,601,118.8a.936.936,0,0,1,.746.309,2.364,2.364,0,0,1,.179,1.823,3.55,3.55,0,0,0-.054.456h-.6a4.056,4.056,0,0,1,.06-.544c.066-.44.166-1.105-.041-1.346a.346.346,0,0,0-.294-.1c-.6,0-.826.318-1.173.881a2.383,2.383,0,0,1-2.263,1.41.957.957,0,0,1-.783-.308,1.806,1.806,0,0,1-.083-1.48c.075-.371.167-.832.042-.985a.448.448,0,0,0-.321-.09,2.656,2.656,0,0,0-1.793,1.058,3.184,3.184,0,0,1-2.215,1.233.845.845,0,0,1-.752-.319c-.264-.39-.044-.94.189-1.521.125-.314.334-.838.248-.966-.015-.021-.085-.057-.258-.057-1.077,0-1.752.906-2.4,1.783-.605.813-1.231,1.653-2.177,1.653a1.715,1.715,0,0,1-1.416-.485,1.847,1.847,0,0,1-.1-1.582c.061-.269.144-.64.067-.737-.023-.029-.1-.06-.264-.06-1.006,0-1.657.782-2.348,1.61C582.445,121.332,581.673,122.26,580.387,122.26Z" transform="translate(-562.337 -117.655)" fill="#ff0058"/>
    </g>
    <g id="Group_994" data-name="Group 994" transform="translate(552.328 96.607)">
      <path id="Path_441" data-name="Path 441" d="M574.35,133.971a1.1,1.1,0,0,1-.933-.377c-.362-.481-.15-1.222.074-2.007.158-.553.354-1.241.171-1.484a.564.564,0,0,0-.457-.14,3.642,3.642,0,0,0-2.213,1.242,3.066,3.066,0,0,1-1.8,1.049.591.591,0,0,1-.492-.222c-.262-.339-.11-.927.066-1.608.139-.538.329-1.275.147-1.511-.018-.023-.073-.094-.293-.094-1.021,0-2.433,1.411-3.8,2.776l-.422-.422c1.517-1.517,2.951-2.95,4.219-2.95a.912.912,0,0,1,.765.326c.361.467.157,1.259-.041,2.025a2.969,2.969,0,0,0-.17,1.1c.42-.01.9-.445,1.417-.906a4.123,4.123,0,0,1,2.612-1.394,1.1,1.1,0,0,1,.932.377c.363.481.151,1.222-.073,2.007-.157.553-.354,1.241-.171,1.484a.561.561,0,0,0,.457.14c.652,0,1.286-.813,1.959-1.674.854-1.095,1.823-2.335,3.195-2.335a1.331,1.331,0,0,1,1.086.423,2.586,2.586,0,0,1,.128,2.088,2.592,2.592,0,0,0-.091.933c.4-.008,1.061-.731,1.641-1.369.884-.972,1.885-2.075,2.963-2.075a1.217,1.217,0,0,1,1.02.4c.368.474.185,1.187.009,1.876-.1.4-.242.946-.125,1.1.044.056.17.064.241.064.4,0,1.185-.733,1.88-1.379,1.036-.965,2.211-2.057,3.274-2.057,1.158,0,1.158.9,1.158,1.443,0,.644.025.847.56.847a3.614,3.614,0,0,0,2.395-.749,5.091,5.091,0,0,1,3.332-.968v.6a4.479,4.479,0,0,0-3,.867,4.2,4.2,0,0,1-2.726.85c-1.157,0-1.157-.9-1.157-1.443,0-.644-.026-.847-.562-.847-.828,0-1.912,1.008-2.868,1.9-.888.826-1.654,1.539-2.286,1.539a.847.847,0,0,1-.711-.294c-.3-.382-.144-.979.018-1.611.128-.5.286-1.119.1-1.363a.682.682,0,0,0-.549-.168c-.814,0-1.721,1-2.522,1.88-.758.835-1.413,1.557-2.06,1.557a.6.6,0,0,1-.483-.21c-.252-.306-.156-.8-.034-1.425.112-.574.252-1.287,0-1.595a.781.781,0,0,0-.626-.206c-1.081,0-1.917,1.07-2.725,2.105C576.014,133.046,575.292,133.971,574.35,133.971Z" transform="translate(-564.404 -128.221)" fill="#ff0058"/>
    </g>
    <g id="Group_995" data-name="Group 995" transform="translate(550.038 114.36)">
      <path id="Path_442" data-name="Path 442" d="M581.961,161.458a.769.769,0,0,1-.711-.309c-.227-.37.027-.871.3-1.4.165-.326.442-.872.343-1.033-.035-.058-.185-.119-.5-.119a3.661,3.661,0,0,0-2.017.965,5.238,5.238,0,0,1-3.136,1.326.973.973,0,0,1-.821-.312,1.4,1.4,0,0,1-.041-1.2c.063-.249.147-.59.068-.692-.016-.02-.085-.083-.351-.083-.736,0-1.388.653-2.08,1.344a3.886,3.886,0,0,1-2.5,1.519.6.6,0,0,1-.538-.241c-.2-.3-.045-.7.122-1.137.1-.265.274-.708.189-.832-.027-.039-.132-.081-.346-.081a3.655,3.655,0,0,0-2.391,1.08,4.183,4.183,0,0,1-2.763,1.21.771.771,0,0,1-.712-.309c-.227-.37.027-.871.3-1.4.166-.326.442-.872.343-1.033-.036-.058-.186-.119-.5-.119-.678,0-1.762.74-3.224,2.2l-.422-.421c1.021-1.021,2.509-2.376,3.646-2.376a1.085,1.085,0,0,1,1.009.4c.274.445-.028,1.04-.32,1.614a2.364,2.364,0,0,0-.318.823.758.758,0,0,0,.2.022,3.655,3.655,0,0,0,2.39-1.08,4.181,4.181,0,0,1,2.763-1.211.947.947,0,0,1,.838.34c.263.383.057.915-.126,1.384a2.82,2.82,0,0,0-.178.565h.039c.736,0,1.388-.653,2.079-1.344a3.889,3.889,0,0,1,2.5-1.518.975.975,0,0,1,.822.312,1.4,1.4,0,0,1,.04,1.2c-.062.249-.147.59-.067.692.015.02.085.083.351.083a4.7,4.7,0,0,0,2.784-1.211,4.124,4.124,0,0,1,2.37-1.08,1.084,1.084,0,0,1,1.008.4c.274.446-.027,1.04-.319,1.615a2.4,2.4,0,0,0-.318.823.783.783,0,0,0,.2.022,4.592,4.592,0,0,0,2.386-1.362,4.912,4.912,0,0,1,2.768-1.5.9.9,0,0,1,.719.287,1.914,1.914,0,0,1,.145,1.5,2.032,2.032,0,0,0-.037.776s0,0,.04,0a1.814,1.814,0,0,0,.717-.247l.266.533c-.671.336-1.1.394-1.378.19-.363-.264-.283-.789-.2-1.344.056-.364.132-.862-.008-1.025a.346.346,0,0,0-.267-.079,4.59,4.59,0,0,0-2.386,1.362A4.919,4.919,0,0,1,581.961,161.458Z" transform="translate(-560.563 -157.999)" fill="#ff0058"/>
    </g>
  </g>
</svg>
