<svg xmlns="http://www.w3.org/2000/svg" width="103.627" height="87.498" viewBox="0 0 103.627 87.498">
  <g id="Group_934" data-name="Group 934" transform="translate(-41 -51.413)">
    <g id="Group_877" data-name="Group 877" transform="translate(98.762 72.954)">
      <g id="Group_872" data-name="Group 872">
        <g id="Group_869" data-name="Group 869" transform="translate(3.246 4.329)">
          <path id="Path_374" data-name="Path 374" d="M126.735,87.362l-.959.494c.22.438.43.88.612,1.339l1-.409C127.194,88.3,126.971,87.83,126.735,87.362Z" transform="translate(-125.776 -87.362)" fill="#ff0058" fill-rule="evenodd"/>
        </g>
        <g id="Group_870" data-name="Group 870" transform="translate(1.839 1.956)">
          <path id="Path_375" data-name="Path 375" d="M124.662,84.063l-.84.677.437.575.4.607.916-.571-.433-.659Z" transform="translate(-123.822 -84.063)" fill="#ff0058" fill-rule="evenodd"/>
        </g>
        <g id="Group_871" data-name="Group 871">
          <path id="Path_376" data-name="Path 376" d="M121.893,81.346l-.627.879a8.788,8.788,0,0,1,1.082.918l.76-.767A9.884,9.884,0,0,0,121.893,81.346Z" transform="translate(-121.266 -81.346)" fill="#ff0058" fill-rule="evenodd"/>
        </g>
      </g>
      <g id="Group_876" data-name="Group 876" transform="translate(4.279 6.931)">
        <g id="Group_873" data-name="Group 873" transform="translate(1.204 5.41)">
          <path id="Path_377" data-name="Path 377" d="M129.954,98.495l-1.069.154q.113.744.186,1.5l1.074-.114Q130.07,99.261,129.954,98.495Z" transform="translate(-128.885 -98.495)" fill="#ff0058" fill-rule="evenodd"/>
        </g>
        <g id="Group_874" data-name="Group 874" transform="translate(0.72 2.676)">
          <path id="Path_378" data-name="Path 378" d="M129.265,94.7l-1.053.24c.107.488.215.975.3,1.47l1.063-.189C129.487,95.706,129.376,95.2,129.265,94.7Z" transform="translate(-128.212 -94.696)" fill="#ff0058" fill-rule="evenodd"/>
        </g>
        <g id="Group_875" data-name="Group 875">
          <path id="Path_379" data-name="Path 379" d="M128.233,90.977l-1.021.35c.155.47.307.943.435,1.423l1.041-.284C128.554,91.965,128.4,91.47,128.233,90.977Z" transform="translate(-127.212 -90.977)" fill="#ff0058" fill-rule="evenodd"/>
        </g>
      </g>
    </g>
    <g id="Group_898" data-name="Group 898" transform="translate(80.32 71.39)">
      <g id="Group_881" data-name="Group 881" transform="translate(8.883 25.501)">
        <g id="Group_878" data-name="Group 878" transform="translate(1.511)">
          <path id="Path_380" data-name="Path 380" d="M110.343,116.433l1.077-.069a8.594,8.594,0,0,0-.294-1.755l-1.043.279A7.547,7.547,0,0,1,110.343,116.433Z" transform="translate(-110.083 -114.609)" fill="#ff0058" fill-rule="evenodd"/>
        </g>
        <g id="Group_879" data-name="Group 879" transform="translate(1.399 3.061)">
          <path id="Path_381" data-name="Path 381" d="M109.927,120.378l1.018.358a8.379,8.379,0,0,0,.4-1.754l-1.072-.12A7.325,7.325,0,0,1,109.927,120.378Z" transform="translate(-109.927 -118.862)" fill="#ff0058" fill-rule="evenodd"/>
        </g>
        <g id="Group_880" data-name="Group 880" transform="translate(0 5.697)">
          <path id="Path_382" data-name="Path 382" d="M107.983,123.819l.83.69a9.09,9.09,0,0,0,1-1.461l-.944-.523A7.972,7.972,0,0,1,107.983,123.819Z" transform="translate(-107.983 -122.525)" fill="#ff0058" fill-rule="evenodd"/>
        </g>
      </g>
      <g id="Group_885" data-name="Group 885" transform="translate(5.407 18.14)">
        <g id="Group_882" data-name="Group 882">
          <path id="Path_383" data-name="Path 383" d="M104.439,106.238l.69-.83c-.442-.358-.891-.708-1.341-1.028l-.635.873C103.6,105.57,104.021,105.9,104.439,106.238Z" transform="translate(-103.153 -104.38)" fill="#ff0058" fill-rule="evenodd"/>
        </g>
        <g id="Group_883" data-name="Group 883" transform="translate(2.216 1.96)">
          <path id="Path_384" data-name="Path 384" d="M107.264,109.066l.874-.633A12.184,12.184,0,0,0,107,107.1l-.769.758A11.1,11.1,0,0,1,107.264,109.066Z" transform="translate(-106.232 -107.104)" fill="#ff0058" fill-rule="evenodd"/>
        </g>
        <g id="Group_884" data-name="Group 884" transform="translate(3.92 4.452)">
          <path id="Path_385" data-name="Path 385" d="M109.256,112.538l1.007-.389a15.2,15.2,0,0,0-.718-1.582l-.945.522A14.19,14.19,0,0,1,109.256,112.538Z" transform="translate(-108.6 -110.566)" fill="#ff0058" fill-rule="evenodd"/>
        </g>
      </g>
      <g id="Group_889" data-name="Group 889" transform="translate(0.14 11.74)">
        <g id="Group_886" data-name="Group 886">
          <path id="Path_386" data-name="Path 386" d="M96.233,97.316l1.021-.349a9.2,9.2,0,0,1-.355-1.48l-1.066.169A10.14,10.14,0,0,0,96.233,97.316Z" transform="translate(-95.834 -95.487)" fill="#ff0058" fill-rule="evenodd"/>
        </g>
        <g id="Group_887" data-name="Group 887" transform="translate(0.94 2.572)">
          <path id="Path_387" data-name="Path 387" d="M98.125,100.989l.817-.705c-.153-.2-.321-.384-.463-.588l-.389-.635-.95.512.452.738C97.756,100.547,97.947,100.763,98.125,100.989Z" transform="translate(-97.14 -99.061)" fill="#ff0058" fill-rule="evenodd"/>
        </g>
        <g id="Group_888" data-name="Group 888" transform="translate(2.874 4.645)">
          <path id="Path_388" data-name="Path 388" d="M101.144,103.794l.636-.873c-.431-.317-.851-.64-1.238-.98l-.714.81C100.254,103.124,100.7,103.464,101.144,103.794Z" transform="translate(-99.828 -101.941)" fill="#ff0058" fill-rule="evenodd"/>
        </g>
      </g>
      <g id="Group_893" data-name="Group 893" transform="translate(0 3.512)">
        <g id="Group_890" data-name="Group 890" transform="translate(1.82)">
          <path id="Path_389" data-name="Path 389" d="M98.168,85.334l.869.64.47-.6.538-.543-.748-.779-.6.608Z" transform="translate(-98.168 -84.054)" fill="#ff0058" fill-rule="evenodd"/>
        </g>
        <g id="Group_891" data-name="Group 891" transform="translate(0.434 2.423)">
          <path id="Path_390" data-name="Path 390" d="M96.243,89.006l1.03.323a8.906,8.906,0,0,1,.572-1.4l-.951-.509A9.919,9.919,0,0,0,96.243,89.006Z" transform="translate(-96.243 -87.421)" fill="#ff0058" fill-rule="evenodd"/>
        </g>
        <g id="Group_892" data-name="Group 892" transform="translate(0 5.321)">
          <path id="Path_391" data-name="Path 391" d="M95.651,93.154l1.079-.024a4.53,4.53,0,0,1,.019-.759,4.621,4.621,0,0,1,.08-.753l-1.066-.169a5.547,5.547,0,0,0-.091.851A5.3,5.3,0,0,0,95.651,93.154Z" transform="translate(-95.639 -91.448)" fill="#ff0058" fill-rule="evenodd"/>
        </g>
      </g>
      <g id="Group_897" data-name="Group 897" transform="translate(3.995 0)">
        <g id="Group_894" data-name="Group 894" transform="translate(5.524)">
          <path id="Path_392" data-name="Path 392" d="M108.867,79.436l.219,1.057.774-.154.787-.093-.123-1.072-.833.1Z" transform="translate(-108.867 -79.173)" fill="#ff0058" fill-rule="evenodd"/>
        </g>
        <g id="Group_895" data-name="Group 895" transform="translate(2.637 0.585)">
          <path id="Path_393" data-name="Path 393" d="M104.855,80.543l.418,1a11.215,11.215,0,0,1,1.477-.518l-.3-1.036A12.234,12.234,0,0,0,104.855,80.543Z" transform="translate(-104.855 -79.985)" fill="#ff0058" fill-rule="evenodd"/>
        </g>
        <g id="Group_896" data-name="Group 896" transform="translate(0 1.717)">
          <path id="Path_394" data-name="Path 394" d="M101.191,82.464l.643.867c.2-.161.429-.285.641-.43a5.182,5.182,0,0,1,.665-.394l-.515-.948a5.954,5.954,0,0,0-.729.432C101.662,82.15,101.412,82.287,101.191,82.464Z" transform="translate(-101.191 -81.559)" fill="#ff0058" fill-rule="evenodd"/>
        </g>
      </g>
    </g>
    <g id="Group_911" data-name="Group 911" transform="translate(64.643 86.994)">
      <g id="Group_902" data-name="Group 902" transform="translate(0.116)">
        <g id="Group_899" data-name="Group 899" transform="translate(0 6.723)">
          <path id="Path_395" data-name="Path 395" d="M75.479,110.48l-1.042-.282c-.091.344-.2.684-.276,1.032l-.145,1.064,1.071.135.133-.986C75.293,111.12,75.393,110.8,75.479,110.48Z" transform="translate(-74.016 -110.198)" fill="#ff0058" fill-rule="evenodd"/>
        </g>
        <g id="Group_900" data-name="Group 900" transform="translate(0.938 3.177)">
          <path id="Path_396" data-name="Path 396" d="M77.144,105.765l-.959-.494a6.262,6.262,0,0,0-.453.957l-.411.98,1.009.384.386-.923A5.794,5.794,0,0,1,77.144,105.765Z" transform="translate(-75.32 -105.271)" fill="#ff0058" fill-rule="evenodd"/>
        </g>
        <g id="Group_901" data-name="Group 901" transform="translate(2.625)">
          <path id="Path_397" data-name="Path 397" d="M79.73,101.505l-.863-.649c-.4.578-.856,1.114-1.2,1.728l.917.569C78.909,102.57,79.352,102.057,79.73,101.505Z" transform="translate(-77.664 -100.856)" fill="#ff0058" fill-rule="evenodd"/>
        </g>
      </g>
      <g id="Group_906" data-name="Group 906" transform="translate(0 10.545)">
        <g id="Group_903" data-name="Group 903" transform="translate(2.296 6.63)">
          <path id="Path_398" data-name="Path 398" d="M77.914,124.722l-.869.641.314.445c.11.144.246.266.368.4l.756.784.732-.793-.684-.711c-.111-.121-.236-.23-.335-.361Z" transform="translate(-77.045 -124.722)" fill="#ff0058" fill-rule="evenodd"/>
        </g>
        <g id="Group_904" data-name="Group 904" transform="translate(0.555 3.487)">
          <path id="Path_399" data-name="Path 399" d="M75.656,120.354l-1.031.32c.117.342.2.7.346,1.028l.479.977.954-.5-.435-.886C75.833,120.991,75.763,120.665,75.656,120.354Z" transform="translate(-74.625 -120.354)" fill="#ff0058" fill-rule="evenodd"/>
        </g>
        <g id="Group_905" data-name="Group 905">
          <path id="Path_400" data-name="Path 400" d="M74.934,115.512l-1.079,0,.008,1.078.158,1.07,1.065-.174-.147-.979Z" transform="translate(-73.854 -115.509)" fill="#ff0058" fill-rule="evenodd"/>
        </g>
      </g>
      <g id="Group_910" data-name="Group 910" transform="translate(5.108 19.636)">
        <g id="Group_907" data-name="Group 907" transform="translate(7.291 1.955)">
          <path id="Path_401" data-name="Path 401" d="M91.106,130.919,91.085,132a14.667,14.667,0,0,0,2.12-.066l-.1-1.074A13.753,13.753,0,0,1,91.106,130.919Z" transform="translate(-91.085 -130.858)" fill="#ff0058" fill-rule="evenodd"/>
        </g>
        <g id="Group_908" data-name="Group 908" transform="translate(3.489 1.499)">
          <path id="Path_402" data-name="Path 402" d="M86.106,130.225l-.3,1.036c.694.178,1.4.312,2.1.446l.141-1.07C87.4,130.51,86.746,130.387,86.106,130.225Z" transform="translate(-85.802 -130.225)" fill="#ff0058" fill-rule="evenodd"/>
        </g>
        <g id="Group_909" data-name="Group 909">
          <path id="Path_403" data-name="Path 403" d="M81.559,128.142l-.606.893a6.52,6.52,0,0,0,.932.553c.319.169.632.353.958.507l.438-.987c-.3-.141-.581-.311-.872-.464A5.7,5.7,0,0,1,81.559,128.142Z" transform="translate(-80.953 -128.142)" fill="#ff0058" fill-rule="evenodd"/>
        </g>
      </g>
    </g>
    <g id="Group_912" data-name="Group 912" transform="translate(126.636 53.994)">
      <path id="Path_404" data-name="Path 404" d="M163.238,61.477a3.238,3.238,0,1,1,3.238-3.238A3.242,3.242,0,0,1,163.238,61.477Zm0-5.757a2.519,2.519,0,1,0,2.519,2.519A2.521,2.521,0,0,0,163.238,55.72Z" transform="translate(-160 -55)" fill="#ff0058"/>
    </g>
    <g id="Group_915" data-name="Group 915" transform="translate(138.15 64.069)">
      <g id="Group_913" data-name="Group 913" transform="translate(2.879)">
        <rect id="Rectangle_189" data-name="Rectangle 189" width="0.72" height="6.477" fill="#ff0058"/>
      </g>
      <g id="Group_914" data-name="Group 914" transform="translate(0 2.879)">
        <rect id="Rectangle_190" data-name="Rectangle 190" width="6.477" height="0.72" fill="#ff0058"/>
      </g>
    </g>
    <g id="Group_918" data-name="Group 918" transform="translate(41 110.126)">
      <g id="Group_916" data-name="Group 916" transform="translate(2.879)">
        <rect id="Rectangle_191" data-name="Rectangle 191" width="0.72" height="6.477" fill="#ff0058"/>
      </g>
      <g id="Group_917" data-name="Group 917" transform="translate(0 2.879)">
        <rect id="Rectangle_192" data-name="Rectangle 192" width="6.477" height="0.72" fill="#ff0058"/>
      </g>
    </g>
    <g id="Group_919" data-name="Group 919" transform="translate(58.991 132.434)">
      <path id="Path_405" data-name="Path 405" d="M69.238,170.477a3.238,3.238,0,1,1,3.238-3.238A3.242,3.242,0,0,1,69.238,170.477Zm0-5.757a2.519,2.519,0,1,0,2.519,2.519A2.521,2.521,0,0,0,69.238,164.72Z" transform="translate(-66 -164)" fill="#ff0058"/>
    </g>
    <g id="Group_920" data-name="Group 920" transform="translate(64.748 76.303)">
      <path id="Path_406" data-name="Path 406" d="M79.4,96.794a5.4,5.4,0,1,1,5.4-5.4A5.4,5.4,0,0,1,79.4,96.794Zm0-10.075A4.678,4.678,0,1,0,84.075,91.4,4.683,4.683,0,0,0,79.4,86.72Z" transform="translate(-74 -86)" fill="#ff0058"/>
    </g>
    <g id="Group_921" data-name="Group 921" transform="translate(77.45 99.8)">
      <path id="Path_407" data-name="Path 407" d="M95.9,132.826,91.651,122.9l9.922-4.254,4.254,9.922ZM92.6,123.283l3.686,8.6,8.6-3.686-3.686-8.6Z" transform="translate(-91.651 -118.651)" fill="#ff0058"/>
    </g>
    <g id="Group_922" data-name="Group 922" transform="translate(90.353 67.678)">
      <path id="Path_408" data-name="Path 408" d="M114.173,84.783l-4.592-10.768L121.2,75.422Zm-3.441-9.9,3.614,8.474,5.533-7.368Z" transform="translate(-109.581 -74.015)" fill="#ff0058"/>
    </g>
    <g id="Group_923" data-name="Group 923" transform="translate(56.832 51.413)">
      <path id="Path_409" data-name="Path 409" d="M126.328,129.811l-8.452-4.755.353-.627,7.38,4.151V70.361l-22.654-17.7L83.514,69.944,63.72,52.977v63.069l19.786,12.72,19.418-12.945,2.351,1.323-.353.627-1.967-1.106L83.513,129.626,63,116.439V51.413L83.505,68.989l19.42-17.262,23.4,18.283Z" transform="translate(-63 -51.413)" fill="#ff0058"/>
    </g>
    <g id="Group_924" data-name="Group 924" transform="translate(98.785 87.097)">
      <path id="Path_410" data-name="Path 410" d="M134.017,104.483a8.107,8.107,0,0,0-12.193,0l-.525-.492a8.826,8.826,0,0,1,13.245,0Z" transform="translate(-121.298 -101)" fill="#ff0058"/>
    </g>
    <g id="Group_925" data-name="Group 925" transform="translate(95.692 89.976)">
      <path id="Path_411" data-name="Path 411" d="M136.43,130.187H117V105h19.43Zm-18.71-.72H135.71V105.72H117.72Z" transform="translate(-117 -105)" fill="#ff0058"/>
    </g>
    <g id="Group_926" data-name="Group 926" transform="translate(98.571 114.443)">
      <path id="Path_412" data-name="Path 412" d="M134.673,150.514H121V139h13.673Zm-12.953-.72h12.234V139.72H121.72Z" transform="translate(-121 -139)" fill="#ff0058"/>
    </g>
    <g id="Group_927" data-name="Group 927" transform="translate(98.93 119.481)">
      <rect id="Rectangle_193" data-name="Rectangle 193" width="12.953" height="0.72" fill="#ff0058"/>
    </g>
    <g id="Group_928" data-name="Group 928" transform="translate(119.44 89.976)">
      <path id="Path_413" data-name="Path 413" d="M169.43,130.187H150V105h19.43Zm-18.71-.72H168.71V105.72H150.72Z" transform="translate(-150 -105)" fill="#ff0058"/>
    </g>
    <g id="Group_929" data-name="Group 929" transform="translate(122.318 114.443)">
      <path id="Path_414" data-name="Path 414" d="M167.673,150.514H154V139h13.673Zm-12.953-.72h12.234V139.72H154.72Z" transform="translate(-154 -139)" fill="#ff0058"/>
    </g>
    <g id="Group_930" data-name="Group 930" transform="translate(122.678 119.481)">
      <rect id="Rectangle_194" data-name="Rectangle 194" width="12.953" height="0.72" fill="#ff0058"/>
    </g>
    <g id="Group_931" data-name="Group 931" transform="translate(114.762 95.013)">
      <rect id="Rectangle_195" data-name="Rectangle 195" width="5.037" height="0.72" fill="#ff0058"/>
    </g>
    <g id="Group_932" data-name="Group 932" transform="translate(115.122 108.686)">
      <rect id="Rectangle_196" data-name="Rectangle 196" width="5.037" height="0.72" fill="#ff0058"/>
    </g>
    <g id="Group_933" data-name="Group 933" transform="translate(122.533 87.097)">
      <path id="Path_415" data-name="Path 415" d="M167.017,104.483a8.107,8.107,0,0,0-12.193,0l-.525-.492a8.826,8.826,0,0,1,13.245,0Z" transform="translate(-154.298 -101)" fill="#ff0058"/>
    </g>
  </g>
</svg>
