<svg xmlns="http://www.w3.org/2000/svg" width="82.61" height="79.125" viewBox="0 0 82.61 79.125">
  <g id="Group_1022" data-name="Group 1022" transform="translate(-811.792 -45.493)">
    <g id="Group_997" data-name="Group 997" transform="translate(814.677 78.175)">
      <path id="Path_443" data-name="Path 443" d="M854.244,144.811a39.381,39.381,0,0,1-37.784-27.8l.59-.184a38.951,38.951,0,0,0,76.138-11.581,39.339,39.339,0,0,0-.587-6.773l.609-.107a39.6,39.6,0,0,1-38.966,46.442Z" transform="translate(-816.46 -98.369)" fill="#ff0058"/>
    </g>
    <g id="Group_998" data-name="Group 998" transform="translate(812.899 45.493)">
      <path id="Path_444" data-name="Path 444" d="M814.775,94.734a39.572,39.572,0,1,1,76.9-18.695l-.6.14a38.953,38.953,0,1,0-75.7,18.4Z" transform="translate(-813.583 -45.493)" fill="#ff0058"/>
    </g>
    <g id="Group_999" data-name="Group 999" transform="translate(830.534 58.009)">
      <path id="Path_445" data-name="Path 445" d="M844.7,70.911a2.584,2.584,0,1,1,2.585-2.584A2.587,2.587,0,0,1,844.7,70.911Zm0-4.55a1.966,1.966,0,1,0,1.967,1.966A1.968,1.968,0,0,0,844.7,66.36Z" transform="translate(-842.115 -65.742)" fill="#ff0058"/>
    </g>
    <g id="Group_1002" data-name="Group 1002" transform="translate(868.106 55.189)">
      <g id="Group_1000" data-name="Group 1000" transform="translate(2.251)">
        <rect id="Rectangle_225" data-name="Rectangle 225" width="0.618" height="5.12" fill="#ff0058"/>
      </g>
      <g id="Group_1001" data-name="Group 1001" transform="translate(0 2.251)">
        <rect id="Rectangle_226" data-name="Rectangle 226" width="5.12" height="0.618" fill="#ff0058"/>
      </g>
    </g>
    <g id="Group_1005" data-name="Group 1005" transform="translate(842.505 105.251)">
      <g id="Group_1003" data-name="Group 1003" transform="translate(2.251 0)">
        <rect id="Rectangle_227" data-name="Rectangle 227" width="0.618" height="5.12" fill="#ff0058"/>
      </g>
      <g id="Group_1004" data-name="Group 1004" transform="translate(0 2.251)">
        <rect id="Rectangle_228" data-name="Rectangle 228" width="5.12" height="0.618" fill="#ff0058"/>
      </g>
    </g>
    <g id="Group_1006" data-name="Group 1006" transform="translate(878.891 77.92)">
      <path id="Path_446" data-name="Path 446" d="M922.933,103.124a2.585,2.585,0,1,1,2.584-2.584A2.588,2.588,0,0,1,922.933,103.124Zm0-4.551a1.966,1.966,0,1,0,1.966,1.967A1.968,1.968,0,0,0,922.933,98.573Z" transform="translate(-920.349 -97.955)" fill="#ff0058"/>
    </g>
    <g id="Group_1007" data-name="Group 1007" transform="translate(833.948 108.64)">
      <path id="Path_447" data-name="Path 447" d="M850.221,152.826a2.585,2.585,0,1,1,2.585-2.585A2.588,2.588,0,0,1,850.221,152.826Zm0-4.551a1.966,1.966,0,1,0,1.967,1.966A1.968,1.968,0,0,0,850.221,148.275Z" transform="translate(-847.637 -147.657)" fill="#ff0058"/>
    </g>
    <g id="Group_1010" data-name="Group 1010" transform="translate(860.141 111.509)">
      <g id="Group_1008" data-name="Group 1008" transform="translate(2.251)">
        <rect id="Rectangle_229" data-name="Rectangle 229" width="0.618" height="5.12" fill="#ff0058"/>
      </g>
      <g id="Group_1009" data-name="Group 1009" transform="translate(0 2.251)">
        <rect id="Rectangle_230" data-name="Rectangle 230" width="5.12" height="0.618" fill="#ff0058"/>
      </g>
    </g>
    <g id="Group_1011" data-name="Group 1011" transform="translate(832.241 69.955)">
      <path id="Path_448" data-name="Path 448" d="M846.607,88.533a1.731,1.731,0,1,1,1.731-1.731A1.734,1.734,0,0,1,846.607,88.533Zm0-2.844a1.113,1.113,0,1,0,1.113,1.113A1.114,1.114,0,0,0,846.607,85.688Z" transform="translate(-844.876 -85.07)" fill="#ff0058"/>
    </g>
    <g id="Group_1012" data-name="Group 1012" transform="translate(830.534 67.68)">
      <path id="Path_449" data-name="Path 449" d="M882.555,116.14h-40.44V81.388h40.44Zm-39.822-.618h39.2V82.006h-39.2Z" transform="translate(-842.115 -81.388)" fill="#ff0058"/>
    </g>
    <g id="Group_1013" data-name="Group 1013" transform="translate(864.408 71.662)">
      <rect id="Rectangle_231" data-name="Rectangle 231" width="4.267" height="0.618" transform="translate(0 0)" fill="#ff0058"/>
    </g>
    <g id="Group_1014" data-name="Group 1014" transform="translate(830.844 75.075)">
      <rect id="Rectangle_232" data-name="Rectangle 232" width="39.822" height="0.618" fill="#ff0058"/>
    </g>
    <g id="Group_1015" data-name="Group 1015" transform="translate(845.326 82.471)">
      <path id="Path_450" data-name="Path 450" d="M871.474,116.177a5.429,5.429,0,1,1,5.429-5.429A5.435,5.435,0,0,1,871.474,116.177Zm0-10.241a4.811,4.811,0,1,0,4.811,4.811A4.816,4.816,0,0,0,871.474,105.936Z" transform="translate(-866.045 -105.318)" fill="#ff0058"/>
    </g>
    <g id="Group_1016" data-name="Group 1016" transform="translate(811.792 96.037)">
      <path id="Path_451" data-name="Path 451" d="M812.363,134.626l-.571-.235,2.936-7.123,7.123,2.936-.235.572-6.552-2.7Z" transform="translate(-811.792 -127.268)" fill="#ff0058"/>
    </g>
    <g id="Group_1017" data-name="Group 1017" transform="translate(884.042 69.358)">
      <path id="Path_452" data-name="Path 452" d="M935.55,91.251l-6.867-3.493.28-.551,6.316,3.213,3.214-6.316.55.28Z" transform="translate(-928.684 -84.104)" fill="#ff0058"/>
    </g>
    <g id="Group_1018" data-name="Group 1018" transform="translate(839.229 81.333)">
      <path id="Path_453" data-name="Path 453" d="M867.707,116.611a13.314,13.314,0,0,1-11.427-6.405l-.1-.161.1-.161a13.4,13.4,0,0,1,22.854,0l.1.161-.1.161A13.314,13.314,0,0,1,867.707,116.611Zm-10.8-6.567a12.778,12.778,0,0,0,21.6,0,12.778,12.778,0,0,0-21.6,0Z" transform="translate(-856.181 -103.478)" fill="#ff0058"/>
    </g>
    <g id="Group_1019" data-name="Group 1019" transform="translate(816.881 72.8)">
      <path id="Path_454" data-name="Path 454" d="M824.886,99.392a4.86,4.86,0,1,1,4.86-4.86A4.866,4.866,0,0,1,824.886,99.392Zm0-9.1a4.242,4.242,0,1,0,4.242,4.242A4.247,4.247,0,0,0,824.886,90.29Z" transform="translate(-820.025 -89.672)" fill="#ff0058"/>
    </g>
    <g id="Group_1020" data-name="Group 1020" transform="translate(873.812 89.34)">
      <path id="Path_455" data-name="Path 455" d="M916.921,128.343l-4.788-7.124,7.124-4.787,4.788,7.124Zm-3.93-6.955,4.1,6.1,6.1-4.1-4.1-6.1Z" transform="translate(-912.133 -116.432)" fill="#ff0058"/>
    </g>
    <g id="Group_1021" data-name="Group 1021" transform="translate(849.398 53.188)">
      <path id="Path_456" data-name="Path 456" d="M881.993,69.167l-9.36-6.237,10.082-4.987Zm-8.126-6.158,7.578,5.05.584-9.088Z" transform="translate(-872.633 -57.942)" fill="#ff0058"/>
    </g>
  </g>
</svg>
