<svg xmlns="http://www.w3.org/2000/svg" width="98.264" height="78.199" viewBox="0 0 98.264 78.199">
  <g id="Group_17331" data-name="Group 17331" transform="translate(-519 -2707.015)">
    <g id="Group_935" data-name="Group 935" transform="translate(561.306 2709.601)">
      <path id="Path_416" data-name="Path 416" d="M354.12,83.045a11.567,11.567,0,1,1,11.566-11.567A11.579,11.579,0,0,1,354.12,83.045Zm0-22.411a10.844,10.844,0,1,0,10.844,10.844A10.857,10.857,0,0,0,354.12,60.635Z" transform="translate(-342.553 -59.912)" fill="#ff0058"/>
    </g>
    <g id="Group_936" data-name="Group 936" transform="translate(600.094 2756.147)">
      <path id="Path_417" data-name="Path 417" d="M399.184,130.227a2.947,2.947,0,1,1,2.947-2.947A2.951,2.951,0,0,1,399.184,130.227Zm0-5.172a2.225,2.225,0,1,0,2.225,2.225A2.227,2.227,0,0,0,399.184,125.056Z" transform="translate(-396.237 -124.333)" fill="#ff0058"/>
    </g>
    <g id="Group_937" data-name="Group 937" transform="translate(542.442 2759.694)">
      <path id="Path_418" data-name="Path 418" d="M319.975,154.762l-3.53-21.989,21.989-3.531,3.531,21.99Zm-2.7-21.39,3.3,20.563,20.564-3.3-3.3-20.563Z" transform="translate(-316.445 -129.242)" fill="#ff0058"/>
    </g>
    <g id="Group_940" data-name="Group 940" transform="translate(519 2723.323)">
      <g id="Group_938" data-name="Group 938" transform="translate(2.655 0)">
        <rect id="Rectangle_197" data-name="Rectangle 197" width="0.723" height="6.034" fill="#ff0058"/>
      </g>
      <g id="Group_939" data-name="Group 939" transform="translate(0 2.656)">
        <rect id="Rectangle_198" data-name="Rectangle 198" width="6.034" height="0.723" fill="#ff0058"/>
      </g>
    </g>
    <g id="Group_941" data-name="Group 941" transform="translate(548.738 2713.911)">
      <rect id="Rectangle_199" data-name="Rectangle 199" width="7.758" height="0.723" transform="translate(0)" fill="#ff0058"/>
    </g>
    <g id="Group_942" data-name="Group 942" transform="translate(537.532 2719.945)">
      <rect id="Rectangle_200" data-name="Rectangle 200" width="19.394" height="0.723" transform="translate(0 0)" fill="#ff0058"/>
    </g>
    <g id="Group_943" data-name="Group 943" transform="translate(545.29 2725.979)">
      <rect id="Rectangle_201" data-name="Rectangle 201" width="11.637" height="0.723" transform="translate(0 0)" fill="#ff0058"/>
    </g>
    <g id="Group_944" data-name="Group 944" transform="translate(569.481 2761.658)">
      <rect id="Rectangle_202" data-name="Rectangle 202" width="7.758" height="0.723" transform="translate(0 1.091) rotate(-8.083)" fill="#ff0058"/>
    </g>
    <g id="Group_945" data-name="Group 945" transform="translate(570.332 2765.993)">
      <rect id="Rectangle_203" data-name="Rectangle 203" width="19.394" height="0.723" transform="translate(0 2.727) rotate(-8.083)" fill="#ff0058"/>
    </g>
    <g id="Group_946" data-name="Group 946" transform="translate(571.183 2773.059)">
      <rect id="Rectangle_204" data-name="Rectangle 204" width="11.637" height="0.723" transform="translate(0 1.636) rotate(-8.083)" fill="#ff0058"/>
    </g>
    <g id="Group_947" data-name="Group 947" transform="translate(525.103 2720.806)">
      <path id="Path_419" data-name="Path 419" d="M311.772,127.861c-11.56,0-19.325-8.655-19.325-16.739,0-11.92,7.405-19.325,19.325-19.325,8.532,0,13.367,3.458,18.042,6.8,4.405,3.151,8.567,6.128,15.574,6.128,9.409,0,19.464-3.754,19.464-14.292,0-8.049-7.219-14.292-13.43-14.292V75.42c6.545,0,14.153,6.559,14.153,15.015,0,11.071-10.427,15.015-20.187,15.015-7.239,0-11.492-3.042-15.995-6.263-4.583-3.277-9.321-6.667-17.622-6.667-11.474,0-18.6,7.128-18.6,18.6,0,7.735,7.475,16.016,18.6,16.016Z" transform="translate(-292.447 -75.42)" fill="#ff0058"/>
    </g>
    <g id="Group_948" data-name="Group 948" transform="translate(600.094 2707.015)">
      <path id="Path_420" data-name="Path 420" d="M399.184,62.227a2.947,2.947,0,1,1,2.947-2.947A2.951,2.951,0,0,1,399.184,62.227Zm0-5.172a2.225,2.225,0,1,0,2.225,2.225A2.227,2.227,0,0,0,399.184,57.056Z" transform="translate(-396.237 -56.333)" fill="#ff0058"/>
    </g>
    <g id="Group_951" data-name="Group 951" transform="translate(611.23 2724.185)">
      <g id="Group_949" data-name="Group 949" transform="translate(2.656 0)">
        <rect id="Rectangle_205" data-name="Rectangle 205" width="0.723" height="6.034" fill="#ff0058"/>
      </g>
      <g id="Group_950" data-name="Group 950" transform="translate(0 2.655)">
        <rect id="Rectangle_206" data-name="Rectangle 206" width="6.034" height="0.723" fill="#ff0058"/>
      </g>
    </g>
    <g id="Group_952" data-name="Group 952" transform="translate(548.482 2767.497)">
      <path id="Path_421" data-name="Path 421" d="M328.547,151.152l-3.742-3.742.511-.511,3.153,3.153,7.508-10.01.578.433Z" transform="translate(-324.804 -140.042)" fill="#ff0058"/>
    </g>
    <g id="Group_953" data-name="Group 953" transform="translate(569.227 2716.212)">
      <path id="Path_422" data-name="Path 422" d="M357.231,76.9l-.615-2.642.352-.082a2.225,2.225,0,1,0-2.671-1.663l-.7.163a2.947,2.947,0,1,1,3.884,2.1l.456,1.959Z" transform="translate(-353.516 -69.062)" fill="#ff0058"/>
    </g>
    <g id="Group_954" data-name="Group 954" transform="translate(572.512 2725.116)">
      <path id="Path_423" data-name="Path 423" d="M359.285,83.831a1.223,1.223,0,1,1,1.223-1.223A1.224,1.224,0,0,1,359.285,83.831Zm0-1.724a.5.5,0,1,0,.5.5A.5.5,0,0,0,359.285,82.108Z" transform="translate(-358.062 -81.385)" fill="#ff0058"/>
    </g>
    <g id="Group_955" data-name="Group 955" transform="translate(537.171 2749.251)">
      <path id="Path_424" data-name="Path 424" d="M312.1,120.683a2.947,2.947,0,1,1,2.947-2.947A2.951,2.951,0,0,1,312.1,120.683Zm0-5.172a2.225,2.225,0,1,0,2.225,2.225A2.227,2.227,0,0,0,312.1,115.512Z" transform="translate(-309.149 -114.789)" fill="#ff0058"/>
    </g>
    <g id="Group_958" data-name="Group 958" transform="translate(591.405 2775.041)">
      <g id="Group_956" data-name="Group 956" transform="translate(2.655)">
        <rect id="Rectangle_207" data-name="Rectangle 207" width="0.723" height="6.034" fill="#ff0058"/>
      </g>
      <g id="Group_957" data-name="Group 957" transform="translate(0 2.655)">
        <rect id="Rectangle_208" data-name="Rectangle 208" width="6.034" height="0.723" fill="#ff0058"/>
      </g>
    </g>
  </g>
</svg>
