<svg xmlns="http://www.w3.org/2000/svg" width="92.603" height="66.696" viewBox="0 0 92.603 66.696">
  <g id="Group_17298" data-name="Group 17298" transform="translate(-1047 -64.5)">
    <g id="Group_1023" data-name="Group 1023" transform="translate(1085.614 64.5)">
      <path id="Path_457" data-name="Path 457" d="M1136.193,94.143h-33.062V90.724a5.558,5.558,0,0,0-5.552-5.552H1096.5V70.832a6.34,6.34,0,0,1,6.332-6.332h33.361a6.34,6.34,0,0,1,6.332,6.332V87.811A6.34,6.34,0,0,1,1136.193,94.143Zm-32.282-.78h32.282a5.558,5.558,0,0,0,5.552-5.552V70.832a5.558,5.558,0,0,0-5.552-5.552h-33.361a5.558,5.558,0,0,0-5.552,5.552v13.56h.3a6.34,6.34,0,0,1,6.332,6.332Z" transform="translate(-1096.5 -64.5)" fill="#ff0058"/>
    </g>
    <g id="Group_1024" data-name="Group 1024" transform="translate(1047 84.392)">
      <path id="Path_458" data-name="Path 458" d="M1083.273,119.643h-29.942a6.34,6.34,0,0,1-6.332-6.332V96.332A6.34,6.34,0,0,1,1053.332,90H1086v.78h-32.672a5.558,5.558,0,0,0-5.552,5.552v16.979a5.558,5.558,0,0,0,5.552,5.552h29.942Z" transform="translate(-1047 -90)" fill="#ff0058"/>
    </g>
    <g id="Group_1025" data-name="Group 1025" transform="translate(1092.244 93.753)">
      <rect id="Rectangle_233" data-name="Rectangle 233" width="0.78" height="8.191" transform="translate(0 0)" fill="#ff0058"/>
    </g>
    <g id="Group_1026" data-name="Group 1026" transform="translate(1082.883 101.553)">
      <path id="Path_459" data-name="Path 459" d="M1129.572,141.643h-30.24a6.34,6.34,0,0,1-6.332-6.332V123.7h3.809a5.558,5.558,0,0,0,5.552-5.552V112h27.211a6.34,6.34,0,0,1,6.332,6.332v16.979A6.34,6.34,0,0,1,1129.572,141.643Zm-35.792-17.162v10.83a5.558,5.558,0,0,0,5.552,5.552h30.24a5.558,5.558,0,0,0,5.552-5.552V118.332a5.558,5.558,0,0,0-5.552-5.552h-26.431v5.369a6.34,6.34,0,0,1-6.332,6.332Z" transform="translate(-1093 -112)" fill="#ff0058"/>
    </g>
    <g id="Group_1029" data-name="Group 1029" transform="translate(1128.83 113.394)">
      <g id="Group_1027" data-name="Group 1027" transform="translate(2.841)">
        <rect id="Rectangle_234" data-name="Rectangle 234" width="0.78" height="6.462" fill="#ff0058"/>
      </g>
      <g id="Group_1028" data-name="Group 1028" transform="translate(0 2.841)">
        <rect id="Rectangle_235" data-name="Rectangle 235" width="6.462" height="0.78" fill="#ff0058"/>
      </g>
    </g>
    <g id="Group_1030" data-name="Group 1030" transform="translate(1133.08 96.058)">
      <path id="Path_460" data-name="Path 460" d="M1160.611,111.479a3.262,3.262,0,1,1,3.261-3.261A3.266,3.266,0,0,1,1160.611,111.479Zm0-5.744a2.482,2.482,0,1,0,2.481,2.482A2.484,2.484,0,0,0,1160.611,105.735Z" transform="translate(-1157.349 -104.955)" fill="#ff0058"/>
    </g>
    <g id="Group_1031" data-name="Group 1031" transform="translate(1062.874 119.46)">
      <path id="Path_461" data-name="Path 461" d="M1070.61,141.479a3.262,3.262,0,1,1,3.262-3.261A3.266,3.266,0,0,1,1070.61,141.479Zm0-5.744a2.482,2.482,0,1,0,2.481,2.482A2.484,2.484,0,0,0,1070.61,135.735Z" transform="translate(-1067.349 -134.955)" fill="#ff0058"/>
    </g>
    <g id="Group_1034" data-name="Group 1034" transform="translate(1063.304 70.49)">
      <g id="Group_1032" data-name="Group 1032" transform="translate(2.841)">
        <rect id="Rectangle_236" data-name="Rectangle 236" width="0.78" height="6.462" fill="#ff0058"/>
      </g>
      <g id="Group_1033" data-name="Group 1033" transform="translate(0 2.841)">
        <rect id="Rectangle_237" data-name="Rectangle 237" width="6.462" height="0.78" fill="#ff0058"/>
      </g>
    </g>
    <g id="Group_1035" data-name="Group 1035" transform="translate(1095.365 75.047)">
      <path id="Path_462" data-name="Path 462" d="M1114.07,93.606c-3.175,0-5.07-1.6-5.07-4.29h.78c0,2.264,1.524,3.51,4.29,3.51,3.5,0,5.851-2.038,5.851-5.07h.78c0,1.349.6,1.95,1.95,1.95h5.461c2.913,0,3.51-1.4,3.51-3.51V78.02h.78V86.2c0,2-.488,4.29-4.29,4.29h-5.461a2.614,2.614,0,0,1-2.218-.906C1119.665,92.047,1117.3,93.606,1114.07,93.606Z" transform="translate(-1109 -78.02)" fill="#ff0058"/>
    </g>
    <g id="Group_1036" data-name="Group 1036" transform="translate(1116.98 69.642)">
      <rect id="Rectangle_238" data-name="Rectangle 238" width="3.355" height="0.78" transform="matrix(0.813, -0.582, 0.582, 0.813, 0, 1.952)" fill="#ff0058"/>
    </g>
    <g id="Group_1037" data-name="Group 1037" transform="translate(1099.203 82.418)">
      <path id="Path_463" data-name="Path 463" d="M1115.059,89.748a1.139,1.139,0,1,1,1.14-1.139A1.14,1.14,0,0,1,1115.059,89.748Zm0-1.5a.359.359,0,1,0,.359.36A.36.36,0,0,0,1115.059,88.249Z" transform="translate(-1113.92 -87.469)" fill="#ff0058"/>
    </g>
    <g id="Group_1042" data-name="Group 1042" transform="translate(1095.253 108.184)">
      <g id="Group_1038" data-name="Group 1038" transform="translate(0 3.51)">
        <rect id="Rectangle_239" data-name="Rectangle 239" width="17.942" height="0.78" fill="#ff0058"/>
      </g>
      <g id="Group_1039" data-name="Group 1039" transform="translate(8.581)">
        <rect id="Rectangle_240" data-name="Rectangle 240" width="0.78" height="3.9" fill="#ff0058"/>
      </g>
      <g id="Group_1040" data-name="Group 1040" transform="translate(1.98 3.9)">
        <path id="Path_464" data-name="Path 464" d="M1111.394,136.811v-.78c4.476,0,10.473-5.206,10.473-10.531h.78C1122.647,130.334,1117.084,136.811,1111.394,136.811Z" transform="translate(-1111.394 -125.5)" fill="#ff0058"/>
      </g>
      <g id="Group_1041" data-name="Group 1041" transform="translate(4.71 3.9)">
        <path id="Path_465" data-name="Path 465" d="M1126.147,136.811c-5.69,0-11.253-6.477-11.253-11.311h.78c0,5.325,6,10.531,10.473,10.531Z" transform="translate(-1114.894 -125.5)" fill="#ff0058"/>
      </g>
    </g>
    <g id="Group_1045" data-name="Group 1045" transform="translate(1058.491 92.539)">
      <g id="Group_1043" data-name="Group 1043" transform="translate(0 0)">
        <path id="Path_466" data-name="Path 466" d="M1071.179,109.7h-6.646l-1.9,4.773h-.538l5.475-13.783h.562l5.475,13.783h-.538Zm-6.458-.468h6.271l-1.9-4.751c-.843-2.083-1.216-3.323-1.216-3.323h-.048s-.374,1.24-1.216,3.323Z" transform="translate(-1061.812 -100.499)" fill="#ff0058"/>
        <path id="Path_467" data-name="Path 467" d="M1073.82,114.617h-.959l-1.9-4.773h-6.38l-1.9,4.773h-.959l5.631-14.173h.828Zm-.693-.39h.119l-5.321-13.393h-.3l-5.321,13.393h.119l1.9-4.773h6.911Zm-1.927-4.851h-6.847l2-5.018c.83-2.05,1.208-3.294,1.211-3.307l.042-.139h.289l.089.139c0,.012.381,1.257,1.211,3.306Zm-6.271-.39h5.7l-1.789-4.484c-.527-1.3-.874-2.285-1.059-2.836-.185.551-.532,1.534-1.059,2.836Z" transform="translate(-1061.731 -100.444)" fill="#ff0058"/>
      </g>
      <g id="Group_1044" data-name="Group 1044" transform="translate(13.01 2.832)">
        <path id="Path_468" data-name="Path 468" d="M1085.89,113.123c0,1.216.21,1.778.913,1.778a1.165,1.165,0,0,0,.4-.07v.4a1.131,1.131,0,0,1-.421.07c-.936,0-1.357-.584-1.357-2.153a3.387,3.387,0,0,1-3.439,2.27c-2.13,0-3.323-1.076-3.323-2.9,0-2.2,1.825-3.276,4.8-3.276a14.906,14.906,0,0,1,1.965.14v-1.545c0-2.34-1.193-3.066-2.948-3.066a2.62,2.62,0,0,0-2.972,2.644l-.445-.07c.164-2.293,1.708-3.019,3.417-3.019,2.035,0,3.417.889,3.417,3.393Zm-.469-3.3a13.063,13.063,0,0,0-1.965-.141c-2.645,0-4.329.842-4.329,2.832,0,1.521,1.006,2.457,2.855,2.457a3.227,3.227,0,0,0,3.439-3.3Z" transform="translate(-1078.464 -104.129)" fill="#ff0058"/>
        <path id="Path_469" data-name="Path 469" d="M1081.927,115.556c-2.2,0-3.518-1.158-3.518-3.1,0-2.238,1.773-3.471,4.992-3.471a14.837,14.837,0,0,1,1.77.114v-1.323c0-1.985-.849-2.871-2.753-2.871a2.42,2.42,0,0,0-2.778,2.467l-.018.207-.828-.13.013-.179c.147-2.063,1.43-3.2,3.611-3.2,2.4,0,3.612,1.208,3.612,3.588v5.406c0,1.324.263,1.583.718,1.583a.973.973,0,0,0,.335-.06l.257-.086v.8l-.122.049a1.317,1.317,0,0,1-.494.084c-1.044,0-1.4-.691-1.508-1.534A3.713,3.713,0,0,1,1081.927,115.556Zm1.474-6.177c-1.719,0-4.6.4-4.6,3.081,0,1.746,1.111,2.707,3.128,2.707a3.486,3.486,0,0,0,2.664-1.073,3.83,3.83,0,0,1-2.664,1.018c-1.91,0-3.05-.991-3.05-2.652,0-1.381.785-3.027,4.524-3.027a13.374,13.374,0,0,1,1.992.143l.168.024v2.018c0,.054,0,.107,0,.16l0-.009v1.323c0,1.625.465,1.958,1.162,1.958a1.166,1.166,0,0,0,.226-.02v0a1.332,1.332,0,0,1-.2.015c-.974,0-1.108-.949-1.108-1.973v-5.406c0-2.152-1.054-3.2-3.222-3.2-1.342,0-2.968.466-3.207,2.659l.064.01a2.786,2.786,0,0,1,3.143-2.615c2.115,0,3.143,1.066,3.143,3.261v1.767l-.221-.029A14.786,14.786,0,0,0,1083.4,109.379Zm0,.444c-2.744,0-4.134.888-4.134,2.637,0,1.438.969,2.262,2.66,2.262a3.049,3.049,0,0,0,3.244-3.1v-1.679A12.956,12.956,0,0,0,1083.4,109.822Z" transform="translate(-1078.409 -104.074)" fill="#ff0058"/>
      </g>
    </g>
  </g>
</svg>
