<svg xmlns="http://www.w3.org/2000/svg" width="51.009" height="51.004" viewBox="0 0 51.009 51.004"><defs><style>.auto-a{fill:#ff0e54;}</style></defs><g transform="translate(0 0)"><path class="auto-a" d="M31.251,27A4.251,4.251,0,1,0,35.5,31.251,4.251,4.251,0,0,0,31.251,27Zm0,6.8a2.55,2.55,0,1,1,2.55-2.55A2.55,2.55,0,0,1,31.251,33.8Z" transform="translate(-5.75 -5.748)"/><path class="auto-a" d="M42.4,19.925c-.132-.189-.278-.363-.417-.545s-.275-.375-.425-.553c-.264-.318-.545-.62-.832-.916q-.165-.17-.332-.332c-.3-.287-.6-.568-.916-.832-.179-.149-.368-.282-.553-.425s-.356-.285-.545-.417c-.009-.007-.021-.009-.031-.014a16.041,16.041,0,0,0-6.5-2.646h-.009c-.031-.006-.06-.007-.091-.012-.4-.065-.793-.123-1.2-.158a14.173,14.173,0,0,0-2.805,0c-.406.035-.8.094-1.2.158-.031.005-.06.006-.091.012h-.009a16.041,16.041,0,0,0-6.492,2.647c-.01.006-.022.008-.031.014-.189.132-.363.278-.545.417s-.375.275-.553.425c-.318.264-.62.545-.916.832q-.17.164-.332.332c-.287.3-.568.6-.832.916-.149.179-.282.368-.425.553s-.285.356-.417.545c-.007.009-.009.021-.014.031a16.041,16.041,0,0,0-2.646,6.5v.009c-.005.03-.007.056-.011.085-.066.406-.125.813-.161,1.228-.046.472-.071.931-.071,1.378s.026.906.07,1.379c.036.415.094.822.161,1.228a.5.5,0,0,0,.011.085v.009a16.041,16.041,0,0,0,2.649,6.5c.006.01.008.022.014.031.132.189.278.363.417.545s.275.375.425.553c.264.318.545.62.832.916q.164.17.332.332c.3.287.6.568.916.832.179.149.368.282.553.425s.356.285.545.417c.009.007.021.008.031.014a16.041,16.041,0,0,0,6.5,2.646h.009c.03.005.056.007.085.011.406.066.813.125,1.228.161.473.044.935.07,1.379.07s.906-.026,1.379-.07c.415-.036.822-.094,1.228-.161.029,0,.055-.006.085-.011h.009a16.041,16.041,0,0,0,6.495-2.647c.01-.006.022-.008.031-.014.189-.132.363-.278.545-.417s.375-.275.553-.425c.318-.264.62-.545.916-.832q.17-.165.332-.332c.287-.3.568-.6.832-.916.149-.179.282-.368.425-.553s.285-.356.417-.545c.007-.009.008-.021.014-.031a16.041,16.041,0,0,0,2.646-6.5v-.009c.005-.03.007-.056.011-.085.066-.406.125-.813.161-1.228.044-.473.07-.935.07-1.379s-.026-.906-.07-1.379c-.036-.415-.094-.822-.161-1.228,0-.029-.006-.055-.011-.085v-.009a16.041,16.041,0,0,0-2.647-6.495C42.407,19.946,42.406,19.934,42.4,19.925Zm-.85,16.617-3.986-3.988h5.621a14.34,14.34,0,0,1-1.633,3.988Zm2-6.259c-.017.189-.031.376-.056.571H35.51a.85.85,0,0,0-.6,1.451l5.668,5.667c-.031.04-.059.085-.089.12a14.46,14.46,0,0,1-2.4,2.4c-.039.031-.08.059-.12.089L32.3,34.909a.85.85,0,0,0-1.451.6v7.981c-.192.025-.374.038-.559.055-.377.03-.757.058-1.142.058s-.765-.028-1.141-.058c-.184-.017-.367-.031-.559-.055V35.511a.85.85,0,0,0-1.451-.6l-5.667,5.668c-.04-.031-.081-.059-.12-.089a14.46,14.46,0,0,1-2.4-2.4c-.031-.039-.059-.08-.089-.12L23.4,32.3a.85.85,0,0,0-.6-1.451H14.813c-.025-.2-.039-.383-.056-.571-.029-.373-.057-.748-.057-1.129s.028-.756.057-1.129c.017-.189.031-.376.056-.571h7.981A.85.85,0,0,0,23.4,26l-5.668-5.667c.031-.04.059-.081.089-.12a14.46,14.46,0,0,1,2.4-2.4c.039-.031.08-.059.12-.089L26,23.4a.85.85,0,0,0,1.451-.6V14.814c.192-.025.375-.038.559-.055.376-.03.756-.058,1.141-.058s.765.028,1.142.058c.184.017.366.031.559.055v7.981a.85.85,0,0,0,1.451.6l5.667-5.668c.04.031.085.059.12.089a14.46,14.46,0,0,1,2.4,2.4c.031.039.059.08.089.12L34.909,26a.85.85,0,0,0,.6,1.451h7.981c.025.2.039.383.056.571.029.373.057.748.057,1.129s-.028.756-.057,1.129ZM36.541,41.551a14.34,14.34,0,0,1-3.988,1.633V37.563ZM25.752,43.184a14.34,14.34,0,0,1-3.988-1.633l3.988-3.988ZM15.125,32.553h5.621l-3.988,3.988A14.34,14.34,0,0,1,15.125,32.553Zm1.633-10.789,3.984,3.988H15.125a14.34,14.34,0,0,1,1.629-3.988Zm5.01-5.01a14.34,14.34,0,0,1,3.984-1.629v5.621Zm10.785-1.629a14.34,14.34,0,0,1,3.988,1.633l-3.988,3.984Zm5.01,10.627,3.988-3.988a14.34,14.34,0,0,1,1.633,3.988Z" transform="translate(-3.652 -3.65)"/><path class="auto-a" d="M51,17.595h0a25.616,25.616,0,0,0-5.43-8.069c-.014-.017-.02-.039-.037-.055s-.038-.022-.055-.037A25.589,25.589,0,0,0,37.09,3.877c-.009,0-.015-.012-.025-.016s-.021,0-.031-.006a25.449,25.449,0,0,0-19.369.122h-.009l-.007.005a25.594,25.594,0,0,0-8.123,5.45c-.017.014-.039.02-.055.037s-.022.038-.037.055a25.619,25.619,0,0,0-5.271,7.724c-.005.011-.015.018-.02.029a.2.2,0,0,0-.007.031,25.464,25.464,0,0,0-.129,20.1h0A25.58,25.58,0,0,0,9.437,45.48c.014.017.02.039.037.055s.038.022.055.037a25.589,25.589,0,0,0,8.392,5.557c.009,0,.015.012.025.016s.022,0,.033.007a25.45,25.45,0,0,0,19.368-.123h.009l.007-.005a25.594,25.594,0,0,0,8.123-5.45c.017-.014.039-.02.055-.037s.022-.038.037-.055a25.6,25.6,0,0,0,5.271-7.712.407.407,0,0,0,.026-.041.2.2,0,0,0,.007-.031,25.464,25.464,0,0,0,.129-20.1Zm-.547,10.759h.829a23.66,23.66,0,0,1-1.654,7.906l-.759-.332a.85.85,0,0,0-.68,1.557l.765.334a23.888,23.888,0,0,1-4.04,5.893l-.579-.579a.851.851,0,1,0-1.205,1.2l.579.579a23.866,23.866,0,0,1-6.241,4.2l-.32-.765A.85.85,0,0,0,35.584,49l.321.765a23.665,23.665,0,0,1-7.551,1.517v-.829a.85.85,0,0,0-1.7,0v.829a23.677,23.677,0,0,1-7.28-1.41l.313-.774a.85.85,0,1,0-1.576-.638l-.31.765A23.888,23.888,0,0,1,11.3,44.913l.579-.579a.85.85,0,1,0-1.2-1.2l-.579.579a23.876,23.876,0,0,1-4.172-6.185l.765-.321a.85.85,0,1,0-.661-1.567l-.765.322a23.65,23.65,0,0,1-1.538-7.607h.829a.85.85,0,1,0,0-1.7H3.722a23.66,23.66,0,0,1,1.654-7.906l.759.332a.85.85,0,0,0,.68-1.557l-.765-.334A23.889,23.889,0,0,1,10.09,11.3l.579.579a.851.851,0,1,0,1.205-1.2l-.579-.579a23.866,23.866,0,0,1,6.241-4.2l.32.765A.852.852,0,1,0,19.428,6l-.321-.765a23.665,23.665,0,0,1,7.547-1.516v.829a.85.85,0,1,0,1.7,0V3.722a23.677,23.677,0,0,1,7.28,1.41l-.313.774a.85.85,0,1,0,1.576.638l.31-.765A23.888,23.888,0,0,1,43.713,10.1l-.579.579a.85.85,0,1,0,1.2,1.2l.579-.579a23.876,23.876,0,0,1,4.172,6.185l-.765.321a.85.85,0,1,0,.661,1.567l.765-.322a23.65,23.65,0,0,1,1.537,7.607h-.829a.85.85,0,1,0,0,1.7Z" transform="translate(-2.004 -2.001)"/><path class="auto-a" d="M28.4,8a20.4,20.4,0,1,0,20.4,20.4A20.4,20.4,0,0,0,28.4,8Zm0,39.106a18.7,18.7,0,1,1,18.7-18.7,18.7,18.7,0,0,1-18.7,18.7Z" transform="translate(-2.903 -2.9)"/></g></svg>