<svg xmlns="http://www.w3.org/2000/svg" width="44.918" height="50.582" viewBox="0 0 44.918 50.582"><defs><style>.life-a{fill:#ff0e54;}</style></defs><g transform="translate(0 0)"><path class="life-a" d="M40.824,25.8c5.1-4.907,7.49-9.687,5.784-12.645-1.5-2.6-5.81-3.247-11.839-1.837a3.1,3.1,0,0,0-2.555-1.489C30.419,3.91,27.705.508,24.7.508c-3.409,0-6.357,4.29-8.071,11.328C9.839,9.877,4.509,10.2,2.8,13.153s.681,7.732,5.773,12.636c-5.242,5-7.48,9.7-5.773,12.655C3.8,40.173,6.032,41,9.075,41a28.164,28.164,0,0,0,7.567-1.255c1.7,6.876,4.646,11.344,8.063,11.344,3.023,0,5.657-3.276,7.469-9.2A3.1,3.1,0,0,0,34.822,40.3a24.889,24.889,0,0,0,5.518.725c3.1,0,5.283-.873,6.269-2.581C48.316,35.486,45.928,30.706,40.824,25.8Zm4.37-11.829c1.218,2.111-.8,6.217-5.551,10.737a55.561,55.561,0,0,0-5.537-4.331c-.131-1.61-.327-3.17-.571-4.689a3.1,3.1,0,0,0,1.7-2.756v-.047c5.157-1.195,8.868-.811,9.963,1.084ZM31.917,35.693A3.1,3.1,0,0,0,29.6,36.97Q28.109,36.4,26.6,35.72q1.45-.744,2.914-1.59c.98-.566,1.92-1.143,2.837-1.74Q32.177,34.076,31.917,35.693ZM28.7,32.716c-1.357.782-2.682,1.481-3.982,2.122-1.334-.653-2.671-1.352-4-2.122-1.36-.785-2.632-1.587-3.838-2.393-.1-1.45-.155-2.952-.155-4.522,0-.744.023-1.469.047-2.2a3.074,3.074,0,0,0,2.173-3.644c.581-.361,1.166-.72,1.773-1.071,1.334-.769,2.669-1.469,4-2.122,1.306.64,2.625,1.339,3.982,2.122s2.627,1.584,3.831,2.388c.1,1.481.163,2.986.163,4.527s-.065,3.046-.163,4.529c-1.206.8-2.475,1.6-3.831,2.387Zm-5.862,3.007a53.336,53.336,0,0,1-5.005,1.993,53.22,53.22,0,0,1-.784-5.328c.921.593,1.864,1.179,2.85,1.748s1.959,1.082,2.939,1.587ZM17.212,17.811c.173-1.366.389-2.676.643-3.918a53.268,53.268,0,0,1,4.979,1.977c-.98.5-1.959,1.03-2.939,1.595-.591.34-1.154.691-1.722,1.04A3.072,3.072,0,0,0,17.212,17.811Zm-1.306,1.334a1.479,1.479,0,1,1-1.479,1.479,1.479,1.479,0,0,1,1.479-1.479ZM14.17,23.206a3.118,3.118,0,0,0,.962.421c-.023.718-.046,1.437-.046,2.171,0,1.143.038,2.25.09,3.343a53.3,53.3,0,0,1-4.205-3.325C11.952,24.945,13.024,24.072,14.17,23.206Zm17.768-7.183q.247,1.559.413,3.187c-.919-.589-1.856-1.174-2.839-1.74s-1.959-1.087-2.925-1.587q1.481-.666,2.939-1.229a3.1,3.1,0,0,0,2.413,1.37Zm2.3,6.434A53.548,53.548,0,0,1,38.457,25.8c-1.251,1.105-2.668,2.225-4.223,3.343.054-1.1.09-2.214.09-3.343s-.036-2.241-.09-3.342ZM33.6,12.93a1.479,1.479,0,1,1-1.479-1.479A1.479,1.479,0,0,1,33.6,12.93ZM24.7,2.141c2.191,0,4.377,3.019,5.921,8.078A3.1,3.1,0,0,0,29.01,12.93c0,.059.013.113.016.163-1.433.545-2.875,1.153-4.325,1.843a55.8,55.8,0,0,0-6.494-2.615C19.708,6.179,22.17,2.141,24.7,2.141ZM4.214,13.97C5.441,11.86,10,11.56,16.281,13.4q-.4,1.959-.681,4.137a3.077,3.077,0,0,0-2.486,4.422Q11.3,23.335,9.766,24.7C5.017,20.183,2.993,16.079,4.214,13.97Zm0,23.658c-1.27-2.2,1-6.347,5.567-10.717A56.148,56.148,0,0,0,15.3,31.227a55.53,55.53,0,0,0,.979,6.966C10,40.039,5.441,39.739,4.214,37.628ZM24.7,49.457c-2.437,0-4.981-3.8-6.53-10.171a56.1,56.1,0,0,0,6.507-2.638c1.458.692,2.907,1.306,4.349,1.853a2.743,2.743,0,0,0-.028.284,3.1,3.1,0,0,0,1.585,2.7C29.052,46.476,26.879,49.457,24.7,49.457Zm7.416-9.193A1.479,1.479,0,1,1,33.6,38.785,1.479,1.479,0,0,1,32.121,40.264ZM45.2,37.628c-1.1,1.9-4.809,2.286-9.97,1.087a3.1,3.1,0,0,0-1.706-2.7c.256-1.553.457-3.151.589-4.795a55.41,55.41,0,0,0,5.539-4.334c4.741,4.522,6.768,8.626,5.547,10.737Z" transform="translate(-2.237 -0.508)"/></g></svg>