<svg xmlns="http://www.w3.org/2000/svg" width="44.559" height="50.743" viewBox="0 0 44.559 50.743"><defs><style>.consumer-a,.consumer-b{fill:none;stroke:#ff0e54;stroke-linecap:round;stroke-width:1.75px;}.consumer-a{stroke-miterlimit:10;}.consumer-b{stroke-linejoin:round;}</style></defs><g transform="translate(0.88 0.875)"><path class="consumer-a" d="M186.236,36.968V26.251c0-5.392-3.946-9.763-8.813-9.763h0c-4.867,0-8.813,4.371-8.813,9.763V36.968" transform="translate(-156.187 -16.488)"/><path class="consumer-b" d="M87.38,188.046H50a2.708,2.708,0,0,1-2.679-3.1l4.694-31.91h33.3l4.75,31.906A2.708,2.708,0,0,1,87.38,188.046Z" transform="translate(-47.289 -139.053)"/><path class="consumer-b" d="M181.888,288.3a32.375,32.375,0,0,1-7.358-7.849s-2.2-3.436.368-6.377c2.514-2.882,6.438-.8,6.99.981h.382c.552-1.778,4.476-3.863,6.99-.981,2.566,2.941.368,6.377.368,6.377a32.373,32.373,0,0,1-7.358,7.849Z" transform="translate(-160.716 -246.415)"/><line class="consumer-b" x2="6.262" transform="translate(1.334 37.305)"/><line class="consumer-b" x2="3.383" transform="translate(1.334 43.351)"/></g></svg>