<svg xmlns="http://www.w3.org/2000/svg" width="56.108" height="56.108" viewBox="0 0 56.108 56.108"><defs><style>.tech-a{fill:#ff0e54;}</style></defs><g transform="translate(0 0)"><path class="tech-a" d="M18,24.36V38.642a.861.861,0,0,0,.51.765l12.752,6.206a1.06,1.06,0,0,0,.765,0h0l12.667-6.206a.861.861,0,0,0,.51-.765V24.36a.909.909,0,0,0-.51-.765L31.942,17.389a1.18,1.18,0,0,0-.765,0L18.51,23.595A1.132,1.132,0,0,0,18,24.36Zm25.5,1.36v5.271l-4,1.955V27.675ZM19.7,32.861l4.251,2.04v5.271L19.7,38.132Zm5.951,2.89,5.1,2.465v5.271l-5.1-2.465Zm6.8,2.465,5.356-2.635v5.271l-5.356,2.635Zm7.056-3.4,4-1.955v5.271l-4,1.87Zm-1.7-1.105-5.356,2.635V31.076l5.356-2.635Zm-7.056,2.635-5.1-2.465V28.61l5.1,2.465Zm-6.8-3.315L19.7,30.991V25.72l4.251,2.04ZM31.6,19.089,42.4,24.36c-3.741,1.785-7.226,3.486-10.8,5.271l-10.8-5.271Z" transform="translate(-3.548 -3.447)"/><path class="tech-a" d="M33.43,12.9a.8.8,0,0,0,.85-.85V7.291a3.188,3.188,0,0,0,2.38-3.06,3.23,3.23,0,1,0-6.461,0,3.188,3.188,0,0,0,2.38,3.06v4.761A.852.852,0,0,0,33.43,12.9ZM31.9,4.23a1.53,1.53,0,1,1,1.53,1.53h0A1.644,1.644,0,0,1,31.9,4.23Z" transform="translate(-5.376 -1)"/><path class="tech-a" d="M33.43,53a.8.8,0,0,0-.85.85v4.761a3.188,3.188,0,0,0-2.38,3.06,3.23,3.23,0,1,0,6.461,0,3.188,3.188,0,0,0-2.38-3.06V53.85A.852.852,0,0,0,33.43,53Zm1.53,8.671a1.53,1.53,0,1,1-1.53-1.53h0A1.644,1.644,0,0,1,34.961,61.671Z" transform="translate(-5.376 -8.794)"/><path class="tech-a" d="M61.671,30.2a3.188,3.188,0,0,0-3.06,2.38H53.85a.85.85,0,0,0,0,1.7h4.761a3.188,3.188,0,0,0,3.06,2.38,3.23,3.23,0,1,0,0-6.461Zm0,4.761a1.524,1.524,0,0,1-1.53-1.53h0a1.53,1.53,0,1,1,1.53,1.53Z" transform="translate(-8.794 -5.376)"/><path class="tech-a" d="M4.23,30.2a3.23,3.23,0,1,0,0,6.461,3.188,3.188,0,0,0,3.06-2.38h4.761a.85.85,0,1,0,0-1.7H7.291A3.266,3.266,0,0,0,4.23,30.2Zm0,4.761a1.53,1.53,0,1,1,1.53-1.53h0A1.644,1.644,0,0,1,4.23,34.961Z" transform="translate(-1 -5.376)"/><path class="tech-a" d="M47.366,18.959a.822.822,0,0,0,1.19,0l3.4-3.4a3.156,3.156,0,0,0,3.826-.51,3.131,3.131,0,0,0,0-4.506,3.289,3.289,0,0,0-4.506,0,3.227,3.227,0,0,0-.51,3.826l-3.4,3.4A1.019,1.019,0,0,0,47.366,18.959Zm5.1-7.226a1.5,1.5,0,1,1,0,2.125h0A1.488,1.488,0,0,1,52.467,11.733Z" transform="translate(-7.921 -2.296)"/><path class="tech-a" d="M18.948,47.355a.822.822,0,0,0-1.19,0l-3.4,3.4a3.227,3.227,0,0,0-3.826.51,3.186,3.186,0,1,0,4.506,4.506,3.091,3.091,0,0,0,.51-3.826l3.4-3.4A1.019,1.019,0,0,0,18.948,47.355Zm-5.1,7.226a1.5,1.5,0,1,1,0-2.125h0A1.488,1.488,0,0,1,13.847,54.581Z" transform="translate(-2.285 -7.909)"/><path class="tech-a" d="M51.946,50.756l-3.4-3.4a.842.842,0,0,0-1.19,1.19l3.4,3.4a3.156,3.156,0,0,0,.51,3.826,3.285,3.285,0,0,0,2.3.935,3.442,3.442,0,0,0,2.3-.935,3.285,3.285,0,0,0,.935-2.3,3.442,3.442,0,0,0-.935-2.3A3.62,3.62,0,0,0,51.946,50.756Zm2.635,3.826a1.488,1.488,0,0,1-2.125,0,1.568,1.568,0,0,1-.425-1.02,1.408,1.408,0,0,1,.425-1.02h0a1.568,1.568,0,0,1,1.02-.425,1.408,1.408,0,0,1,1.02.425,1.568,1.568,0,0,1,.425,1.02A.976.976,0,0,1,54.581,54.581Z" transform="translate(-7.909 -7.909)"/><path class="tech-a" d="M15.037,10.543a3.289,3.289,0,0,0-4.506,0,3.132,3.132,0,0,0,0,4.506,3.174,3.174,0,0,0,3.826.51l3.4,3.4a.842.842,0,0,0,1.19-1.19l-3.4-3.4A3.211,3.211,0,0,0,15.037,10.543Zm-3.315,3.315a1.5,1.5,0,1,1,2.125,0h0A1.666,1.666,0,0,1,11.722,13.858Z" transform="translate(-2.285 -2.296)"/></g></svg>