<svg xmlns="http://www.w3.org/2000/svg" width="145.856" height="52.683" viewBox="0 0 145.856 52.683"><defs><style>.a{fill:#424348;}</style></defs><g transform="translate(0 0.782)"><path class="a" d="M.17,1.5V27.625H26.3V1.5ZM18.255,19.585H8.211V9.541H18.255Z" transform="translate(-0.17 -1.5)"/><rect class="a" width="10.051" height="10.051" transform="translate(34.166 8.041)"/></g><path class="a" d="M76.327,1.5H90.885c5.344,0,7.787,3.561,7.787,6.819,0,2.346-.906,3.856-3.321,5.269,3.046,1.125,4.706,3.163,4.706,6.3,0,3.753-2.744,7.739-9.152,7.739H76.32Zm7.951,20.239h5.269a2.525,2.525,0,0,0,2.744-2.525,2.264,2.264,0,0,0-2.47-2.182H84.278Zm0-9.941h4.233c1.935,0,2.7-.9,2.7-2.223a1.948,1.948,0,0,0-2.147-2.01H84.333Z" transform="translate(-24.077 -0.718)"/><path class="a" d="M118.6,1.5h8.418l9.6,26.07h-8.665l-1.269-3.9H118.6l-1.07,3.883H109Zm3.863,7.746-2.216,8.713H125Z" transform="translate(-34.336 -0.718)"/><path class="a" d="M161.893,8.9h8.027c0-4.432-3.334-8.541-11.245-8.541-8.679,0-11.361,4.8-11.361,8.294,0,5.646,6.915,7.149,7.128,7.217,1.029.329,5.324,1.475,6.394,1.859a2.433,2.433,0,0,1,1.818,2.058c0,1.523-1.818,2.257-3.327,2.257-.974,0-4.24-.322-4.24-3.78H146.8c0,4.59,3.163,9.735,12.027,9.735,9.79,0,11.835-5.838,11.835-8.919a7.2,7.2,0,0,0-4.748-6.682c-1.99-.8-5.3-1.509-6.95-1.99-.837-.247-3.622-.81-3.622-2.511,0-2.175,3.588-1.894,3.067-1.894C160.027,5.993,161.893,6.905,161.893,8.9Z" transform="translate(-46.203 -0.36)"/><path class="a" d="M183.381,1.13h20.033V8.025H191.387v4.6h10.723v6.586H191.346v8.047H183.34Z" transform="translate(-57.558 -0.355)"/><path class="a" d="M10.438,65.027l-.014-.034L7.92,55.58H6.349L3.81,65.027h-.1L3.7,64.993,1.478,55.58H.03L2.918,66.845h1.5l2.628-9.536h.1l.007.034,2.586,9.5h1.509L14.259,55.58h-1.42l-2.305,9.447Z" transform="translate(-0.009 -17.449)"/><path class="a" d="M27.561,61.814a3.588,3.588,0,0,0-1.139-1.139,3.355,3.355,0,0,0-1.8-.446,3.766,3.766,0,0,0-1.53.316,3.581,3.581,0,0,0-1.221.9,3.965,3.965,0,0,0-.8,1.372,4.837,4.837,0,0,0-.288,1.7,6.7,6.7,0,0,0,.281,1.722,3.719,3.719,0,0,0,.727,1.372,3.286,3.286,0,0,0,1.194.8,4.171,4.171,0,0,0,1.695.316,3.7,3.7,0,0,0,2.3-.686,3.2,3.2,0,0,0,1.159-2H26.91a1.976,1.976,0,0,1-.734,1.2,2.408,2.408,0,0,1-1.434.4,2.854,2.854,0,0,1-1.18-.226,2.333,2.333,0,0,1-.823-.611,2.442,2.442,0,0,1-.473-.871,3.43,3.43,0,0,1-.13-1.063h6.175a6.586,6.586,0,0,0-.137-1.523,4.548,4.548,0,0,0-.6-1.516m-5.427,1.928v-.041a3.06,3.06,0,0,1,.2-.906,2.339,2.339,0,0,1,.487-.755,2.23,2.23,0,0,1,.734-.508,2.319,2.319,0,0,1,.967-.192,2.271,2.271,0,0,1,.947.192,2.429,2.429,0,0,1,.748.5,2.388,2.388,0,0,1,.5.748,2.847,2.847,0,0,1,.213.926v.041Z" transform="translate(-6.643 -19.155)"/><path class="a" d="M43.846,67.619a2.333,2.333,0,0,1-1.125-.261,2.2,2.2,0,0,1-.755-.686,2.977,2.977,0,0,1-.432-.974,4.8,4.8,0,0,1-.137-1.125,5.928,5.928,0,0,1,.13-1.214,2.971,2.971,0,0,1,.425-1.036,2.243,2.243,0,0,1,.816-.714,2.648,2.648,0,0,1,1.249-.274,2.113,2.113,0,0,1,1.372.439,2.175,2.175,0,0,1,.686,1.2h1.31a3.163,3.163,0,0,0-.37-1.2,2.744,2.744,0,0,0-.762-.864,3.012,3.012,0,0,0-1.063-.515,4.953,4.953,0,0,0-1.3-.165,4.034,4.034,0,0,0-1.681.336,3.362,3.362,0,0,0-1.2.926,4.02,4.02,0,0,0-.686,1.372,5.989,5.989,0,0,0-.24,1.715,5.488,5.488,0,0,0,.22,1.667,3.684,3.684,0,0,0,.72,1.372,3.177,3.177,0,0,0,1.194.844,4.247,4.247,0,0,0,1.647.3,3.526,3.526,0,0,0,2.456-.816,3.712,3.712,0,0,0,1.118-2.278h-1.3a2.394,2.394,0,0,1-.686,1.468,2.257,2.257,0,0,1-1.592.535" transform="translate(-12.699 -19.155)"/><path class="a" d="M55.69,60.646a3.7,3.7,0,0,0-1.255,1.461h-.041V60.4H53.2v8.13h1.235V64.92a5.873,5.873,0,0,1,.185-1.441,2.744,2.744,0,0,1,.5-1.036,2.209,2.209,0,0,1,.94-.686,3.958,3.958,0,0,1,1.372-.226V60.159h-.1a2.909,2.909,0,0,0-1.653.439" transform="translate(-16.818 -19.133)"/><path class="a" d="M66.344,61.814A3.629,3.629,0,0,0,65.2,60.675a3.355,3.355,0,0,0-1.8-.446,3.746,3.746,0,0,0-1.53.316,3.678,3.678,0,0,0-1.214.9,4.062,4.062,0,0,0-.789,1.372,4.837,4.837,0,0,0-.288,1.7,6.7,6.7,0,0,0,.274,1.722,3.835,3.835,0,0,0,.734,1.372,3.286,3.286,0,0,0,1.2.878,4.116,4.116,0,0,0,1.695.316,3.7,3.7,0,0,0,2.291-.686,3.177,3.177,0,0,0,1.166-2H65.693a1.935,1.935,0,0,1-.727,1.2,2.429,2.429,0,0,1-1.434.4,2.827,2.827,0,0,1-1.18-.226,2.353,2.353,0,0,1-.83-.611,2.326,2.326,0,0,1-.467-.871,3.43,3.43,0,0,1-.13-1.139H67.1a6.566,6.566,0,0,0-.13-1.523,4.562,4.562,0,0,0-.6-1.516m-5.42,1.928v-.041a2.861,2.861,0,0,1,.192-.906,2.34,2.34,0,0,1,.487-.755,2.161,2.161,0,0,1,.734-.508,2.312,2.312,0,0,1,.96-.192,2.223,2.223,0,0,1,.947.192A2.319,2.319,0,0,1,65.514,62.8a2.854,2.854,0,0,1,.22.926v.041Z" transform="translate(-18.821 -19.155)"/><path class="a" d="M79.339,67.382a3.026,3.026,0,0,1-.055-.686V62.443a2.154,2.154,0,0,0-.268-1.139,1.9,1.9,0,0,0-.686-.686,2.806,2.806,0,0,0-.974-.316,6.5,6.5,0,0,0-2.394.062,3.218,3.218,0,0,0-1.084.46,2.381,2.381,0,0,0-.748.837,2.861,2.861,0,0,0-.316,1.221h1.269a1.372,1.372,0,0,1,.638-1.221,2.923,2.923,0,0,1,1.454-.336,5.1,5.1,0,0,1,.645.048,1.838,1.838,0,0,1,.6.2,1.1,1.1,0,0,1,.446.425,1.372,1.372,0,0,1,.178.741.768.768,0,0,1-.24.611,1.571,1.571,0,0,1-.624.316,5.57,5.57,0,0,1-.885.158,5.591,5.591,0,0,0-1.057.165c-.37.075-.686.144-1.022.24a2.8,2.8,0,0,0-.878.412,2.058,2.058,0,0,0-.611.686,2.333,2.333,0,0,0-.233,1.118,2.394,2.394,0,0,0,.206,1.043,1.989,1.989,0,0,0,.576.686,2.484,2.484,0,0,0,.851.391,4.583,4.583,0,0,0,1.043.117,4.274,4.274,0,0,0,1.578-.288,3.293,3.293,0,0,0,1.283-.954l.075-.089v.117a1.235,1.235,0,0,0,.3.933,1.132,1.132,0,0,0,.8.281,1.887,1.887,0,0,0,.933-.192v-.96a1.372,1.372,0,0,1-.37.062c-.24,0-.377-.082-.419-.254m-1.324-1.647a1.578,1.578,0,0,1-.144.624,1.859,1.859,0,0,1-.46.624,2.429,2.429,0,0,1-.789.467,3.259,3.259,0,0,1-1.159.185,3.025,3.025,0,0,1-.611-.062,1.7,1.7,0,0,1-.521-.213,1.242,1.242,0,0,1-.364-.391,1.18,1.18,0,0,1-.137-.583,1.276,1.276,0,0,1,.226-.782,1.475,1.475,0,0,1,.611-.467,3.32,3.32,0,0,1,.837-.22c.288-.048.6-.089.912-.13a7.545,7.545,0,0,0,.864-.144,1.626,1.626,0,0,0,.686-.268l.069-.055Z" transform="translate(-22.876 -19.152)"/><path class="a" d="M98.694,61.814a3.629,3.629,0,0,0-1.146-1.139,3.355,3.355,0,0,0-1.8-.446,3.718,3.718,0,0,0-1.53.316,3.609,3.609,0,0,0-1.214.9,4.2,4.2,0,0,0-.8,1.372,5,5,0,0,0-.281,1.7,6.8,6.8,0,0,0,.274,1.722,3.78,3.78,0,0,0,.734,1.372,3.286,3.286,0,0,0,1.2.878,4.116,4.116,0,0,0,1.695.316,3.684,3.684,0,0,0,2.291-.686,3.238,3.238,0,0,0,1.166-2H98.043a1.976,1.976,0,0,1-.734,1.2,2.388,2.388,0,0,1-1.427.4,2.827,2.827,0,0,1-1.159-.309,2.353,2.353,0,0,1-.83-.611,2.326,2.326,0,0,1-.467-.871,3.2,3.2,0,0,1-.151-1.057h6.175a6.174,6.174,0,0,0-.137-1.523,4.549,4.549,0,0,0-.6-1.516m-5.392,1.928v-.041a2.689,2.689,0,0,1,.192-.906A2.34,2.34,0,0,1,94,62.061a2.161,2.161,0,0,1,.72-.535,2.319,2.319,0,0,1,.967-.192,2.271,2.271,0,0,1,.947.192,2.319,2.319,0,0,1,.741.5,2.271,2.271,0,0,1,.5.748,2.813,2.813,0,0,1,.22.926v.041Z" transform="translate(-28.977 -19.155)"/><path class="a" d="M115,67.609a2.284,2.284,0,0,1-1.118-.261,2.223,2.223,0,0,1-.762-.686,3.142,3.142,0,0,1-.432-.974,4.72,4.72,0,0,1-.13-1.125,5.88,5.88,0,0,1,.123-1.214,3.2,3.2,0,0,1,.425-1.036,2.3,2.3,0,0,1,.8-.734,2.648,2.648,0,0,1,1.249-.274,1.947,1.947,0,0,1,2.058,1.64h1.317a3.17,3.17,0,0,0-.377-1.2,2.744,2.744,0,0,0-.755-.864,3.163,3.163,0,0,0-1.07-.515,4.94,4.94,0,0,0-1.3-.165,4.048,4.048,0,0,0-1.688.336,3.43,3.43,0,0,0-1.2.926,4.02,4.02,0,0,0-.686,1.372,5.989,5.989,0,0,0-.233,1.715,5.688,5.688,0,0,0,.24,1.681,3.794,3.794,0,0,0,.686,1.31,3.176,3.176,0,0,0,1.194.844,4.267,4.267,0,0,0,1.647.3,3.554,3.554,0,0,0,2.463-.816,3.746,3.746,0,0,0,1.159-2.243h-1.29a2.436,2.436,0,0,1-.686,1.468,2.243,2.243,0,0,1-1.592.535" transform="translate(-35.036 -19.146)"/><path class="a" d="M130.527,59.713a2.2,2.2,0,0,0-.858-.611,3.588,3.588,0,0,0-1.372-.22,3.664,3.664,0,0,0-.748.082,3.066,3.066,0,0,0-.734.24,2.49,2.49,0,0,0-.631.425,1.811,1.811,0,0,0-.48.624h-.062V55.94H124.38V67.205h1.262v-4.6a3.348,3.348,0,0,1,.158-1.036,2.305,2.305,0,0,1,.46-.837,2.175,2.175,0,0,1,.768-.556,2.95,2.95,0,0,1,1.091-.192,1.708,1.708,0,0,1,1.255.46,1.66,1.66,0,0,1,.46,1.242v5.488H131.1V61.847a5.076,5.076,0,0,0-.137-1.207,2.223,2.223,0,0,0-.46-.926" transform="translate(-39.165 -17.809)"/><path class="a" d="M143.474,61.814a3.629,3.629,0,0,0-1.146-1.139,3.355,3.355,0,0,0-1.8-.446,3.773,3.773,0,0,0-1.537.316,3.65,3.65,0,0,0-1.207.9,4.2,4.2,0,0,0-.8,1.372,5,5,0,0,0-.281,1.7,6.751,6.751,0,0,0,.274,1.722,3.835,3.835,0,0,0,.734,1.372,3.286,3.286,0,0,0,1.2.878,4.116,4.116,0,0,0,1.688.316,3.7,3.7,0,0,0,2.3-.686,3.238,3.238,0,0,0,1.166-2h-1.249a1.976,1.976,0,0,1-.734,1.2,2.394,2.394,0,0,1-1.434.4,2.82,2.82,0,0,1-1.173-.226,2.3,2.3,0,0,1-.83-.611,2.326,2.326,0,0,1-.467-.871,3.2,3.2,0,0,1-.13-1.036v-.1h6.175a6.174,6.174,0,0,0-.137-1.523,4.549,4.549,0,0,0-.6-1.516m-5.427,1.928v-.041a2.689,2.689,0,0,1,.213-.906,2.247,2.247,0,0,1,2.182-1.441,2.223,2.223,0,0,1,.947.192,2.319,2.319,0,0,1,1.249,1.249,2.854,2.854,0,0,1,.22.926v.041Z" transform="translate(-43.035 -19.155)"/><path class="a" d="M160.709,60.748a2.435,2.435,0,0,0-.844-.418,4.576,4.576,0,0,0-1.111-.13,3.019,3.019,0,0,0-1.461.364,2.888,2.888,0,0,0-1.077,1.015l-.048.075v-.082a1.736,1.736,0,0,0-.851-1.057,2.943,2.943,0,0,0-1.372-.316,3.046,3.046,0,0,0-2.669,1.372h-.048V60.412H150v8.13h1.262V63.492a1.92,1.92,0,0,1,.123-.6,2.353,2.353,0,0,1,1.084-1.29,2.058,2.058,0,0,1,1.036-.247,1.784,1.784,0,0,1,.768.144,1.1,1.1,0,0,1,.487.391,1.557,1.557,0,0,1,.254.6,3.571,3.571,0,0,1,.075.741v5.344h1.262V63.492a2.12,2.12,0,0,1,.583-1.55,2.182,2.182,0,0,1,1.605-.59,1.9,1.9,0,0,1,.823.151,1.18,1.18,0,0,1,.5.4,1.372,1.372,0,0,1,.247.6,4.029,4.029,0,0,1,.062.686v5.344h1.269V62.559a2.662,2.662,0,0,0-.2-1.07,1.79,1.79,0,0,0-.542-.686" transform="translate(-47.208 -19.145)"/><path class="a" d="M171.182,57.511H169.92V55.94h1.262Zm0,1.564H169.92v8.13h1.262Z" transform="translate(-53.461 -17.809)"/><path class="a" d="M180.127,68.189a2.346,2.346,0,0,0,.8-.782,2.2,2.2,0,0,0,.309-1.214,1.907,1.907,0,0,0-.226-.967,2.12,2.12,0,0,0-.59-.645,3.266,3.266,0,0,0-.823-.4,9.094,9.094,0,0,0-.988-.274l-.954-.213a5.924,5.924,0,0,1-.864-.254,2.058,2.058,0,0,1-.645-.391.9.9,0,0,1-.089-1.159,1.2,1.2,0,0,1,.425-.329,2.168,2.168,0,0,1,.576-.172,3.389,3.389,0,0,1,1.29,0,2.257,2.257,0,0,1,.611.233,1.454,1.454,0,0,1,.46.432,1.372,1.372,0,0,1,.206.645h1.269a2.923,2.923,0,0,0-.309-1.187,2.106,2.106,0,0,0-.686-.775,3.018,3.018,0,0,0-1.022-.412,6.751,6.751,0,0,0-1.283-.117,4.912,4.912,0,0,0-1.077.13,3.657,3.657,0,0,0-1.036.412,2.175,2.175,0,0,0-.686.686,1.948,1.948,0,0,0-.274,1.043,1.743,1.743,0,0,0,.391,1.207,2.565,2.565,0,0,0,.974.686,7.252,7.252,0,0,0,1.29.384,12.455,12.455,0,0,1,1.3.3,3.43,3.43,0,0,1,1.009.439.954.954,0,0,1,.419.83,1.022,1.022,0,0,1-.206.686,1.16,1.16,0,0,1-.5.384,2.463,2.463,0,0,1-.686.178,4.3,4.3,0,0,1-1.489,0,1.99,1.99,0,0,1-.686-.268,1.461,1.461,0,0,1-.521-.5,1.646,1.646,0,0,1-.213-.741H174.33a3,3,0,0,0,.309,1.235,2.36,2.36,0,0,0,.755.844,3.046,3.046,0,0,0,1.077.46,6.175,6.175,0,0,0,2.538,0,3.43,3.43,0,0,0,1.111-.419" transform="translate(-54.846 -19.149)"/><path class="a" d="M188.174,56.92h-1.262v2.463H185.54v1.1h1.372v5.276a2.957,2.957,0,0,0,.11.906,1.008,1.008,0,0,0,.329.521,1.269,1.269,0,0,0,.583.254,4.714,4.714,0,0,0,.892.069h.988v-1.1h-1.1a.741.741,0,0,1-.329-.11.453.453,0,0,1-.172-.247,1.571,1.571,0,0,1-.041-.4V60.508h1.688V59.383h-1.688Z" transform="translate(-58.365 -18.116)"/><path class="a" d="M86.971,56.92H85.7v2.463H84.33v1.1H85.7v5.276a3.19,3.19,0,0,0,.11.906,1.1,1.1,0,0,0,.329.521,1.3,1.3,0,0,0,.583.254,4.8,4.8,0,0,0,.892.069H88.6v-1.1h-1.1a.81.81,0,0,1-.329-.11.439.439,0,0,1-.165-.247,1.571,1.571,0,0,1-.041-.4V60.508h1.688V59.383H86.971Z" transform="translate(-26.591 -18.116)"/><path class="a" d="M195.849,62.246H195.8v-1.8h-1.2v8.13h1.269V65.059a5.912,5.912,0,0,1,.158-1.42,2.744,2.744,0,0,1,.521-1.057,2.209,2.209,0,0,1,.94-.686,3.917,3.917,0,0,1,1.372-.226V60.3a3,3,0,0,0-1.743.439,3.753,3.753,0,0,0-1.249,1.461" transform="translate(-61.209 -19.175)"/><path class="a" d="M205.244,70.767a9.135,9.135,0,0,0,.467-1.015l3.554-9.241h-1.372l-2.305,6.723h-.1l-2.394-6.7H201.67l3.238,8.13h0l-.556,1.372a1.6,1.6,0,0,1-.46.576,1.139,1.139,0,0,1-.686.2,1.276,1.276,0,0,1-.419-.069l-.336-.11v1.187a1.818,1.818,0,0,0,.425.1,3.66,3.66,0,0,0,.473,0,2.408,2.408,0,0,0,.782-.117,1.838,1.838,0,0,0,.6-.37,2.909,2.909,0,0,0,.5-.686" transform="translate(-63.429 -19.244)"/></svg>