<svg xmlns="http://www.w3.org/2000/svg" width="525.427" height="337.356" viewBox="0 0 525.427 337.356"><defs><style>.bench-a,.bench-c,.bench-d,.bench-e,.bench-f{fill:none;}.bench-a{stroke:#ff0e54;stroke-width:2px;}.bench-b{fill:#ff0e54;}.bench-c{stroke:#7fabff;}.bench-d{stroke:#9ee19f;}.bench-e{stroke:#424348;stroke-dasharray:2 4;}.bench-f{stroke:#ffce40;}.bench-g{fill:#ffce40;}.bench-h{fill:#9ee19f;}.bench-i{fill:#7fabff;}.bench-j{fill:#424348;}</style></defs><g transform="translate(-102.907 -6638.644)"><g transform="translate(133.426 6642.716)"><path class="bench-a" d="M-12962.574-1470.266s81.711-22.551,213.057-65.471,165.213-231.944,165.213-231.944" transform="translate(12962.574 1774.284)"/><path class="bench-b" d="M4,0,8,6.4H0Z" transform="translate(375.433 0) rotate(11)"/></g><g transform="translate(131 6662.2)"><path class="bench-c" d="M-12961.4-1470.288s223.9-69.114,375.218-35.814" transform="translate(12964.999 1754.8)"/><g transform="translate(0)"><path class="bench-d" d="M-12965-1468s63.017-46.766,121.525-49.188,61.511,7.428,116.948,6.034,139.791-28.39,139.791-28.39" transform="translate(12965 1754.8)"/><path class="bench-e" d="M-12965-1946.087v287.3h385.047" transform="translate(12965 1946.087)"/><path class="bench-f" d="M-12960.339-1472s52.64-40.233,175.57-31.706,200.98-63.288,200.98-63.288" transform="translate(12965 1754.8)"/><path class="bench-g" d="M2.5,0,5,4H0Z" transform="translate(382.499 183.339) rotate(50)"/><path class="bench-h" d="M2.5,0,5,4H0Z" transform="translate(381.263 211.686) rotate(73)"/></g><path class="bench-i" d="M2.5,0,5,4H0Z" transform="translate(383.177 246.984) rotate(101)"/></g><path class="bench-j" d="M1.411-10.013V0H2.975V-10.013Zm9.3,6.885A2.028,2.028,0,0,1,8.738-1C7.463-1,6.647-1.989,6.647-3.842c0-2.21.952-3.009,2.108-3.009A1.894,1.894,0,0,1,10.71-4.862ZM10.693-6.8A2.145,2.145,0,0,0,8.619-8.041C6.375-8.041,5.1-6.46,5.1-3.791c0,2.652,1.462,4,3.111,4a2.372,2.372,0,0,0,2.5-1.564L10.88,0h1.36V-11.356H10.693ZM17.765-1c-1.326,0-2.04-1.071-2.108-2.6h5.066a3.536,3.536,0,0,0,.153-1.088c0-1.955-1.088-3.349-3.111-3.349-2.193,0-3.587,1.547-3.587,4.182C14.178-1.241,15.589.2,17.68.2c1.5,0,2.822-.544,3.145-2.125l-1.343-.357A1.586,1.586,0,0,1,17.765-1ZM15.691-4.709c.153-1.36.867-2.125,1.989-2.125a1.679,1.679,0,0,1,1.7,1.8,2.168,2.168,0,0,1-.017.323ZM26.843-2.363c0,.918-.952,1.411-1.768,1.411a1.115,1.115,0,0,1-1.258-1.139c0-.986.918-1.462,3.026-1.411ZM28.39-5.627c0-1.8-1.292-2.414-2.822-2.414-1.445,0-2.907.595-3.026,2.261L24-5.559a1.281,1.281,0,0,1,1.428-1.258,1.23,1.23,0,0,1,1.411,1.343V-4.5c-3.213-.153-4.556.85-4.556,2.584A2.1,2.1,0,0,0,24.633.2a2.308,2.308,0,0,0,2.329-1.343A1.415,1.415,0,0,0,28.577.119a2.3,2.3,0,0,0,.833-.136v-1.19a1.075,1.075,0,0,1-.442.085c-.306,0-.578-.136-.578-.731ZM1.411,4.987V15H7.463V13.64H2.975V4.987ZM12.138,14c-1.326,0-2.04-1.071-2.108-2.6H15.1a3.536,3.536,0,0,0,.153-1.088c0-1.955-1.088-3.349-3.111-3.349-2.193,0-3.587,1.547-3.587,4.182,0,2.618,1.411,4.063,3.5,4.063,1.5,0,2.822-.544,3.145-2.125l-1.343-.357A1.586,1.586,0,0,1,12.138,14Zm-2.074-3.706c.153-1.36.867-2.125,1.989-2.125a1.679,1.679,0,0,1,1.7,1.8,2.168,2.168,0,0,1-.017.323Zm11.152,2.346c0,.918-.952,1.411-1.768,1.411a1.115,1.115,0,0,1-1.258-1.139c0-.986.918-1.462,3.026-1.411Zm1.547-3.264c0-1.8-1.292-2.414-2.822-2.414-1.445,0-2.907.595-3.026,2.261l1.462.221a1.281,1.281,0,0,1,1.428-1.258,1.23,1.23,0,0,1,1.411,1.343V10.5c-3.213-.153-4.556.85-4.556,2.584A2.1,2.1,0,0,0,19.006,15.2a2.308,2.308,0,0,0,2.329-1.343,1.415,1.415,0,0,0,1.615,1.258,2.3,2.3,0,0,0,.833-.136v-1.19a1.075,1.075,0,0,1-.442.085c-.306,0-.578-.136-.578-.731Zm7.157-2.4a2.728,2.728,0,0,0-3.043,2.3L26.69,7.146H25.4V15h1.53V11.022a2.228,2.228,0,0,1,2.176-2.4,4.031,4.031,0,0,1,.7.068Zm2.737.17H31.45V15h1.53V10.5c0-1.7.9-2.21,1.853-2.21.935,0,1.377.595,1.377,1.564V15h1.53V9.39a2.209,2.209,0,0,0-2.38-2.431,2.457,2.457,0,0,0-2.516,1.7ZM39.831,4.63a1.023,1.023,0,0,0,1.02,1.02,1.035,1.035,0,0,0,1.071-1.02,1.014,1.014,0,0,0-1.071-1.02A1,1,0,0,0,39.831,4.63ZM40.1,7.146V15h1.53V7.146Zm5.185,0H44.081V15h1.53V10.5c0-1.7.9-2.21,1.853-2.21.935,0,1.377.595,1.377,1.564V15h1.53V9.39a2.209,2.209,0,0,0-2.38-2.431,2.457,2.457,0,0,0-2.516,1.7ZM55.4,6.959c-1.887,0-3.179,1.02-3.179,2.788a2.454,2.454,0,0,0,1.53,2.38A1.358,1.358,0,0,0,52.6,13.5a1.166,1.166,0,0,0,1.088,1.224c-1.292.1-2.023.782-2.023,1.8,0,1.615,1.7,2.057,3.434,2.057,2.057,0,4.267-.544,4.267-2.6,0-1.411-.952-2.193-2.737-2.193H54.706c-.544,0-.833-.2-.833-.646a.854.854,0,0,1,.527-.816,3.284,3.284,0,0,0,1.02.136c1.768,0,3.23-.9,3.23-2.72a2.888,2.888,0,0,0-.357-1.479A1.708,1.708,0,0,0,59.6,6.857L58.276,6.4c-.1.578-.221.986-.595,1.19A3.765,3.765,0,0,0,55.4,6.959Zm-2.3,9.4c0-.816.629-1.19,1.751-1.19h1.7c1,0,1.326.442,1.326,1.037,0,.986-1.037,1.292-2.635,1.292C54.009,17.5,53.108,17.193,53.108,16.36Zm.646-6.63A1.5,1.5,0,0,1,55.4,8.081,1.523,1.523,0,0,1,57.12,9.73a1.683,1.683,0,0,1-3.366,0Z" transform="translate(535 6650)"/><path class="bench-j" d="M5.635-2.282H2.093L1.378,0H.266L3.178-8.95H4.622L7.534,0H6.351Zm-3.25-.936H5.343L3.874-8ZM14.7-8.95,15.2,0H14.118l-.279-4.674q-.02-.474-.039-.962t-.026-.936q-.007-.449-.007-.8v-.546L12.259-1.605H11.128L9.51-7.917q.006.189.013.556t.01.829q0,.461-.007.946t-.029.9L9.256,0H8.2L8.7-8.95h1.573l1.449,6.129L13.111-8.95Zm6.539,6.669H17.693L16.978,0H15.867l2.912-8.95h1.443L23.134,0H21.951Zm-3.25-.936h2.958L19.474-8ZM25.571-.975h4.687L30.121,0H24.33V-.917l4.732-7.072H24.8V-8.95h5.473v.923ZM38.4-4.465a7.2,7.2,0,0,1-.367,2.4,3.53,3.53,0,0,1-1.1,1.632A2.829,2.829,0,0,1,35.1.149a2.875,2.875,0,0,1-1.823-.575,3.436,3.436,0,0,1-1.105-1.609A7.22,7.22,0,0,1,31.8-4.452a7.248,7.248,0,0,1,.367-2.4A3.562,3.562,0,0,1,33.277-8.5,2.812,2.812,0,0,1,35.1-9.094a2.861,2.861,0,0,1,1.826.579,3.467,3.467,0,0,1,1.1,1.618A7.3,7.3,0,0,1,38.4-4.465Zm-1.183,0A6.1,6.1,0,0,0,36.722-7.2,1.688,1.688,0,0,0,35.1-8.151a1.686,1.686,0,0,0-1.622.956,6.141,6.141,0,0,0-.491,2.743,5.823,5.823,0,0,0,.507,2.72A1.7,1.7,0,0,0,35.1-.8a1.69,1.69,0,0,0,1.622-.939A6.033,6.033,0,0,0,37.213-4.465ZM44.135,0,40.982-7.872q.007.15.029.5t.052.826q.029.478.049,1.011t.02,1.053V0H40.085V-8.95h1.528l3.2,7.9q-.007-.189-.046-.692T44.7-2.957q-.033-.715-.033-1.515V-8.95h1.047V0Zm16.1-2.282H56.693L55.978,0H54.866l2.912-8.95h1.443L62.133,0H60.951Zm-3.25-.936h2.958L58.474-8ZM64.161,0V-8.95h1.131v7.943h4.082L69.244,0Zm8.8-8.028v3.016h3.315v.93H72.962V-.9h4.069V0h-5.2V-8.95h5.083l-.13.923Zm5.681-.923h1.293L81.9-5.512,83.869-8.95h1.222L82.55-4.829,85.4,0H84.1L81.874-4.043,79.618,0H78.4l2.808-4.771ZM91.436-2.282H87.893L87.178,0H86.067l2.912-8.95h1.443L93.334,0H92.151Zm-3.25-.936h2.958L89.674-8Z" transform="translate(535 6855)"/><path class="bench-j" d="M4.44-7.982V0H3.315V-7.982H.52V-8.95H7.273l-.117.968Zm9.821-.968v.9H12.272V-.9h1.989V0H9.139V-.9h1.989V-8.047H9.139v-.9Zm8.236,0L23,0H21.918l-.279-4.674q-.02-.474-.039-.962t-.026-.936q-.007-.449-.007-.8v-.546L20.059-1.605H18.928L17.309-7.917q.007.189.013.556t.01.829q0,.461-.007.946t-.029.9L17.056,0H16L16.5-8.95h1.573l1.45,6.129L20.91-8.95Zm3.666.923v3.016h3.315v.93H26.163V-.9h4.069V0h-5.2V-8.95h5.083l-.13.923Z" transform="translate(334 6976)"/><path class="bench-j" d="M6.461-8.95v.9H4.472V-.9H6.461V0H1.339V-.9H3.328V-8.047H1.339v-.9ZM13.78-4.517a5.787,5.787,0,0,0-.247-1.872,2.436,2.436,0,0,0-.65-1.053A2.087,2.087,0,0,0,12-7.911a3.939,3.939,0,0,0-.939-.117H10.01V-.9h1.066a3.132,3.132,0,0,0,.959-.153,2.18,2.18,0,0,0,.874-.546,2.758,2.758,0,0,0,.634-1.1A5.807,5.807,0,0,0,13.78-4.517Zm1.2,0a6.106,6.106,0,0,1-.364,2.291,3.359,3.359,0,0,1-.962,1.371,3.441,3.441,0,0,1-1.31.67A5.57,5.57,0,0,1,10.94,0H8.885V-8.95H10.8a6.647,6.647,0,0,1,1.531.175,3.433,3.433,0,0,1,1.346.647,3.179,3.179,0,0,1,.955,1.342A6.1,6.1,0,0,1,14.983-4.517Zm3.38-3.51v3.016h3.315v.93H18.363V-.9h4.069V0h-5.2V-8.95h5.083l-.13.923ZM29.035-2.282H25.493L24.778,0H23.667l2.912-8.95h1.443L30.934,0H29.75Zm-3.25-.936h2.958L27.274-8Zm12.389.741a2.457,2.457,0,0,1-.383,1.362,2.546,2.546,0,0,1-1.111.93A4.231,4.231,0,0,1,34.9.149a5.025,5.025,0,0,1-1.778-.3,3.913,3.913,0,0,1-1.362-.845l.67-.754a3.662,3.662,0,0,0,1.072.692A3.6,3.6,0,0,0,34.924-.8a2.871,2.871,0,0,0,1.021-.179,1.742,1.742,0,0,0,.767-.546A1.451,1.451,0,0,0,37-2.457a1.51,1.51,0,0,0-.169-.741,1.464,1.464,0,0,0-.6-.543,6.184,6.184,0,0,0-1.2-.465,9.022,9.022,0,0,1-1.531-.588,2.768,2.768,0,0,1-1-.809,1.951,1.951,0,0,1-.354-1.189,2,2,0,0,1,.37-1.19A2.479,2.479,0,0,1,33.55-8.8a3.614,3.614,0,0,1,1.5-.3,4.5,4.5,0,0,1,1.615.263,4.068,4.068,0,0,1,1.245.757l-.663.735a3.054,3.054,0,0,0-1.033-.621,3.407,3.407,0,0,0-1.125-.192A2.622,2.622,0,0,0,34.2-8a1.487,1.487,0,0,0-.65.436,1.105,1.105,0,0,0-.244.738,1.079,1.079,0,0,0,.208.663,1.816,1.816,0,0,0,.7.51,10.124,10.124,0,0,0,1.346.484,7.364,7.364,0,0,1,1.29.5,2.579,2.579,0,0,1,.959.819A2.342,2.342,0,0,1,38.174-2.477Z" transform="translate(112 6825) rotate(-90)"/><path class="bench-j" d="M4.076.149A3.284,3.284,0,0,1,2.233-.364,3.292,3.292,0,0,1,1.021-1.9,6.71,6.71,0,0,1,.591-4.478,6.008,6.008,0,0,1,.9-6.5a4.2,4.2,0,0,1,.839-1.443,3.456,3.456,0,0,1,1.2-.865,3.529,3.529,0,0,1,1.394-.286,3.682,3.682,0,0,1,1.456.25A3.994,3.994,0,0,1,6.9-8.112L6.214-7.4a2.79,2.79,0,0,0-.861-.565,2.683,2.683,0,0,0-1.011-.182,2.44,2.44,0,0,0-.943.188,2.146,2.146,0,0,0-.816.614A3.112,3.112,0,0,0,2.012-6.22,6.132,6.132,0,0,0,1.8-4.478a6.825,6.825,0,0,0,.27,2.106,2.3,2.3,0,0,0,.8,1.193A2.188,2.188,0,0,0,4.18-.8a3.469,3.469,0,0,0,.887-.11,3.882,3.882,0,0,0,.816-.318v-2.73H4.121l-.136-.936H7V-.631a8.163,8.163,0,0,1-1.287.553A5.207,5.207,0,0,1,4.076.149ZM15-4.465a7.2,7.2,0,0,1-.367,2.4,3.53,3.53,0,0,1-1.1,1.632A2.829,2.829,0,0,1,11.7.149,2.875,2.875,0,0,1,9.877-.426a3.436,3.436,0,0,1-1.1-1.609A7.22,7.22,0,0,1,8.4-4.452a7.248,7.248,0,0,1,.367-2.4A3.562,3.562,0,0,1,9.877-8.5,2.812,2.812,0,0,1,11.7-9.094a2.861,2.861,0,0,1,1.826.579,3.467,3.467,0,0,1,1.1,1.618A7.3,7.3,0,0,1,15-4.465Zm-1.183,0A6.1,6.1,0,0,0,13.322-7.2,1.688,1.688,0,0,0,11.7-8.151a1.686,1.686,0,0,0-1.622.956,6.141,6.141,0,0,0-.491,2.743,5.823,5.823,0,0,0,.507,2.72A1.7,1.7,0,0,0,11.7-.8a1.69,1.69,0,0,0,1.622-.939A6.033,6.033,0,0,0,13.813-4.465Zm8.983,0a7.2,7.2,0,0,1-.367,2.4,3.53,3.53,0,0,1-1.1,1.632A2.829,2.829,0,0,1,19.5.149a2.875,2.875,0,0,1-1.823-.575,3.436,3.436,0,0,1-1.1-1.609A7.22,7.22,0,0,1,16.2-4.452a7.248,7.248,0,0,1,.367-2.4,3.562,3.562,0,0,1,1.1-1.641A2.812,2.812,0,0,1,19.5-9.094a2.861,2.861,0,0,1,1.826.579,3.467,3.467,0,0,1,1.1,1.618A7.3,7.3,0,0,1,22.8-4.465Zm-1.183,0A6.1,6.1,0,0,0,21.122-7.2,1.688,1.688,0,0,0,19.5-8.151a1.686,1.686,0,0,0-1.622.956,6.141,6.141,0,0,0-.491,2.743,5.823,5.823,0,0,0,.507,2.72A1.7,1.7,0,0,0,19.5-.8a1.69,1.69,0,0,0,1.622-.939A6.033,6.033,0,0,0,21.613-4.465ZM27.476.149a3.284,3.284,0,0,1-1.843-.514A3.292,3.292,0,0,1,24.42-1.9a6.71,6.71,0,0,1-.429-2.574A6.008,6.008,0,0,1,24.3-6.5a4.2,4.2,0,0,1,.839-1.443,3.456,3.456,0,0,1,1.2-.865,3.529,3.529,0,0,1,1.394-.286,3.682,3.682,0,0,1,1.456.25,3.994,3.994,0,0,1,1.1.731l-.683.708a2.79,2.79,0,0,0-.861-.565,2.683,2.683,0,0,0-1.011-.182,2.44,2.44,0,0,0-.943.188,2.146,2.146,0,0,0-.816.614,3.112,3.112,0,0,0-.572,1.128A6.132,6.132,0,0,0,25.2-4.478a6.825,6.825,0,0,0,.27,2.106,2.3,2.3,0,0,0,.8,1.193,2.188,2.188,0,0,0,1.31.38,3.469,3.469,0,0,0,.887-.11,3.882,3.882,0,0,0,.816-.318v-2.73H27.521l-.137-.936H30.4V-.631a8.163,8.163,0,0,1-1.287.553A5.207,5.207,0,0,1,27.476.149ZM32.962,0V-8.95h1.131v7.943h4.082L38.045,0Zm8.8-8.028v3.016h3.315v.93H41.763V-.9h4.069V0h-5.2V-8.95h5.083l-.13.923Z" transform="translate(535 6878)"/><path class="bench-j" d="M5.635-2.282H2.093L1.378,0H.266L3.178-8.95H4.622L7.534,0H6.351Zm-3.25-.936H5.343L3.874-8ZM13.832-6.188a1.951,1.951,0,0,0-.273-1.1,1.523,1.523,0,0,0-.747-.585,3.066,3.066,0,0,0-1.086-.179H10.432v3.822h1.248A3.29,3.29,0,0,0,12.792-4.4a1.486,1.486,0,0,0,.76-.6A2.149,2.149,0,0,0,13.832-6.188ZM15.041-6.2A2.851,2.851,0,0,1,14.6-4.524a2.516,2.516,0,0,1-1.225.916,5.2,5.2,0,0,1-1.794.286H10.432V0H9.3V-8.95H11.59a4.218,4.218,0,0,1,2.525.673A2.4,2.4,0,0,1,15.041-6.2Zm6.591.013a1.951,1.951,0,0,0-.273-1.1,1.523,1.523,0,0,0-.748-.585,3.066,3.066,0,0,0-1.085-.179H18.233v3.822h1.248A3.29,3.29,0,0,0,20.592-4.4a1.486,1.486,0,0,0,.76-.6A2.149,2.149,0,0,0,21.632-6.188ZM22.841-6.2A2.851,2.851,0,0,1,22.4-4.524a2.516,2.516,0,0,1-1.225.916,5.2,5.2,0,0,1-1.794.286H18.233V0H17.1V-8.95h2.288a4.218,4.218,0,0,1,2.525.673A2.4,2.4,0,0,1,22.841-6.2ZM25.161,0V-8.95h1.131v7.943h4.082L30.244,0Zm8.8-8.028v3.016h3.315v.93H33.963V-.9h4.069V0h-5.2V-8.95h5.083l-.13.923Z" transform="translate(535 6915)"/></g></svg>