<svg xmlns="http://www.w3.org/2000/svg" xmlns:xlink="http://www.w3.org/1999/xlink" width="540.742" height="531.53" viewBox="0 0 540.742 531.53"><defs><style>.idea-a{fill:#424348;}.idea-b,.idea-d,.idea-h{fill:none;stroke:#424348;stroke-dasharray:2 4;}.idea-b,.idea-d,.idea-g,.idea-h{stroke-miterlimit:10;}.idea-b{opacity:0.7;}.idea-b,.idea-d{mix-blend-mode:multiply;isolation:isolate;}.idea-c{opacity:0.298;}.idea-e{opacity:0.296;}.idea-f{opacity:0.452;}.idea-g{stroke:#000;stroke-dasharray:3 3;fill:url(#idea-a);}.idea-i{fill:#fff;}</style><linearGradient id="idea-a" y1="0.5" x2="1" y2="0.5" gradientUnits="objectBoundingBox"><stop offset="0" stop-color="#ff0354"/><stop offset="1" stop-color="#b601f3"/></linearGradient></defs><g transform="translate(-356 -6157.322)"><path class="idea-a" d="M-44.72-4.517a5.787,5.787,0,0,0-.247-1.872,2.436,2.436,0,0,0-.65-1.053,2.087,2.087,0,0,0-.881-.468,3.939,3.939,0,0,0-.939-.117H-48.49V-.9h1.066a3.132,3.132,0,0,0,.959-.153,2.18,2.18,0,0,0,.874-.546,2.758,2.758,0,0,0,.634-1.1A5.807,5.807,0,0,0-44.72-4.517Zm1.2,0a6.106,6.106,0,0,1-.364,2.291,3.359,3.359,0,0,1-.962,1.371,3.441,3.441,0,0,1-1.31.67A5.57,5.57,0,0,1-47.561,0h-2.054V-8.95H-47.7a6.647,6.647,0,0,1,1.531.175,3.433,3.433,0,0,1,1.346.647,3.179,3.179,0,0,1,.956,1.342A6.1,6.1,0,0,1-43.518-4.517Zm3.38-3.51v3.016h3.315v.93h-3.315V-.9h4.069V0h-5.2V-8.95h5.083l-.13.923Zm7.8,0v3.016h3.315v.93h-3.315V-.9h4.069V0h-5.2V-8.95h5.083l-.13.923Zm11.069,1.839a1.951,1.951,0,0,0-.273-1.1,1.523,1.523,0,0,0-.748-.585,3.066,3.066,0,0,0-1.085-.179h-1.294v3.822h1.248A3.29,3.29,0,0,0-22.308-4.4a1.486,1.486,0,0,0,.76-.6A2.149,2.149,0,0,0-21.268-6.188Zm1.209-.013A2.851,2.851,0,0,1-20.5-4.524a2.516,2.516,0,0,1-1.225.916,5.2,5.2,0,0,1-1.794.286h-1.144V0H-25.8V-8.95h2.288a4.218,4.218,0,0,1,2.525.673A2.4,2.4,0,0,1-20.059-6.2ZM-9.939,0V-8.95h1.131v7.943h4.082L-4.856,0Zm8.8-8.028v3.016H2.177v.93H-1.138V-.9H2.931V0h-5.2V-8.95H2.814l-.13.923ZM9.535-2.282H5.993L5.278,0H4.166L7.078-8.95H8.521L11.433,0H10.25Zm-3.25-.936H9.243L7.774-8Zm12.4-3.224a2.3,2.3,0,0,1-.289,1.17,2.438,2.438,0,0,1-.783.826,3.5,3.5,0,0,1-1.111.475L19.156,0H17.8L15.36-3.842H14.151V0H13.02V-8.95h2.3a4.184,4.184,0,0,1,2.512.634A2.187,2.187,0,0,1,18.688-6.442Zm-1.209,0a1.454,1.454,0,0,0-.494-1.238,2.546,2.546,0,0,0-1.534-.374h-1.3v3.328h1.3a2.478,2.478,0,0,0,1.5-.393A1.536,1.536,0,0,0,17.479-6.442ZM24.635,0,21.482-7.872q.007.15.029.5t.052.826q.029.478.049,1.011t.02,1.053V0H20.585V-8.95h1.528l3.2,7.9q-.007-.189-.046-.692T25.2-2.957q-.033-.715-.033-1.515V-8.95h1.047V0Zm9.126-8.95v.9H31.772V-.9h1.989V0H28.639V-.9h1.989V-8.047H28.639v-.9ZM40.235,0,37.083-7.872q.006.15.029.5t.052.826q.029.478.049,1.011t.02,1.053V0H36.186V-8.95h1.528l3.2,7.9q-.007-.189-.046-.692T40.8-2.957q-.033-.715-.033-1.515V-8.95h1.047V0Zm6.74.149a3.284,3.284,0,0,1-1.843-.514A3.292,3.292,0,0,1,43.92-1.9a6.71,6.71,0,0,1-.429-2.574A6.008,6.008,0,0,1,43.8-6.5a4.2,4.2,0,0,1,.839-1.443,3.456,3.456,0,0,1,1.2-.865,3.529,3.529,0,0,1,1.394-.286,3.682,3.682,0,0,1,1.456.25,3.994,3.994,0,0,1,1.1.731l-.682.708a2.79,2.79,0,0,0-.861-.565,2.683,2.683,0,0,0-1.011-.182,2.44,2.44,0,0,0-.942.188,2.146,2.146,0,0,0-.816.614,3.112,3.112,0,0,0-.572,1.128A6.132,6.132,0,0,0,44.7-4.478a6.825,6.825,0,0,0,.27,2.106,2.3,2.3,0,0,0,.8,1.193,2.188,2.188,0,0,0,1.31.38,3.469,3.469,0,0,0,.887-.11,3.882,3.882,0,0,0,.816-.318v-2.73H47.021l-.136-.936H49.9V-.631a8.163,8.163,0,0,1-1.287.553A5.207,5.207,0,0,1,46.975.149Z" transform="translate(624.5 6199.748)"/><path class="idea-a" d="M-24.3-8.95-23.8,0h-1.086l-.279-4.674q-.02-.474-.039-.962t-.026-.936q-.007-.449-.007-.8v-.546l-1.508,6.312h-1.131L-29.49-7.917q.007.189.013.556t.01.829q0,.461-.007.946t-.029.9L-29.744,0H-30.8l.507-8.95h1.573l1.45,6.129,1.384-6.129Zm3.666.923v3.016h3.315v.93h-3.315V-.9h4.069V0h-5.2V-8.95h5.083l-.13.923Zm9.477.045V0h-1.125V-7.982h-2.8V-8.95h6.753l-.117.968ZM-2.21,0V-4.245H-5.59V0H-6.714V-8.95H-5.59v3.783h3.38V-8.95h1.124V0ZM7.2-4.465a7.2,7.2,0,0,1-.367,2.4,3.53,3.53,0,0,1-1.1,1.632A2.829,2.829,0,0,1,3.9.149,2.875,2.875,0,0,1,2.077-.426,3.436,3.436,0,0,1,.972-2.034,7.22,7.22,0,0,1,.6-4.452a7.248,7.248,0,0,1,.367-2.4A3.562,3.562,0,0,1,2.077-8.5,2.812,2.812,0,0,1,3.9-9.094a2.861,2.861,0,0,1,1.826.579A3.467,3.467,0,0,1,6.828-6.9,7.3,7.3,0,0,1,7.2-4.465Zm-1.183,0A6.1,6.1,0,0,0,5.522-7.2,1.688,1.688,0,0,0,3.9-8.151,1.686,1.686,0,0,0,2.278-7.2a6.141,6.141,0,0,0-.491,2.743,5.823,5.823,0,0,0,.507,2.72A1.7,1.7,0,0,0,3.9-.8a1.69,1.69,0,0,0,1.622-.939A6.033,6.033,0,0,0,6.013-4.465Zm7.767-.052a5.787,5.787,0,0,0-.247-1.872,2.436,2.436,0,0,0-.65-1.053A2.087,2.087,0,0,0,12-7.911a3.939,3.939,0,0,0-.939-.117H10.01V-.9h1.066a3.132,3.132,0,0,0,.959-.153,2.18,2.18,0,0,0,.874-.546,2.758,2.758,0,0,0,.634-1.1A5.807,5.807,0,0,0,13.78-4.517Zm1.2,0a6.106,6.106,0,0,1-.364,2.291,3.359,3.359,0,0,1-.962,1.371,3.441,3.441,0,0,1-1.31.67A5.57,5.57,0,0,1,10.94,0H8.886V-8.95H10.8a6.647,6.647,0,0,1,1.531.175,3.433,3.433,0,0,1,1.345.647,3.179,3.179,0,0,1,.956,1.342A6.1,6.1,0,0,1,14.983-4.517ZM26.9-9.094a3,3,0,0,1,1.446.325,2.308,2.308,0,0,1,.926.89A2.523,2.523,0,0,1,29.6-6.6a3.494,3.494,0,0,1-.215,1.206A5.094,5.094,0,0,1,28.7-4.157a13.661,13.661,0,0,1-1.235,1.433Q26.7-1.937,25.59-.93h4.219L29.673,0H24.349V-.89q1.014-.969,1.726-1.7t1.177-1.277a7.342,7.342,0,0,0,.728-1,3.344,3.344,0,0,0,.367-.855,3.381,3.381,0,0,0,.1-.842,1.628,1.628,0,0,0-.426-1.19,1.565,1.565,0,0,0-1.173-.435,2.279,2.279,0,0,0-1.086.227,3.014,3.014,0,0,0-.845.728l-.754-.585a3.533,3.533,0,0,1,1.183-.965A3.529,3.529,0,0,1,26.9-9.094Z" transform="translate(845.5 6375.748)"/><path class="idea-a" d="M-24.3-8.95-23.8,0h-1.086l-.279-4.674q-.02-.474-.039-.962t-.026-.936q-.007-.449-.007-.8v-.546l-1.508,6.312h-1.131L-29.49-7.917q.007.189.013.556t.01.829q0,.461-.007.946t-.029.9L-29.744,0H-30.8l.507-8.95h1.573l1.45,6.129,1.384-6.129Zm3.666.923v3.016h3.315v.93h-3.315V-.9h4.069V0h-5.2V-8.95h5.083l-.13.923Zm9.477.045V0h-1.125V-7.982h-2.8V-8.95h6.753l-.117.968ZM-2.21,0V-4.245H-5.59V0H-6.714V-8.95H-5.59v3.783h3.38V-8.95h1.124V0ZM7.2-4.465a7.2,7.2,0,0,1-.367,2.4,3.53,3.53,0,0,1-1.1,1.632A2.829,2.829,0,0,1,3.9.149,2.875,2.875,0,0,1,2.077-.426,3.436,3.436,0,0,1,.972-2.034,7.22,7.22,0,0,1,.6-4.452a7.248,7.248,0,0,1,.367-2.4A3.562,3.562,0,0,1,2.077-8.5,2.812,2.812,0,0,1,3.9-9.094a2.861,2.861,0,0,1,1.826.579A3.467,3.467,0,0,1,6.828-6.9,7.3,7.3,0,0,1,7.2-4.465Zm-1.183,0A6.1,6.1,0,0,0,5.522-7.2,1.688,1.688,0,0,0,3.9-8.151,1.686,1.686,0,0,0,2.278-7.2a6.141,6.141,0,0,0-.491,2.743,5.823,5.823,0,0,0,.507,2.72A1.7,1.7,0,0,0,3.9-.8a1.69,1.69,0,0,0,1.622-.939A6.033,6.033,0,0,0,6.013-4.465Zm7.767-.052a5.787,5.787,0,0,0-.247-1.872,2.436,2.436,0,0,0-.65-1.053A2.087,2.087,0,0,0,12-7.911a3.939,3.939,0,0,0-.939-.117H10.01V-.9h1.066a3.132,3.132,0,0,0,.959-.153,2.18,2.18,0,0,0,.874-.546,2.758,2.758,0,0,0,.634-1.1A5.807,5.807,0,0,0,13.78-4.517Zm1.2,0a6.106,6.106,0,0,1-.364,2.291,3.359,3.359,0,0,1-.962,1.371,3.441,3.441,0,0,1-1.31.67A5.57,5.57,0,0,1,10.94,0H8.886V-8.95H10.8a6.647,6.647,0,0,1,1.531.175,3.433,3.433,0,0,1,1.345.647,3.179,3.179,0,0,1,.956,1.342A6.1,6.1,0,0,1,14.983-4.517ZM26.89-9.094a3.273,3.273,0,0,1,1.459.3,2.361,2.361,0,0,1,.952.813,1.988,1.988,0,0,1,.338,1.121,2.02,2.02,0,0,1-.24.981,2.153,2.153,0,0,1-.637.728,2.172,2.172,0,0,1-.871.377,2.369,2.369,0,0,1,.988.3,2.055,2.055,0,0,1,.754.728,2.173,2.173,0,0,1,.292,1.167,2.566,2.566,0,0,1-.39,1.394,2.713,2.713,0,0,1-1.089.978,3.528,3.528,0,0,1-1.628.358,4.132,4.132,0,0,1-1.492-.286,3,3,0,0,1-1.258-.91l.734-.6a2.409,2.409,0,0,0,.913.669,2.771,2.771,0,0,0,1.076.221,2.062,2.062,0,0,0,1.462-.491,1.737,1.737,0,0,0,.527-1.336,1.814,1.814,0,0,0-.244-1.007,1.347,1.347,0,0,0-.66-.53,2.641,2.641,0,0,0-.949-.159h-.754l.137-.865h.526a2.065,2.065,0,0,0,.822-.166,1.471,1.471,0,0,0,.634-.517,1.488,1.488,0,0,0,.247-.877,1.355,1.355,0,0,0-.494-1.131,1.871,1.871,0,0,0-1.2-.39,2.376,2.376,0,0,0-1.021.2,3.433,3.433,0,0,0-.878.621l-.6-.67a3.67,3.67,0,0,1,1.215-.783A3.714,3.714,0,0,1,26.89-9.094Z" transform="translate(766.5 6617.748)"/><path class="idea-a" d="M-24.3-8.95-23.8,0h-1.086l-.279-4.674q-.02-.474-.039-.962t-.026-.936q-.007-.449-.007-.8v-.546l-1.508,6.312h-1.131L-29.49-7.917q.007.189.013.556t.01.829q0,.461-.007.946t-.029.9L-29.744,0H-30.8l.507-8.95h1.573l1.45,6.129,1.384-6.129Zm3.666.923v3.016h3.315v.93h-3.315V-.9h4.069V0h-5.2V-8.95h5.083l-.13.923Zm9.477.045V0h-1.125V-7.982h-2.8V-8.95h6.753l-.117.968ZM-2.21,0V-4.245H-5.59V0H-6.714V-8.95H-5.59v3.783h3.38V-8.95h1.124V0ZM7.2-4.465a7.2,7.2,0,0,1-.367,2.4,3.53,3.53,0,0,1-1.1,1.632A2.829,2.829,0,0,1,3.9.149,2.875,2.875,0,0,1,2.077-.426,3.436,3.436,0,0,1,.972-2.034,7.22,7.22,0,0,1,.6-4.452a7.248,7.248,0,0,1,.367-2.4A3.562,3.562,0,0,1,2.077-8.5,2.812,2.812,0,0,1,3.9-9.094a2.861,2.861,0,0,1,1.826.579A3.467,3.467,0,0,1,6.828-6.9,7.3,7.3,0,0,1,7.2-4.465Zm-1.183,0A6.1,6.1,0,0,0,5.522-7.2,1.688,1.688,0,0,0,3.9-8.151,1.686,1.686,0,0,0,2.278-7.2a6.141,6.141,0,0,0-.491,2.743,5.823,5.823,0,0,0,.507,2.72A1.7,1.7,0,0,0,3.9-.8a1.69,1.69,0,0,0,1.622-.939A6.033,6.033,0,0,0,6.013-4.465Zm7.767-.052a5.787,5.787,0,0,0-.247-1.872,2.436,2.436,0,0,0-.65-1.053A2.087,2.087,0,0,0,12-7.911a3.939,3.939,0,0,0-.939-.117H10.01V-.9h1.066a3.132,3.132,0,0,0,.959-.153,2.18,2.18,0,0,0,.874-.546,2.758,2.758,0,0,0,.634-1.1A5.807,5.807,0,0,0,13.78-4.517Zm1.2,0a6.106,6.106,0,0,1-.364,2.291,3.359,3.359,0,0,1-.962,1.371,3.441,3.441,0,0,1-1.31.67A5.57,5.57,0,0,1,10.94,0H8.886V-8.95H10.8a6.647,6.647,0,0,1,1.531.175,3.433,3.433,0,0,1,1.345.647,3.179,3.179,0,0,1,.956,1.342A6.1,6.1,0,0,1,14.983-4.517ZM26.962-9.094l.91.384L25.493-3.049h4.778v.871H24.336V-2.97Zm2.151,3.5V0H28.06l-.006-2.841L28.2-5.59Z" transform="translate(483.5 6617.748)"/><path class="idea-a" d="M-24.3-8.95-23.8,0h-1.086l-.279-4.674q-.02-.474-.039-.962t-.026-.936q-.007-.449-.007-.8v-.546l-1.508,6.312h-1.131L-29.49-7.917q.007.189.013.556t.01.829q0,.461-.007.946t-.029.9L-29.744,0H-30.8l.507-8.95h1.573l1.45,6.129,1.384-6.129Zm3.666.923v3.016h3.315v.93h-3.315V-.9h4.069V0h-5.2V-8.95h5.083l-.13.923Zm9.477.045V0h-1.125V-7.982h-2.8V-8.95h6.753l-.117.968ZM-2.21,0V-4.245H-5.59V0H-6.714V-8.95H-5.59v3.783h3.38V-8.95h1.124V0ZM7.2-4.465a7.2,7.2,0,0,1-.367,2.4,3.53,3.53,0,0,1-1.1,1.632A2.829,2.829,0,0,1,3.9.149,2.875,2.875,0,0,1,2.077-.426,3.436,3.436,0,0,1,.972-2.034,7.22,7.22,0,0,1,.6-4.452a7.248,7.248,0,0,1,.367-2.4A3.562,3.562,0,0,1,2.077-8.5,2.812,2.812,0,0,1,3.9-9.094a2.861,2.861,0,0,1,1.826.579A3.467,3.467,0,0,1,6.828-6.9,7.3,7.3,0,0,1,7.2-4.465Zm-1.183,0A6.1,6.1,0,0,0,5.522-7.2,1.688,1.688,0,0,0,3.9-8.151,1.686,1.686,0,0,0,2.278-7.2a6.141,6.141,0,0,0-.491,2.743,5.823,5.823,0,0,0,.507,2.72A1.7,1.7,0,0,0,3.9-.8a1.69,1.69,0,0,0,1.622-.939A6.033,6.033,0,0,0,6.013-4.465Zm7.767-.052a5.787,5.787,0,0,0-.247-1.872,2.436,2.436,0,0,0-.65-1.053A2.087,2.087,0,0,0,12-7.911a3.939,3.939,0,0,0-.939-.117H10.01V-.9h1.066a3.132,3.132,0,0,0,.959-.153,2.18,2.18,0,0,0,.874-.546,2.758,2.758,0,0,0,.634-1.1A5.807,5.807,0,0,0,13.78-4.517Zm1.2,0a6.106,6.106,0,0,1-.364,2.291,3.359,3.359,0,0,1-.962,1.371,3.441,3.441,0,0,1-1.31.67A5.57,5.57,0,0,1,10.94,0H8.886V-8.95H10.8a6.647,6.647,0,0,1,1.531.175,3.433,3.433,0,0,1,1.345.647,3.179,3.179,0,0,1,.956,1.342A6.1,6.1,0,0,1,14.983-4.517ZM29.731-8.95l-.162.871H26.032v2.821a3.028,3.028,0,0,1,.777-.3,3.557,3.557,0,0,1,.77-.081,2.459,2.459,0,0,1,1.281.328,2.193,2.193,0,0,1,.858.959,3.462,3.462,0,0,1,.306,1.521,3.185,3.185,0,0,1-.374,1.566A2.61,2.61,0,0,1,28.6-.221a3.292,3.292,0,0,1-1.606.371,3.464,3.464,0,0,1-1.44-.286A4.005,4.005,0,0,1,24.4-.93l.676-.65a2.811,2.811,0,0,0,.881.621,2.607,2.607,0,0,0,1.05.2,1.78,1.78,0,0,0,1.378-.536,2.25,2.25,0,0,0,.494-1.576A2.508,2.508,0,0,0,28.665-4a1.291,1.291,0,0,0-.582-.595,1.839,1.839,0,0,0-.816-.179,2.968,2.968,0,0,0-.7.075,5.882,5.882,0,0,0-.7.224h-.877V-8.95Z" transform="translate(407.5 6375.748)"/><g transform="translate(356.5 6157.821)"><path class="idea-b" d="M2132.706,2052.023a170.1,170.1,0,0,1-86.327-.505" transform="translate(-1820.683 -1719.673)"/><path class="idea-b" d="M1977.059,1812.452a167.866,167.866,0,0,1-24.635-78.656" transform="translate(-1750.079 -1480.914)"/><path class="idea-b" d="M2419.905,1731.769a167.865,167.865,0,0,1-25.12,79.563" transform="translate(-2082.5 -1479.391)"/><g class="idea-c" transform="translate(171.916 192.142)"><path class="idea-d" d="M1883.768,1974.587a168.117,168.117,0,0,1-53.779-25.443" transform="translate(-1829.989 -1834.884)"/><path class="idea-d" d="M2450.316,1946.573a168.114,168.114,0,0,1-56.585,26.587" transform="translate(-2253.624 -1832.952)"/><path class="idea-d" d="M1951.6,1551.857q-.27-4.79-.271-9.648a168.766,168.766,0,0,1,7.689-50.524" transform="translate(-1921.175 -1491.116)"/><path class="idea-d" d="M2094.089,2096.994a169.728,169.728,0,0,1-42.543-46.711" transform="translate(-1996.482 -1910.886)"/><path class="idea-d" d="M2225.292,1502.42a168.326,168.326,0,0,1,59.813-11.607" transform="translate(-2127.047 -1490.461)"/><path class="idea-d" d="M1830.583,1640a169.326,169.326,0,0,1,98.1-102.486" transform="translate(-1830.435 -1525.557)"/><path class="idea-d" d="M1980.935,1492.341a168.911,168.911,0,0,1,157.612,113.452" transform="translate(-1943.421 -1491.61)"/><path class="idea-d" d="M2266.573,2051.9a169.735,169.735,0,0,1-42.4,46.192" transform="translate(-2126.204 -1912.105)"/><path class="idea-d" d="M2465.731,1489.4a168.762,168.762,0,0,1,7.752,50.722q0,4.789-.264,9.514" transform="translate(-2307.73 -1489.398)"/></g><g class="idea-e" transform="translate(109.814 107.05)"><path class="idea-d" d="M1642.213,1696.564a169.243,169.243,0,0,1-62.1-83.535" transform="translate(-1580.111 -1497.211)"/><path class="idea-d" d="M2682.38,1615.9a169.245,169.245,0,0,1-60.969,82.182" transform="translate(-2362.617 -1499.369)"/><path class="idea-d" d="M1982.273,1235.576a169.138,169.138,0,0,1,60.038-84.7" transform="translate(-1882.324 -1149.915)"/><path class="idea-d" d="M2324.11,2272.052a168.087,168.087,0,0,1-101.385-33.819" transform="translate(-2063.016 -1967.034)"/><path class="idea-d" d="M2465.958,1490.783q.927-.01,1.856-.01a168.06,168.06,0,0,1,96.917,30.57" transform="translate(-2245.799 -1405.339)"/><path class="idea-d" d="M1801.975,2055.747a169.747,169.747,0,0,1,1.188-105.861" transform="translate(-1740.913 -1750.349)"/><path class="idea-d" d="M2615.112,1948.835a169.758,169.758,0,0,1,1.906,104.908" transform="translate(-2357.884 -1749.559)"/><path class="idea-d" d="M1580.455,1523.349a168.061,168.061,0,0,1,97.6-31.051q.968,0,1.933.011" transform="translate(-1580.37 -1406.485)"/><path class="idea-d" d="M1918.636,2237.766a168.085,168.085,0,0,1-101.047,33.565" transform="translate(-1758.569 -1966.682)"/><path class="idea-d" d="M2221.225,1147.016a169.155,169.155,0,0,1,60.767,85.092" transform="translate(-2061.889 -1147.016)"/></g><g class="idea-f" transform="translate(38.554 74.029)"><path class="idea-d" d="M1553.407,1176.268a169.239,169.239,0,0,1,17.393-144.447" transform="translate(-1482.147 -1027.43)"/><path class="idea-d" d="M2798.711,1033.38a169.235,169.235,0,0,1,16.9,144.774" transform="translate(-2424.592 -1028.602)"/><path class="idea-d" d="M2223.847,1049.251a169.225,169.225,0,0,1,143.524-28.236" transform="translate(-1992.599 -1015.272)"/><path class="idea-d" d="M2760.947,2127.094a168.492,168.492,0,0,1-130.281,61.44" transform="translate(-2298.312 -1850.495)"/><path class="idea-d" d="M2863.385,1613.775a168.672,168.672,0,0,1,71.588,127.623" transform="translate(-2473.192 -1464.752)"/><path class="idea-d" d="M1924.594,2481.728a169.3,169.3,0,0,1-98.791-105.892" transform="translate(-1693.481 -2037.417)"/><path class="idea-d" d="M2324.523,2370.95a169.285,169.285,0,0,1-98.641,107.228" transform="translate(-1994.128 -2033.746)"/><path class="idea-d" d="M1295.672,1742.471a168.674,168.674,0,0,1,70.777-125.234" transform="translate(-1295.103 -1467.353)"/><path class="idea-d" d="M1423.664,2187.045a168.491,168.491,0,0,1-130.281-61.44" transform="translate(-1293.383 -1849.376)"/><path class="idea-d" d="M1643.125,1019.774a169.228,169.228,0,0,1,143.675,27.4" transform="translate(-1556.204 -1014.154)"/></g><g transform="translate(0 0)"><path class="idea-d" d="M1650.094,794.7a168.881,168.881,0,0,1,285.465.388" transform="translate(-1522.887 -716.284)"/><path class="idea-d" d="M2801.341,1037.261a168.879,168.879,0,0,1,87.863,270.856" transform="translate(-2388.015 -957.489)"/><path class="idea-d" d="M2453.97,2127.288q.328,5.279.33,10.641a168.937,168.937,0,0,1-231,157.022" transform="translate(-1953.637 -1776.612)"/><path class="idea-d" d="M1525.468,2290.45a168.935,168.935,0,0,1-231.644-156.765q0-6.331.459-12.549" transform="translate(-1255.161 -1771.989)"/><path class="idea-d" d="M1176.81,1307.375a168.879,168.879,0,0,1,86.921-270.609" transform="translate(-1138.256 -957.117)"/></g><path class="idea-g" d="M2020.241,1538.13s-42.56,16.094-66.523,49c0,0-.358,38.269,24.32,79.041,0,0,35.408,12.16,84.406.358,0,0,21.817-27.9,26.108-78.326C2088.553,1588.2,2066.021,1556.37,2020.241,1538.13Z" transform="translate(-1751.052 -1333.877)"/><path class="idea-h" d="M2688.324,2689.468" transform="translate(-2303.086 -2199.073)"/></g><path class="idea-i" d="M-14.859-10.6V0h2.178V-10.6Zm10.17,7.2a1.844,1.844,0,0,1-1.8,1.962c-1.206,0-1.962-.936-1.962-2.646,0-2.088.936-2.826,1.98-2.826A1.716,1.716,0,0,1-4.689-5.058Zm-.018-3.816a2.207,2.207,0,0,0-2.2-1.3c-2.376,0-3.708,1.692-3.708,4.518C-10.611-1.224-9.117.216-7.3.216A2.372,2.372,0,0,0-4.689-1.44L-4.437,0h1.872V-12.024H-4.707ZM3.249-1.44c-1.206,0-1.854-.936-1.908-2.322h5.2a4.323,4.323,0,0,0,.126-1.116c0-2.106-1.152-3.636-3.438-3.636-2.43,0-3.96,1.62-3.96,4.464C-.729-1.332.855.216,3.177.216c1.62,0,3.1-.594,3.492-2.268L4.833-2.646A1.5,1.5,0,0,1,3.249-1.44ZM1.4-5.04c.126-1.134.756-1.854,1.746-1.854A1.417,1.417,0,0,1,4.617-5.346,1.851,1.851,0,0,1,4.6-5.04ZM12.681-2.574a1.372,1.372,0,0,1-1.53,1.242.94.94,0,0,1-1.062-.954c0-.846.72-1.314,2.592-1.26Zm2.142-3.258c0-1.872-1.26-2.682-3.168-2.682-1.782,0-3.294.756-3.42,2.52l2.106.378c.054-.792.45-1.26,1.206-1.26.738,0,1.134.432,1.134,1.242v.882c-3.258-.18-4.734.846-4.734,2.7A2.212,2.212,0,0,0,10.413.216a2.336,2.336,0,0,0,2.43-1.386A1.678,1.678,0,0,0,14.733.144a2.355,2.355,0,0,0,1.206-.252V-1.692a1.159,1.159,0,0,1-.5.126c-.36,0-.612-.18-.612-.774ZM-31.239,6.4V17H-24.7V15.11h-4.356V6.4Zm11.628,9.162c-1.206,0-1.854-.936-1.908-2.322h5.2a4.323,4.323,0,0,0,.126-1.116c0-2.106-1.152-3.636-3.438-3.636-2.43,0-3.96,1.62-3.96,4.464,0,2.718,1.584,4.266,3.906,4.266,1.62,0,3.1-.594,3.492-2.268l-1.836-.594A1.5,1.5,0,0,1-19.611,15.56Zm-1.854-3.6c.126-1.134.756-1.854,1.746-1.854a1.417,1.417,0,0,1,1.476,1.548,1.851,1.851,0,0,1-.018.306Zm11.286,2.466a1.372,1.372,0,0,1-1.53,1.242.94.94,0,0,1-1.062-.954c0-.846.72-1.314,2.592-1.26Zm2.142-3.258c0-1.872-1.26-2.682-3.168-2.682-1.782,0-3.294.756-3.42,2.52l2.106.378c.054-.792.45-1.26,1.206-1.26.738,0,1.134.432,1.134,1.242v.882c-3.258-.18-4.734.846-4.734,2.7a2.212,2.212,0,0,0,2.466,2.268,2.336,2.336,0,0,0,2.43-1.386,1.678,1.678,0,0,0,1.89,1.314,2.355,2.355,0,0,0,1.206-.252V15.308a1.159,1.159,0,0,1-.5.126c-.36,0-.612-.18-.612-.774ZM.027,8.5a2.889,2.889,0,0,0-3.312,2.448l-.252-2.268H-5.391V17h2.142V13.058a2.1,2.1,0,0,1,2.2-2.286,3.15,3.15,0,0,1,.864.108Zm3.24.18h-1.8V17H3.609V12.356c0-1.584.81-2.052,1.674-2.052.9,0,1.224.594,1.224,1.548V17H8.649V11.1a2.336,2.336,0,0,0-2.466-2.61,2.588,2.588,0,0,0-2.664,1.8Zm7.4-2.574A1.248,1.248,0,0,0,12,7.37a1.282,1.282,0,1,0,0-2.556A1.256,1.256,0,0,0,10.665,6.11Zm.27,2.574V17h2.142V8.684Zm6.318,0h-1.8V17h2.142V12.356c0-1.584.81-2.052,1.674-2.052.9,0,1.224.594,1.224,1.548V17h2.142V11.1a2.336,2.336,0,0,0-2.466-2.61,2.588,2.588,0,0,0-2.664,1.8Zm10.728-.2c-2.142,0-3.582,1.026-3.582,2.934a2.5,2.5,0,0,0,1.692,2.52,1.621,1.621,0,0,0-1.332,1.566,1.37,1.37,0,0,0,1.278,1.422c-1.458.108-2.178.738-2.178,1.746,0,1.638,1.818,2.124,3.8,2.124,2.322,0,4.734-.594,4.734-2.916,0-1.458-1.044-2.394-2.934-2.394h-2.25c-.486,0-.738-.216-.738-.576a.794.794,0,0,1,.45-.738,3.675,3.675,0,0,0,1.026.126c2.034,0,3.69-.954,3.69-2.88a2.791,2.791,0,0,0-.378-1.494,1.929,1.929,0,0,0,1.458-1.548L30.987,7.8a1.917,1.917,0,0,1-.63,1.26A4.508,4.508,0,0,0,27.981,8.486Zm-2.142,9.828c0-.612.558-.9,1.4-.9h1.962c.846,0,1.152.288,1.152.828,0,.792-.774,1.1-2.466,1.1C26.613,19.34,25.839,19.034,25.839,18.314Zm.72-6.894a1.3,1.3,0,0,1,1.422-1.44,1.29,1.29,0,0,1,1.458,1.44,1.44,1.44,0,1,1-2.88,0Z" transform="translate(625.5 6425.748)"/></g></svg>