<svg xmlns="http://www.w3.org/2000/svg" width="17.596" height="17.596" viewBox="0 0 17.596 17.596"><defs><style>.linkedin-a{fill:#212227;fill-rule:evenodd;}</style></defs><path class="linkedin-a" d="M14.995,15H12.387V10.908c0-.974-.018-2.229-1.354-2.229-1.354,0-1.567,1.061-1.567,2.156v4.154H6.857V6.6h2.5V7.745h.035a2.742,2.742,0,0,1,2.468-1.354c2.643,0,3.131,1.74,3.131,4V15ZM3.915,5.449A1.513,1.513,0,1,1,5.428,3.936,1.513,1.513,0,0,1,3.915,5.449ZM2.609,15h2.61V6.6H2.609ZM16.295,0H1.3A1.284,1.284,0,0,0,0,1.268v15.06A1.286,1.286,0,0,0,1.3,17.6h15a1.287,1.287,0,0,0,1.3-1.268V1.268A1.287,1.287,0,0,0,16.295,0Z" transform="translate(0 0)"/></svg>