<svg xmlns="http://www.w3.org/2000/svg" width="2816.553" height="3004.01" viewBox="0 0 2816.553 3004.01"><defs><style>.quote-group{opacity:0.644;}.dotted-quote{fill:none;stroke:#5a5a5a;stroke-dasharray:1 5;}</style></defs><g class="quote-group" transform="matrix(0.819, 0.574, -0.574, 0.819, -263.115, -2126.986)"><path class="dotted-quote" d="M2610.135,926.388a64.9,64.9,0,0,0-129.789-1.645q-.01.823,0,1.645v1.02a87.868,87.868,0,0,0,85.377,87.829v-6.308A24.861,24.861,0,0,1,2544.9,991.3h.378A64.9,64.9,0,0,0,2610.135,926.388Z" transform="translate(0 0)"/><path class="dotted-quote" d="M2709.071,926.388a64.9,64.9,0,0,0-129.789-1.645q-.01.823,0,1.645v1.02a87.868,87.868,0,0,0,85.377,87.829v-6.308a24.863,24.863,0,0,1-20.83-17.627h.379A64.9,64.9,0,0,0,2709.071,926.388Z" transform="translate(60.268 0)"/><path class="dotted-quote" d="M2808.008,926.388a64.9,64.9,0,0,0-129.789-1.645q-.012.823,0,1.645v1.02a87.868,87.868,0,0,0,85.377,87.829v-6.308a24.863,24.863,0,0,1-20.83-17.627h.379A64.9,64.9,0,0,0,2808.008,926.388Z" transform="translate(120.534 0)"/><path class="dotted-quote" d="M2906.944,926.388a64.9,64.9,0,0,0-129.789-1.645q-.012.823,0,1.645v1.02a87.867,87.867,0,0,0,85.375,87.829v-6.308A24.862,24.862,0,0,1,2841.7,991.3h.378A64.9,64.9,0,0,0,2906.944,926.388Z" transform="translate(180.802 0)"/><path class="dotted-quote" d="M3005.878,926.388a64.9,64.9,0,1,0-129.788-1.645q-.01.823,0,1.645v1.02a87.868,87.868,0,0,0,85.377,87.829v-6.308a24.864,24.864,0,0,1-20.831-17.627h.38A64.9,64.9,0,0,0,3005.878,926.388Z" transform="translate(241.07 0)"/><path class="dotted-quote" d="M3104.814,926.388a64.9,64.9,0,1,0-129.788-1.645q-.012.823,0,1.645v1.02a87.868,87.868,0,0,0,85.377,87.829v-6.308a24.864,24.864,0,0,1-20.831-17.627h.38A64.9,64.9,0,0,0,3104.814,926.388Z" transform="translate(301.337 0)"/><path class="dotted-quote" d="M3203.75,926.388a64.9,64.9,0,1,0-129.788-1.645q-.012.823,0,1.645v1.02a87.867,87.867,0,0,0,85.377,87.829v-6.308a24.862,24.862,0,0,1-20.831-17.627h.378A64.9,64.9,0,0,0,3203.75,926.388Z" transform="translate(361.604 0)"/><path class="dotted-quote" d="M3302.685,926.388a64.9,64.9,0,1,0-129.788-1.645q-.01.823,0,1.645v1.02a87.867,87.867,0,0,0,85.376,87.829v-6.308a24.864,24.864,0,0,1-20.83-17.627h.379A64.9,64.9,0,0,0,3302.685,926.388Z" transform="translate(421.872 0)"/><path class="dotted-quote" d="M3401.621,926.388a64.9,64.9,0,1,0-129.788-1.645q-.01.823,0,1.645v1.02a87.867,87.867,0,0,0,85.376,87.829v-6.308a24.863,24.863,0,0,1-20.83-17.627h.379A64.9,64.9,0,0,0,3401.621,926.388Z" transform="translate(482.139 0)"/><path class="dotted-quote" d="M3500.558,926.388a64.9,64.9,0,1,0-129.788-1.645q-.012.823,0,1.645v1.02a87.866,87.866,0,0,0,85.376,87.829v-6.308a24.864,24.864,0,0,1-20.831-17.627h.38A64.9,64.9,0,0,0,3500.558,926.388Z" transform="translate(542.407 0)"/><path class="dotted-quote" d="M3599.492,926.388a64.9,64.9,0,1,0-129.788-1.645q-.01.823,0,1.645v1.02a87.868,87.868,0,0,0,85.377,87.829v-6.308A24.866,24.866,0,0,1,3534.25,991.3h.38A64.9,64.9,0,0,0,3599.492,926.388Z" transform="translate(602.674 0)"/><path class="dotted-quote" d="M3698.428,926.388a64.9,64.9,0,1,0-129.788-1.645q-.01.823,0,1.645v1.02a87.868,87.868,0,0,0,85.377,87.829v-6.308a24.864,24.864,0,0,1-20.831-17.627h.38A64.9,64.9,0,0,0,3698.428,926.388Z" transform="translate(662.942 0)"/><path class="dotted-quote" d="M3605.64,1044.621a64.9,64.9,0,1,0,129.788,1.645q.012-.821,0-1.645v-1.02a87.865,87.865,0,0,0-85.376-87.828v6.308a24.861,24.861,0,0,1,20.83,17.625h-.379A64.9,64.9,0,0,0,3605.64,1044.621Z" transform="translate(685.48 57.935)"/><path class="dotted-quote" d="M3506.7,1044.621a64.9,64.9,0,1,0,129.788,1.645q.012-.821,0-1.645v-1.02a87.864,87.864,0,0,0-85.376-87.828v6.308a24.862,24.862,0,0,1,20.831,17.625h-.38A64.9,64.9,0,0,0,3506.7,1044.621Z" transform="translate(625.213 57.935)"/><path class="dotted-quote" d="M3407.769,1044.621a64.9,64.9,0,1,0,129.788,1.645q.01-.821,0-1.645v-1.02a87.865,87.865,0,0,0-85.377-87.828v6.308a24.862,24.862,0,0,1,20.831,17.625h-.38A64.9,64.9,0,0,0,3407.769,1044.621Z" transform="translate(564.946 57.935)"/><path class="dotted-quote" d="M3308.833,1044.621a64.9,64.9,0,1,0,129.788,1.645q.01-.821,0-1.645v-1.02a87.865,87.865,0,0,0-85.377-87.828v6.308a24.862,24.862,0,0,1,20.831,17.625h-.38A64.9,64.9,0,0,0,3308.833,1044.621Z" transform="translate(504.678 57.935)"/><path class="dotted-quote" d="M3209.9,1044.621a64.9,64.9,0,1,0,129.788,1.645q.012-.821,0-1.645v-1.02a87.865,87.865,0,0,0-85.377-87.828v6.308a24.862,24.862,0,0,1,20.831,17.625h-.38A64.9,64.9,0,0,0,3209.9,1044.621Z" transform="translate(444.41 57.935)"/><path class="dotted-quote" d="M3110.962,1044.621a64.9,64.9,0,1,0,129.788,1.645q.01-.821,0-1.645v-1.02a87.865,87.865,0,0,0-85.376-87.828v6.308a24.864,24.864,0,0,1,20.83,17.625h-.379A64.9,64.9,0,0,0,3110.962,1044.621Z" transform="translate(384.143 57.935)"/><path class="dotted-quote" d="M3012.026,1044.621a64.9,64.9,0,1,0,129.788,1.645q.01-.821,0-1.645v-1.02a87.865,87.865,0,0,0-85.377-87.828v6.308a24.863,24.863,0,0,1,20.831,17.625h-.38A64.9,64.9,0,0,0,3012.026,1044.621Z" transform="translate(323.876 57.935)"/><path class="dotted-quote" d="M2913.09,1044.621a64.9,64.9,0,1,0,129.788,1.645q.012-.821,0-1.645v-1.02a87.865,87.865,0,0,0-85.377-87.828v6.308a24.863,24.863,0,0,1,20.831,17.625h-.38A64.9,64.9,0,0,0,2913.09,1044.621Z" transform="translate(263.608 57.935)"/><path class="dotted-quote" d="M2814.154,1044.621a64.9,64.9,0,0,0,129.79,1.645q.01-.821,0-1.645v-1.02a87.865,87.865,0,0,0-85.377-87.828v6.308a24.861,24.861,0,0,1,20.829,17.625h-.378A64.9,64.9,0,0,0,2814.154,1044.621Z" transform="translate(203.341 57.935)"/><path class="dotted-quote" d="M2715.219,1044.621a64.9,64.9,0,1,0,129.788,1.645q.01-.821,0-1.645v-1.02a87.865,87.865,0,0,0-85.377-87.828v6.308a24.862,24.862,0,0,1,20.831,17.625h-.38A64.9,64.9,0,0,0,2715.219,1044.621Z" transform="translate(143.074 57.935)"/><path class="dotted-quote" d="M2616.283,1044.621a64.9,64.9,0,1,0,129.788,1.645q.012-.821,0-1.645v-1.02a87.865,87.865,0,0,0-85.377-87.828v6.308a24.863,24.863,0,0,1,20.831,17.625h-.38A64.9,64.9,0,0,0,2616.283,1044.621Z" transform="translate(82.806 57.935)"/><path class="dotted-quote" d="M2517.347,1044.621a64.9,64.9,0,1,0,129.788,1.645q.012-.821,0-1.645v-1.02a87.864,87.864,0,0,0-85.375-87.828v6.308a24.86,24.86,0,0,1,20.829,17.625h-.378A64.9,64.9,0,0,0,2517.347,1044.621Z" transform="translate(22.538 57.935)"/><path class="dotted-quote" d="M2610.135,1133.443a64.9,64.9,0,0,0-129.789-1.645c-.006.549-.006,1.1,0,1.645v1.02a87.865,87.865,0,0,0,85.377,87.828v-6.308a24.86,24.86,0,0,1-20.829-17.625h.378A64.9,64.9,0,0,0,2610.135,1133.443Z" transform="translate(0 126.129)"/><path class="dotted-quote" d="M2709.071,1133.443a64.9,64.9,0,0,0-129.789-1.645c-.006.549-.006,1.1,0,1.645v1.02a87.866,87.866,0,0,0,85.377,87.828v-6.308a24.861,24.861,0,0,1-20.83-17.625h.379A64.9,64.9,0,0,0,2709.071,1133.443Z" transform="translate(60.268 126.129)"/><path class="dotted-quote" d="M2808.008,1133.443a64.9,64.9,0,0,0-129.789-1.645c-.008.549-.008,1.1,0,1.645v1.02a87.866,87.866,0,0,0,85.377,87.828v-6.308a24.861,24.861,0,0,1-20.83-17.625h.379A64.9,64.9,0,0,0,2808.008,1133.443Z" transform="translate(120.534 126.129)"/><path class="dotted-quote" d="M2906.944,1133.443a64.9,64.9,0,0,0-129.789-1.645c-.008.549-.008,1.1,0,1.645v1.02a87.864,87.864,0,0,0,85.375,87.828v-6.308a24.86,24.86,0,0,1-20.829-17.625h.378A64.9,64.9,0,0,0,2906.944,1133.443Z" transform="translate(180.802 126.129)"/><path class="dotted-quote" d="M3005.878,1133.443a64.9,64.9,0,1,0-129.788-1.645c-.006.549-.006,1.1,0,1.645v1.02a87.866,87.866,0,0,0,85.377,87.828v-6.308a24.863,24.863,0,0,1-20.831-17.625h.38A64.9,64.9,0,0,0,3005.878,1133.443Z" transform="translate(241.07 126.129)"/><path class="dotted-quote" d="M3104.814,1133.443a64.9,64.9,0,1,0-129.788-1.645c-.008.549-.008,1.1,0,1.645v1.02a87.865,87.865,0,0,0,85.377,87.828v-6.308a24.863,24.863,0,0,1-20.831-17.625h.38A64.9,64.9,0,0,0,3104.814,1133.443Z" transform="translate(301.337 126.129)"/><path class="dotted-quote" d="M3203.75,1133.443a64.9,64.9,0,1,0-129.788-1.645c-.008.549-.008,1.1,0,1.645v1.02a87.864,87.864,0,0,0,85.377,87.828v-6.308a24.86,24.86,0,0,1-20.831-17.625h.378A64.9,64.9,0,0,0,3203.75,1133.443Z" transform="translate(361.604 126.129)"/><path class="dotted-quote" d="M3302.685,1133.443A64.9,64.9,0,1,0,3172.9,1131.8c-.006.549-.006,1.1,0,1.645v1.02a87.865,87.865,0,0,0,85.376,87.828v-6.308a24.862,24.862,0,0,1-20.83-17.625h.379A64.9,64.9,0,0,0,3302.685,1133.443Z" transform="translate(421.872 126.129)"/><path class="dotted-quote" d="M3401.621,1133.443a64.9,64.9,0,1,0-129.788-1.645c-.007.549-.007,1.1,0,1.645v1.02a87.865,87.865,0,0,0,85.376,87.828v-6.308a24.861,24.861,0,0,1-20.83-17.625h.379A64.9,64.9,0,0,0,3401.621,1133.443Z" transform="translate(482.139 126.129)"/><path class="dotted-quote" d="M3500.558,1133.443a64.9,64.9,0,1,0-129.788-1.645c-.008.549-.008,1.1,0,1.645v1.02a87.864,87.864,0,0,0,85.376,87.828v-6.308a24.863,24.863,0,0,1-20.831-17.625h.38A64.9,64.9,0,0,0,3500.558,1133.443Z" transform="translate(542.407 126.129)"/><path class="dotted-quote" d="M3599.492,1133.443A64.9,64.9,0,1,0,3469.7,1131.8c-.006.549-.006,1.1,0,1.645v1.02a87.865,87.865,0,0,0,85.377,87.828v-6.308a24.864,24.864,0,0,1-20.831-17.625h.38A64.9,64.9,0,0,0,3599.492,1133.443Z" transform="translate(602.674 126.129)"/><path class="dotted-quote" d="M3698.428,1133.443a64.9,64.9,0,1,0-129.788-1.645c-.006.549-.006,1.1,0,1.645v1.02a87.865,87.865,0,0,0,85.377,87.828v-6.308a24.863,24.863,0,0,1-20.831-17.625h.38A64.9,64.9,0,0,0,3698.428,1133.443Z" transform="translate(662.942 126.129)"/><path class="dotted-quote" d="M3605.64,1251.677a64.9,64.9,0,1,0,129.788,1.644c.008-.549.008-1.1,0-1.644v-1.02a87.867,87.867,0,0,0-85.376-87.829v6.308a24.863,24.863,0,0,1,20.83,17.627h-.379A64.9,64.9,0,0,0,3605.64,1251.677Z" transform="translate(685.48 184.063)"/><path class="dotted-quote" d="M3506.7,1251.677a64.9,64.9,0,1,0,129.788,1.644c.008-.549.008-1.1,0-1.644v-1.02a87.866,87.866,0,0,0-85.376-87.829v6.308a24.864,24.864,0,0,1,20.831,17.627h-.38A64.9,64.9,0,0,0,3506.7,1251.677Z" transform="translate(625.213 184.063)"/><path class="dotted-quote" d="M3407.769,1251.677a64.9,64.9,0,1,0,129.788,1.644c.006-.549.006-1.1,0-1.644v-1.02a87.868,87.868,0,0,0-85.377-87.829v6.308a24.864,24.864,0,0,1,20.831,17.627h-.38A64.9,64.9,0,0,0,3407.769,1251.677Z" transform="translate(564.946 184.063)"/><path class="dotted-quote" d="M3308.833,1251.677a64.9,64.9,0,1,0,129.788,1.644c.006-.549.006-1.1,0-1.644v-1.02a87.868,87.868,0,0,0-85.377-87.829v6.308a24.864,24.864,0,0,1,20.831,17.627h-.38A64.9,64.9,0,0,0,3308.833,1251.677Z" transform="translate(504.678 184.063)"/><path class="dotted-quote" d="M3209.9,1251.677a64.9,64.9,0,1,0,129.788,1.644c.008-.549.008-1.1,0-1.644v-1.02a87.868,87.868,0,0,0-85.377-87.829v6.308a24.864,24.864,0,0,1,20.831,17.627h-.38A64.9,64.9,0,0,0,3209.9,1251.677Z" transform="translate(444.41 184.063)"/><path class="dotted-quote" d="M3110.962,1251.677a64.9,64.9,0,1,0,129.788,1.644c.007-.549.007-1.1,0-1.644v-1.02a87.867,87.867,0,0,0-85.376-87.829v6.308a24.866,24.866,0,0,1,20.83,17.627h-.379A64.9,64.9,0,0,0,3110.962,1251.677Z" transform="translate(384.143 184.063)"/><path class="dotted-quote" d="M3012.026,1251.677a64.9,64.9,0,1,0,129.788,1.644c.007-.549.007-1.1,0-1.644v-1.02a87.867,87.867,0,0,0-85.377-87.829v6.308a24.864,24.864,0,0,1,20.831,17.627h-.38A64.9,64.9,0,0,0,3012.026,1251.677Z" transform="translate(323.876 184.063)"/><path class="dotted-quote" d="M2913.09,1251.677a64.9,64.9,0,1,0,129.788,1.644c.008-.549.008-1.1,0-1.644v-1.02a87.867,87.867,0,0,0-85.377-87.829v6.308a24.864,24.864,0,0,1,20.831,17.627h-.38A64.9,64.9,0,0,0,2913.09,1251.677Z" transform="translate(263.608 184.063)"/><path class="dotted-quote" d="M2814.154,1251.677a64.9,64.9,0,0,0,129.79,1.644c.006-.549.006-1.1,0-1.644v-1.02a87.868,87.868,0,0,0-85.377-87.829v6.308a24.863,24.863,0,0,1,20.829,17.627h-.378A64.9,64.9,0,0,0,2814.154,1251.677Z" transform="translate(203.341 184.063)"/><path class="dotted-quote" d="M2715.219,1251.677a64.9,64.9,0,1,0,129.788,1.644c.006-.549.006-1.1,0-1.644v-1.02a87.868,87.868,0,0,0-85.377-87.829v6.308a24.864,24.864,0,0,1,20.831,17.627h-.38A64.9,64.9,0,0,0,2715.219,1251.677Z" transform="translate(143.074 184.063)"/><path class="dotted-quote" d="M2616.283,1251.677a64.9,64.9,0,1,0,129.788,1.644c.008-.549.008-1.1,0-1.644v-1.02a87.868,87.868,0,0,0-85.377-87.829v6.308a24.864,24.864,0,0,1,20.831,17.627h-.38A64.9,64.9,0,0,0,2616.283,1251.677Z" transform="translate(82.806 184.063)"/><path class="dotted-quote" d="M2517.347,1251.677a64.9,64.9,0,1,0,129.788,1.644c.008-.549.008-1.1,0-1.644v-1.02a87.867,87.867,0,0,0-85.375-87.829v6.308a24.862,24.862,0,0,1,20.829,17.627h-.378A64.9,64.9,0,0,0,2517.347,1251.677Z" transform="translate(22.538 184.063)"/><path class="dotted-quote" d="M2610.135,1340.5a64.9,64.9,0,1,0-129.789-1.645q-.01.82,0,1.645v1.02a87.865,87.865,0,0,0,85.377,87.828v-6.308a24.86,24.86,0,0,1-20.829-17.625h.378A64.9,64.9,0,0,0,2610.135,1340.5Z" transform="translate(0 252.258)"/><path class="dotted-quote" d="M2709.071,1340.5a64.9,64.9,0,1,0-129.789-1.645q-.01.82,0,1.645v1.02a87.866,87.866,0,0,0,85.377,87.828v-6.308a24.862,24.862,0,0,1-20.83-17.625h.379A64.9,64.9,0,0,0,2709.071,1340.5Z" transform="translate(60.268 252.258)"/><path class="dotted-quote" d="M2808.008,1340.5a64.9,64.9,0,0,0-129.789-1.645q-.012.82,0,1.645v1.02a87.866,87.866,0,0,0,85.377,87.828v-6.308a24.862,24.862,0,0,1-20.83-17.625h.379A64.9,64.9,0,0,0,2808.008,1340.5Z" transform="translate(120.534 252.258)"/><path class="dotted-quote" d="M2906.944,1340.5a64.9,64.9,0,0,0-129.789-1.645q-.012.82,0,1.645v1.02a87.864,87.864,0,0,0,85.375,87.828v-6.308a24.86,24.86,0,0,1-20.829-17.625h.378A64.9,64.9,0,0,0,2906.944,1340.5Z" transform="translate(180.802 252.258)"/><path class="dotted-quote" d="M3005.878,1340.5a64.9,64.9,0,1,0-129.788-1.645q-.01.82,0,1.645v1.02a87.866,87.866,0,0,0,85.377,87.828v-6.308a24.863,24.863,0,0,1-20.831-17.625h.38A64.9,64.9,0,0,0,3005.878,1340.5Z" transform="translate(241.07 252.258)"/><path class="dotted-quote" d="M3104.814,1340.5a64.9,64.9,0,1,0-129.788-1.645q-.012.82,0,1.645v1.02a87.865,87.865,0,0,0,85.377,87.828v-6.308a24.863,24.863,0,0,1-20.831-17.625h.38A64.9,64.9,0,0,0,3104.814,1340.5Z" transform="translate(301.337 252.258)"/><path class="dotted-quote" d="M3203.75,1340.5a64.9,64.9,0,1,0-129.788-1.645q-.012.82,0,1.645v1.02a87.864,87.864,0,0,0,85.377,87.828v-6.308a24.86,24.86,0,0,1-20.831-17.625h.378A64.9,64.9,0,0,0,3203.75,1340.5Z" transform="translate(361.604 252.258)"/><path class="dotted-quote" d="M3302.685,1340.5a64.9,64.9,0,1,0-129.788-1.645q-.01.82,0,1.645v1.02a87.865,87.865,0,0,0,85.376,87.828v-6.308a24.862,24.862,0,0,1-20.83-17.625h.379A64.9,64.9,0,0,0,3302.685,1340.5Z" transform="translate(421.872 252.258)"/><path class="dotted-quote" d="M3401.621,1340.5a64.9,64.9,0,1,0-129.788-1.645q-.01.82,0,1.645v1.02a87.865,87.865,0,0,0,85.376,87.828v-6.308a24.862,24.862,0,0,1-20.83-17.625h.379A64.9,64.9,0,0,0,3401.621,1340.5Z" transform="translate(482.139 252.258)"/><path class="dotted-quote" d="M3500.558,1340.5a64.9,64.9,0,1,0-129.788-1.645q-.012.82,0,1.645v1.02a87.864,87.864,0,0,0,85.376,87.828v-6.308a24.863,24.863,0,0,1-20.831-17.625h.38A64.9,64.9,0,0,0,3500.558,1340.5Z" transform="translate(542.407 252.258)"/><path class="dotted-quote" d="M3599.492,1340.5a64.9,64.9,0,1,0-129.788-1.645q-.01.82,0,1.645v1.02a87.865,87.865,0,0,0,85.377,87.828v-6.308a24.865,24.865,0,0,1-20.831-17.625h.38A64.9,64.9,0,0,0,3599.492,1340.5Z" transform="translate(602.674 252.258)"/><path class="dotted-quote" d="M3698.428,1340.5a64.9,64.9,0,1,0-129.788-1.645q-.01.82,0,1.645v1.02a87.865,87.865,0,0,0,85.377,87.828v-6.308a24.863,24.863,0,0,1-20.831-17.625h.38A64.9,64.9,0,0,0,3698.428,1340.5Z" transform="translate(662.942 252.258)"/><path class="dotted-quote" d="M3605.64,1458.732a64.9,64.9,0,0,0,129.788,1.645q.012-.823,0-1.645v-1.02a87.867,87.867,0,0,0-85.376-87.83v6.308a24.863,24.863,0,0,1,20.83,17.625h-.379A64.9,64.9,0,0,0,3605.64,1458.732Z" transform="translate(685.48 310.192)"/><path class="dotted-quote" d="M3506.7,1458.732a64.9,64.9,0,0,0,129.788,1.645q.012-.823,0-1.645v-1.02a87.866,87.866,0,0,0-85.376-87.83v6.308a24.865,24.865,0,0,1,20.831,17.625h-.38A64.9,64.9,0,0,0,3506.7,1458.732Z" transform="translate(625.213 310.192)"/><path class="dotted-quote" d="M3407.769,1458.732a64.9,64.9,0,0,0,129.788,1.645q.01-.823,0-1.645v-1.02a87.867,87.867,0,0,0-85.377-87.83v6.308a24.865,24.865,0,0,1,20.831,17.625h-.38A64.9,64.9,0,0,0,3407.769,1458.732Z" transform="translate(564.946 310.192)"/><path class="dotted-quote" d="M3308.833,1458.732a64.9,64.9,0,0,0,129.788,1.645q.01-.823,0-1.645v-1.02a87.867,87.867,0,0,0-85.377-87.83v6.308a24.865,24.865,0,0,1,20.831,17.625h-.38A64.9,64.9,0,0,0,3308.833,1458.732Z" transform="translate(504.678 310.192)"/><path class="dotted-quote" d="M3209.9,1458.732a64.9,64.9,0,0,0,129.788,1.645q.012-.823,0-1.645v-1.02a87.867,87.867,0,0,0-85.377-87.83v6.308a24.865,24.865,0,0,1,20.831,17.625h-.38A64.9,64.9,0,0,0,3209.9,1458.732Z" transform="translate(444.41 310.192)"/><path class="dotted-quote" d="M3110.962,1458.732a64.9,64.9,0,0,0,129.788,1.645q.01-.823,0-1.645v-1.02a87.867,87.867,0,0,0-85.376-87.83v6.308a24.866,24.866,0,0,1,20.83,17.625h-.379A64.9,64.9,0,0,0,3110.962,1458.732Z" transform="translate(384.143 310.192)"/><path class="dotted-quote" d="M3012.026,1458.732a64.9,64.9,0,0,0,129.788,1.645q.01-.823,0-1.645v-1.02a87.867,87.867,0,0,0-85.377-87.83v6.308a24.865,24.865,0,0,1,20.831,17.625h-.38A64.9,64.9,0,0,0,3012.026,1458.732Z" transform="translate(323.876 310.192)"/><path class="dotted-quote" d="M2913.09,1458.732a64.9,64.9,0,0,0,129.788,1.645q.012-.823,0-1.645v-1.02a87.867,87.867,0,0,0-85.377-87.83v6.308a24.865,24.865,0,0,1,20.831,17.625h-.38A64.9,64.9,0,0,0,2913.09,1458.732Z" transform="translate(263.608 310.192)"/><path class="dotted-quote" d="M2814.154,1458.732a64.9,64.9,0,0,0,129.79,1.645q.01-.823,0-1.645v-1.02a87.867,87.867,0,0,0-85.377-87.83v6.308a24.863,24.863,0,0,1,20.829,17.625h-.378A64.9,64.9,0,0,0,2814.154,1458.732Z" transform="translate(203.341 310.192)"/><path class="dotted-quote" d="M2715.219,1458.732a64.9,64.9,0,0,0,129.788,1.645q.01-.823,0-1.645v-1.02a87.867,87.867,0,0,0-85.377-87.83v6.308a24.865,24.865,0,0,1,20.831,17.625h-.38A64.9,64.9,0,0,0,2715.219,1458.732Z" transform="translate(143.074 310.192)"/><path class="dotted-quote" d="M2616.283,1458.732a64.9,64.9,0,1,0,129.788,1.645q.012-.823,0-1.645v-1.02a87.867,87.867,0,0,0-85.377-87.83v6.308a24.865,24.865,0,0,1,20.831,17.625h-.38A64.9,64.9,0,0,0,2616.283,1458.732Z" transform="translate(82.806 310.192)"/><path class="dotted-quote" d="M2517.347,1458.732a64.9,64.9,0,0,0,129.788,1.645q.012-.823,0-1.645v-1.02a87.866,87.866,0,0,0-85.375-87.83v6.308a24.862,24.862,0,0,1,20.829,17.625h-.378A64.9,64.9,0,0,0,2517.347,1458.732Z" transform="translate(22.538 310.192)"/><path class="dotted-quote" d="M2610.135,1547.552a64.9,64.9,0,1,0-129.789-1.645q-.01.823,0,1.645v1.02a87.867,87.867,0,0,0,85.377,87.829v-6.308a24.862,24.862,0,0,1-20.829-17.625h.378A64.9,64.9,0,0,0,2610.135,1547.552Z" transform="translate(0 378.387)"/><path class="dotted-quote" d="M2709.071,1547.552a64.9,64.9,0,1,0-129.789-1.645q-.01.823,0,1.645v1.02a87.867,87.867,0,0,0,85.377,87.829v-6.308a24.864,24.864,0,0,1-20.83-17.625h.379A64.9,64.9,0,0,0,2709.071,1547.552Z" transform="translate(60.268 378.387)"/><path class="dotted-quote" d="M2808.008,1547.552a64.9,64.9,0,0,0-129.789-1.645q-.012.823,0,1.645v1.02A87.867,87.867,0,0,0,2763.6,1636.4v-6.308a24.864,24.864,0,0,1-20.83-17.625h.379A64.9,64.9,0,0,0,2808.008,1547.552Z" transform="translate(120.534 378.387)"/><path class="dotted-quote" d="M2906.944,1547.552a64.9,64.9,0,0,0-129.789-1.645q-.012.823,0,1.645v1.02a87.865,87.865,0,0,0,85.375,87.829v-6.308a24.862,24.862,0,0,1-20.829-17.625h.378A64.9,64.9,0,0,0,2906.944,1547.552Z" transform="translate(180.802 378.387)"/><path class="dotted-quote" d="M3005.878,1547.552a64.9,64.9,0,1,0-129.788-1.645q-.01.823,0,1.645v1.02a87.867,87.867,0,0,0,85.377,87.829v-6.308a24.865,24.865,0,0,1-20.831-17.625h.38A64.9,64.9,0,0,0,3005.878,1547.552Z" transform="translate(241.07 378.387)"/><path class="dotted-quote" d="M3104.814,1547.552a64.9,64.9,0,1,0-129.788-1.645q-.012.823,0,1.645v1.02A87.866,87.866,0,0,0,3060.4,1636.4v-6.308a24.865,24.865,0,0,1-20.831-17.625h.38A64.9,64.9,0,0,0,3104.814,1547.552Z" transform="translate(301.337 378.387)"/><path class="dotted-quote" d="M3203.75,1547.552a64.9,64.9,0,1,0-129.788-1.645q-.012.823,0,1.645v1.02a87.865,87.865,0,0,0,85.377,87.829v-6.308a24.863,24.863,0,0,1-20.831-17.625h.378A64.9,64.9,0,0,0,3203.75,1547.552Z" transform="translate(361.604 378.387)"/><path class="dotted-quote" d="M3302.685,1547.552a64.9,64.9,0,1,0-129.788-1.645q-.01.823,0,1.645v1.02a87.866,87.866,0,0,0,85.376,87.829v-6.308a24.864,24.864,0,0,1-20.83-17.625h.379A64.9,64.9,0,0,0,3302.685,1547.552Z" transform="translate(421.872 378.387)"/><path class="dotted-quote" d="M3401.621,1547.552a64.9,64.9,0,1,0-129.788-1.645q-.01.823,0,1.645v1.02a87.866,87.866,0,0,0,85.376,87.829v-6.308a24.864,24.864,0,0,1-20.83-17.625h.379A64.9,64.9,0,0,0,3401.621,1547.552Z" transform="translate(482.139 378.387)"/><path class="dotted-quote" d="M3500.558,1547.552a64.9,64.9,0,1,0-129.788-1.645q-.012.823,0,1.645v1.02a87.865,87.865,0,0,0,85.376,87.829v-6.308a24.865,24.865,0,0,1-20.831-17.625h.38A64.9,64.9,0,0,0,3500.558,1547.552Z" transform="translate(542.407 378.387)"/><path class="dotted-quote" d="M3599.492,1547.552a64.9,64.9,0,1,0-129.788-1.645q-.01.823,0,1.645v1.02a87.866,87.866,0,0,0,85.377,87.829v-6.308a24.867,24.867,0,0,1-20.831-17.625h.38A64.9,64.9,0,0,0,3599.492,1547.552Z" transform="translate(602.674 378.387)"/><path class="dotted-quote" d="M3698.428,1547.552a64.9,64.9,0,1,0-129.788-1.645q-.01.823,0,1.645v1.02a87.866,87.866,0,0,0,85.377,87.829v-6.308a24.865,24.865,0,0,1-20.831-17.625h.38A64.9,64.9,0,0,0,3698.428,1547.552Z" transform="translate(662.942 378.387)"/><path class="dotted-quote" d="M3605.64,1665.785a64.9,64.9,0,0,0,129.788,1.646q.012-.823,0-1.646v-1.02a87.865,87.865,0,0,0-85.376-87.828v6.308a24.861,24.861,0,0,1,20.83,17.625h-.379A64.9,64.9,0,0,0,3605.64,1665.785Z" transform="translate(685.48 436.321)"/><path class="dotted-quote" d="M3506.7,1665.785a64.9,64.9,0,0,0,129.788,1.646q.012-.823,0-1.646v-1.02a87.864,87.864,0,0,0-85.376-87.828v6.308a24.862,24.862,0,0,1,20.831,17.625h-.38A64.9,64.9,0,0,0,3506.7,1665.785Z" transform="translate(625.213 436.321)"/><path class="dotted-quote" d="M3407.769,1665.785a64.9,64.9,0,0,0,129.788,1.646q.01-.823,0-1.646v-1.02a87.865,87.865,0,0,0-85.377-87.828v6.308a24.862,24.862,0,0,1,20.831,17.625h-.38A64.9,64.9,0,0,0,3407.769,1665.785Z" transform="translate(564.946 436.321)"/><path class="dotted-quote" d="M3308.833,1665.785a64.9,64.9,0,0,0,129.788,1.646q.01-.823,0-1.646v-1.02a87.865,87.865,0,0,0-85.377-87.828v6.308a24.862,24.862,0,0,1,20.831,17.625h-.38A64.9,64.9,0,0,0,3308.833,1665.785Z" transform="translate(504.678 436.321)"/><path class="dotted-quote" d="M3209.9,1665.785a64.9,64.9,0,0,0,129.788,1.646q.012-.823,0-1.646v-1.02a87.865,87.865,0,0,0-85.377-87.828v6.308a24.862,24.862,0,0,1,20.831,17.625h-.38A64.9,64.9,0,0,0,3209.9,1665.785Z" transform="translate(444.41 436.321)"/><path class="dotted-quote" d="M3110.962,1665.785a64.9,64.9,0,0,0,129.788,1.646q.01-.823,0-1.646v-1.02a87.865,87.865,0,0,0-85.376-87.828v6.308a24.864,24.864,0,0,1,20.83,17.625h-.379A64.9,64.9,0,0,0,3110.962,1665.785Z" transform="translate(384.143 436.321)"/><path class="dotted-quote" d="M3012.026,1665.785a64.9,64.9,0,0,0,129.788,1.646q.01-.823,0-1.646v-1.02a87.865,87.865,0,0,0-85.377-87.828v6.308a24.862,24.862,0,0,1,20.831,17.625h-.38A64.9,64.9,0,0,0,3012.026,1665.785Z" transform="translate(323.876 436.321)"/><path class="dotted-quote" d="M2913.09,1665.785a64.9,64.9,0,0,0,129.788,1.646q.012-.823,0-1.646v-1.02a87.865,87.865,0,0,0-85.377-87.828v6.308a24.862,24.862,0,0,1,20.831,17.625h-.38A64.9,64.9,0,0,0,2913.09,1665.785Z" transform="translate(263.608 436.321)"/><path class="dotted-quote" d="M2814.154,1665.785a64.9,64.9,0,0,0,129.79,1.646q.01-.823,0-1.646v-1.02a87.865,87.865,0,0,0-85.377-87.828v6.308a24.861,24.861,0,0,1,20.829,17.625h-.378A64.9,64.9,0,0,0,2814.154,1665.785Z" transform="translate(203.341 436.321)"/><path class="dotted-quote" d="M2715.219,1665.785a64.9,64.9,0,0,0,129.788,1.646q.01-.823,0-1.646v-1.02a87.865,87.865,0,0,0-85.377-87.828v6.308a24.862,24.862,0,0,1,20.831,17.625h-.38A64.9,64.9,0,0,0,2715.219,1665.785Z" transform="translate(143.074 436.321)"/><path class="dotted-quote" d="M2616.283,1665.785a64.9,64.9,0,0,0,129.788,1.646q.012-.823,0-1.646v-1.02a87.865,87.865,0,0,0-85.377-87.828v6.308a24.862,24.862,0,0,1,20.831,17.625h-.38A64.9,64.9,0,0,0,2616.283,1665.785Z" transform="translate(82.806 436.321)"/><path class="dotted-quote" d="M2517.347,1665.785a64.9,64.9,0,0,0,129.788,1.646q.012-.823,0-1.646v-1.02a87.864,87.864,0,0,0-85.375-87.828v6.308a24.86,24.86,0,0,1,20.829,17.625h-.378A64.9,64.9,0,0,0,2517.347,1665.785Z" transform="translate(22.538 436.321)"/><path class="dotted-quote" d="M2610.135,1754.607a64.9,64.9,0,0,0-129.789-1.645q-.01.823,0,1.645v1.02a87.868,87.868,0,0,0,85.377,87.829v-6.308a24.861,24.861,0,0,1-20.829-17.627h.378A64.9,64.9,0,0,0,2610.135,1754.607Z" transform="translate(0 504.516)"/><path class="dotted-quote" d="M2709.071,1754.607a64.9,64.9,0,0,0-129.789-1.645q-.01.823,0,1.645v1.02a87.868,87.868,0,0,0,85.377,87.829v-6.308a24.862,24.862,0,0,1-20.83-17.627h.379A64.9,64.9,0,0,0,2709.071,1754.607Z" transform="translate(60.268 504.516)"/><path class="dotted-quote" d="M2808.008,1754.607a64.9,64.9,0,0,0-129.789-1.645q-.012.823,0,1.645v1.02a87.868,87.868,0,0,0,85.377,87.829v-6.308a24.862,24.862,0,0,1-20.83-17.627h.379A64.9,64.9,0,0,0,2808.008,1754.607Z" transform="translate(120.534 504.516)"/><path class="dotted-quote" d="M2906.944,1754.607a64.9,64.9,0,0,0-129.789-1.645q-.012.823,0,1.645v1.02a87.867,87.867,0,0,0,85.375,87.829v-6.308a24.861,24.861,0,0,1-20.829-17.627h.378A64.9,64.9,0,0,0,2906.944,1754.607Z" transform="translate(180.802 504.516)"/><path class="dotted-quote" d="M3005.878,1754.607a64.9,64.9,0,1,0-129.788-1.645q-.01.823,0,1.645v1.02a87.868,87.868,0,0,0,85.377,87.829v-6.308a24.864,24.864,0,0,1-20.831-17.627h.38A64.9,64.9,0,0,0,3005.878,1754.607Z" transform="translate(241.07 504.516)"/><path class="dotted-quote" d="M3104.814,1754.607a64.9,64.9,0,1,0-129.788-1.645q-.012.823,0,1.645v1.02a87.868,87.868,0,0,0,85.377,87.829v-6.308a24.864,24.864,0,0,1-20.831-17.627h.38A64.9,64.9,0,0,0,3104.814,1754.607Z" transform="translate(301.337 504.516)"/><path class="dotted-quote" d="M3203.75,1754.607a64.9,64.9,0,1,0-129.788-1.645q-.012.823,0,1.645v1.02a87.867,87.867,0,0,0,85.377,87.829v-6.308a24.861,24.861,0,0,1-20.831-17.627h.378A64.9,64.9,0,0,0,3203.75,1754.607Z" transform="translate(361.604 504.516)"/><path class="dotted-quote" d="M3302.685,1754.607a64.9,64.9,0,0,0-129.788-1.645q-.01.823,0,1.645v1.02a87.868,87.868,0,0,0,85.376,87.829v-6.308a24.863,24.863,0,0,1-20.83-17.627h.379A64.9,64.9,0,0,0,3302.685,1754.607Z" transform="translate(421.872 504.516)"/><path class="dotted-quote" d="M3401.621,1754.607a64.9,64.9,0,0,0-129.788-1.645q-.01.823,0,1.645v1.02a87.868,87.868,0,0,0,85.376,87.829v-6.308a24.862,24.862,0,0,1-20.83-17.627h.379A64.9,64.9,0,0,0,3401.621,1754.607Z" transform="translate(482.139 504.516)"/><path class="dotted-quote" d="M3500.558,1754.607a64.9,64.9,0,0,0-129.788-1.645q-.012.823,0,1.645v1.02a87.867,87.867,0,0,0,85.376,87.829v-6.308a24.864,24.864,0,0,1-20.831-17.627h.38A64.9,64.9,0,0,0,3500.558,1754.607Z" transform="translate(542.407 504.516)"/><path class="dotted-quote" d="M3599.492,1754.607a64.9,64.9,0,1,0-129.788-1.645q-.01.823,0,1.645v1.02a87.868,87.868,0,0,0,85.377,87.829v-6.308a24.865,24.865,0,0,1-20.831-17.627h.38A64.9,64.9,0,0,0,3599.492,1754.607Z" transform="translate(602.674 504.516)"/><path class="dotted-quote" d="M3698.428,1754.607a64.9,64.9,0,1,0-129.788-1.645q-.01.823,0,1.645v1.02a87.868,87.868,0,0,0,85.377,87.829v-6.308a24.864,24.864,0,0,1-20.831-17.627h.38A64.9,64.9,0,0,0,3698.428,1754.607Z" transform="translate(662.942 504.516)"/><path class="dotted-quote" d="M3605.64,1872.84a64.9,64.9,0,1,0,129.788,1.645q.012-.821,0-1.645v-1.02a87.865,87.865,0,0,0-85.376-87.828v6.308a24.861,24.861,0,0,1,20.83,17.625h-.379A64.9,64.9,0,0,0,3605.64,1872.84Z" transform="translate(685.48 562.451)"/><path class="dotted-quote" d="M3506.7,1872.84a64.9,64.9,0,1,0,129.788,1.645q.012-.821,0-1.645v-1.02a87.864,87.864,0,0,0-85.376-87.828v6.308a24.863,24.863,0,0,1,20.831,17.625h-.38A64.9,64.9,0,0,0,3506.7,1872.84Z" transform="translate(625.213 562.451)"/><path class="dotted-quote" d="M3407.769,1872.84a64.9,64.9,0,1,0,129.788,1.645q.01-.821,0-1.645v-1.02a87.865,87.865,0,0,0-85.377-87.828v6.308a24.863,24.863,0,0,1,20.831,17.625h-.38A64.9,64.9,0,0,0,3407.769,1872.84Z" transform="translate(564.946 562.451)"/><path class="dotted-quote" d="M3308.833,1872.84a64.9,64.9,0,1,0,129.788,1.645q.01-.821,0-1.645v-1.02a87.865,87.865,0,0,0-85.377-87.828v6.308a24.863,24.863,0,0,1,20.831,17.625h-.38A64.9,64.9,0,0,0,3308.833,1872.84Z" transform="translate(504.678 562.451)"/><path class="dotted-quote" d="M3209.9,1872.84a64.9,64.9,0,1,0,129.788,1.645q.012-.821,0-1.645v-1.02a87.865,87.865,0,0,0-85.377-87.828v6.308a24.863,24.863,0,0,1,20.831,17.625h-.38A64.9,64.9,0,0,0,3209.9,1872.84Z" transform="translate(444.41 562.451)"/><path class="dotted-quote" d="M3110.962,1872.84a64.9,64.9,0,1,0,129.788,1.645q.01-.821,0-1.645v-1.02a87.865,87.865,0,0,0-85.376-87.828v6.308a24.864,24.864,0,0,1,20.83,17.625h-.379A64.9,64.9,0,0,0,3110.962,1872.84Z" transform="translate(384.143 562.451)"/><path class="dotted-quote" d="M3012.026,1872.84a64.9,64.9,0,1,0,129.788,1.645q.01-.821,0-1.645v-1.02a87.865,87.865,0,0,0-85.377-87.828v6.308a24.863,24.863,0,0,1,20.831,17.625h-.38A64.9,64.9,0,0,0,3012.026,1872.84Z" transform="translate(323.876 562.451)"/><path class="dotted-quote" d="M2913.09,1872.84a64.9,64.9,0,1,0,129.788,1.645q.012-.821,0-1.645v-1.02a87.865,87.865,0,0,0-85.377-87.828v6.308a24.863,24.863,0,0,1,20.831,17.625h-.38A64.9,64.9,0,0,0,2913.09,1872.84Z" transform="translate(263.608 562.451)"/><path class="dotted-quote" d="M2814.154,1872.84a64.9,64.9,0,0,0,129.79,1.645q.01-.821,0-1.645v-1.02a87.865,87.865,0,0,0-85.377-87.828v6.308a24.861,24.861,0,0,1,20.829,17.625h-.378A64.9,64.9,0,0,0,2814.154,1872.84Z" transform="translate(203.341 562.451)"/><path class="dotted-quote" d="M2715.219,1872.84a64.9,64.9,0,1,0,129.788,1.645q.01-.821,0-1.645v-1.02a87.865,87.865,0,0,0-85.377-87.828v6.308a24.863,24.863,0,0,1,20.831,17.625h-.38A64.9,64.9,0,0,0,2715.219,1872.84Z" transform="translate(143.074 562.451)"/><path class="dotted-quote" d="M2616.283,1872.84a64.9,64.9,0,1,0,129.788,1.645q.012-.821,0-1.645v-1.02a87.865,87.865,0,0,0-85.377-87.828v6.308a24.863,24.863,0,0,1,20.831,17.625h-.38A64.9,64.9,0,0,0,2616.283,1872.84Z" transform="translate(82.806 562.451)"/><path class="dotted-quote" d="M2517.347,1872.84a64.9,64.9,0,1,0,129.788,1.645q.012-.821,0-1.645v-1.02a87.864,87.864,0,0,0-85.375-87.828v6.308a24.86,24.86,0,0,1,20.829,17.625h-.378A64.9,64.9,0,0,0,2517.347,1872.84Z" transform="translate(22.538 562.451)"/><path class="dotted-quote" d="M2610.135,1961.662a64.9,64.9,0,0,0-129.789-1.645c-.006.549-.006,1.1,0,1.645v1.02a87.865,87.865,0,0,0,85.377,87.828V2044.2a24.859,24.859,0,0,1-20.829-17.625h.378A64.9,64.9,0,0,0,2610.135,1961.662Z" transform="translate(0 630.645)"/><path class="dotted-quote" d="M2709.071,1961.662a64.9,64.9,0,0,0-129.789-1.645c-.006.549-.006,1.1,0,1.645v1.02a87.865,87.865,0,0,0,85.377,87.828V2044.2a24.861,24.861,0,0,1-20.83-17.625h.379A64.9,64.9,0,0,0,2709.071,1961.662Z" transform="translate(60.268 630.645)"/><path class="dotted-quote" d="M2808.008,1961.662a64.9,64.9,0,0,0-129.789-1.645c-.008.549-.008,1.1,0,1.645v1.02a87.865,87.865,0,0,0,85.377,87.828V2044.2a24.861,24.861,0,0,1-20.83-17.625h.379A64.9,64.9,0,0,0,2808.008,1961.662Z" transform="translate(120.534 630.645)"/><path class="dotted-quote" d="M2906.944,1961.662a64.9,64.9,0,0,0-129.789-1.645c-.008.549-.008,1.1,0,1.645v1.02a87.864,87.864,0,0,0,85.375,87.828V2044.2a24.86,24.86,0,0,1-20.829-17.625h.378A64.9,64.9,0,0,0,2906.944,1961.662Z" transform="translate(180.802 630.645)"/><path class="dotted-quote" d="M3005.878,1961.662a64.9,64.9,0,1,0-129.788-1.645c-.006.549-.006,1.1,0,1.645v1.02a87.865,87.865,0,0,0,85.377,87.828V2044.2a24.863,24.863,0,0,1-20.831-17.625h.38A64.9,64.9,0,0,0,3005.878,1961.662Z" transform="translate(241.07 630.645)"/><path class="dotted-quote" d="M3104.814,1961.662a64.9,64.9,0,1,0-129.788-1.645c-.008.549-.008,1.1,0,1.645v1.02a87.865,87.865,0,0,0,85.377,87.828V2044.2a24.863,24.863,0,0,1-20.831-17.625h.38A64.9,64.9,0,0,0,3104.814,1961.662Z" transform="translate(301.337 630.645)"/><path class="dotted-quote" d="M3203.75,1961.662a64.9,64.9,0,1,0-129.788-1.645c-.008.549-.008,1.1,0,1.645v1.02a87.864,87.864,0,0,0,85.377,87.828V2044.2a24.86,24.86,0,0,1-20.831-17.625h.378A64.9,64.9,0,0,0,3203.75,1961.662Z" transform="translate(361.604 630.645)"/><path class="dotted-quote" d="M3302.685,1961.662a64.9,64.9,0,0,0-129.788-1.645c-.006.549-.006,1.1,0,1.645v1.02a87.865,87.865,0,0,0,85.376,87.828V2044.2a24.862,24.862,0,0,1-20.83-17.625h.379A64.9,64.9,0,0,0,3302.685,1961.662Z" transform="translate(421.872 630.645)"/><path class="dotted-quote" d="M3401.621,1961.662a64.9,64.9,0,0,0-129.788-1.645c-.007.549-.007,1.1,0,1.645v1.02a87.865,87.865,0,0,0,85.376,87.828V2044.2a24.861,24.861,0,0,1-20.83-17.625h.379A64.9,64.9,0,0,0,3401.621,1961.662Z" transform="translate(482.139 630.645)"/><path class="dotted-quote" d="M3500.558,1961.662a64.9,64.9,0,0,0-129.788-1.645c-.008.549-.008,1.1,0,1.645v1.02a87.864,87.864,0,0,0,85.376,87.828V2044.2a24.863,24.863,0,0,1-20.831-17.625h.38A64.9,64.9,0,0,0,3500.558,1961.662Z" transform="translate(542.407 630.645)"/><path class="dotted-quote" d="M3599.492,1961.662a64.9,64.9,0,1,0-129.788-1.645c-.006.549-.006,1.1,0,1.645v1.02a87.865,87.865,0,0,0,85.377,87.828V2044.2a24.864,24.864,0,0,1-20.831-17.625h.38A64.9,64.9,0,0,0,3599.492,1961.662Z" transform="translate(602.674 630.645)"/><path class="dotted-quote" d="M3698.428,1961.662a64.9,64.9,0,1,0-129.788-1.645c-.006.549-.006,1.1,0,1.645v1.02a87.865,87.865,0,0,0,85.377,87.828V2044.2a24.863,24.863,0,0,1-20.831-17.625h.38A64.9,64.9,0,0,0,3698.428,1961.662Z" transform="translate(662.942 630.645)"/><path class="dotted-quote" d="M3605.64,2079.9a64.9,64.9,0,1,0,129.788,1.645c.008-.549.008-1.1,0-1.645v-1.02a87.868,87.868,0,0,0-85.376-87.829v6.308a24.863,24.863,0,0,1,20.83,17.627h-.379A64.9,64.9,0,0,0,3605.64,2079.9Z" transform="translate(685.48 688.579)"/><path class="dotted-quote" d="M3506.7,2079.9a64.9,64.9,0,1,0,129.788,1.645c.008-.549.008-1.1,0-1.645v-1.02a87.867,87.867,0,0,0-85.376-87.829v6.308a24.864,24.864,0,0,1,20.831,17.627h-.38A64.9,64.9,0,0,0,3506.7,2079.9Z" transform="translate(625.213 688.579)"/><path class="dotted-quote" d="M3407.769,2079.9a64.9,64.9,0,1,0,129.788,1.645c.006-.549.006-1.1,0-1.645v-1.02a87.868,87.868,0,0,0-85.377-87.829v6.308a24.864,24.864,0,0,1,20.831,17.627h-.38A64.9,64.9,0,0,0,3407.769,2079.9Z" transform="translate(564.946 688.579)"/><path class="dotted-quote" d="M3308.833,2079.9a64.9,64.9,0,1,0,129.788,1.645c.006-.549.006-1.1,0-1.645v-1.02a87.868,87.868,0,0,0-85.377-87.829v6.308a24.864,24.864,0,0,1,20.831,17.627h-.38A64.9,64.9,0,0,0,3308.833,2079.9Z" transform="translate(504.678 688.579)"/><path class="dotted-quote" d="M3209.9,2079.9a64.9,64.9,0,1,0,129.788,1.645c.008-.549.008-1.1,0-1.645v-1.02a87.868,87.868,0,0,0-85.377-87.829v6.308a24.864,24.864,0,0,1,20.831,17.627h-.38A64.9,64.9,0,0,0,3209.9,2079.9Z" transform="translate(444.41 688.579)"/><path class="dotted-quote" d="M3110.962,2079.9a64.9,64.9,0,1,0,129.788,1.645c.007-.549.007-1.1,0-1.645v-1.02a87.868,87.868,0,0,0-85.376-87.829v6.308a24.866,24.866,0,0,1,20.83,17.627h-.379A64.9,64.9,0,0,0,3110.962,2079.9Z" transform="translate(384.143 688.579)"/><path class="dotted-quote" d="M3012.026,2079.9a64.9,64.9,0,1,0,129.788,1.645c.007-.549.007-1.1,0-1.645v-1.02a87.868,87.868,0,0,0-85.377-87.829v6.308a24.864,24.864,0,0,1,20.831,17.627h-.38A64.9,64.9,0,0,0,3012.026,2079.9Z" transform="translate(323.876 688.579)"/><path class="dotted-quote" d="M2913.09,2079.9a64.9,64.9,0,1,0,129.788,1.645c.008-.549.008-1.1,0-1.645v-1.02a87.868,87.868,0,0,0-85.377-87.829v6.308a24.864,24.864,0,0,1,20.831,17.627h-.38A64.9,64.9,0,0,0,2913.09,2079.9Z" transform="translate(263.608 688.579)"/><path class="dotted-quote" d="M2814.154,2079.9a64.9,64.9,0,0,0,129.79,1.645c.006-.549.006-1.1,0-1.645v-1.02a87.868,87.868,0,0,0-85.377-87.829v6.308a24.863,24.863,0,0,1,20.829,17.627h-.378A64.9,64.9,0,0,0,2814.154,2079.9Z" transform="translate(203.341 688.579)"/><path class="dotted-quote" d="M2715.219,2079.9a64.9,64.9,0,1,0,129.788,1.645c.006-.549.006-1.1,0-1.645v-1.02a87.868,87.868,0,0,0-85.377-87.829v6.308a24.864,24.864,0,0,1,20.831,17.627h-.38A64.9,64.9,0,0,0,2715.219,2079.9Z" transform="translate(143.074 688.579)"/><path class="dotted-quote" d="M2616.283,2079.9a64.9,64.9,0,1,0,129.788,1.645c.008-.549.008-1.1,0-1.645v-1.02a87.868,87.868,0,0,0-85.377-87.829v6.308a24.864,24.864,0,0,1,20.831,17.627h-.38A64.9,64.9,0,0,0,2616.283,2079.9Z" transform="translate(82.806 688.579)"/><path class="dotted-quote" d="M2517.347,2079.9a64.9,64.9,0,1,0,129.788,1.645c.008-.549.008-1.1,0-1.645v-1.02a87.867,87.867,0,0,0-85.375-87.829v6.308a24.862,24.862,0,0,1,20.829,17.627h-.378A64.9,64.9,0,0,0,2517.347,2079.9Z" transform="translate(22.538 688.579)"/><path class="dotted-quote" d="M2610.135,2168.717a64.9,64.9,0,0,0-129.789-1.645q-.01.821,0,1.645v1.02a87.866,87.866,0,0,0,85.377,87.828v-6.308a24.859,24.859,0,0,1-20.829-17.625h.378A64.9,64.9,0,0,0,2610.135,2168.717Z" transform="translate(0 756.774)"/><path class="dotted-quote" d="M2709.071,2168.717a64.9,64.9,0,0,0-129.789-1.645q-.01.821,0,1.645v1.02a87.866,87.866,0,0,0,85.377,87.828v-6.308a24.861,24.861,0,0,1-20.83-17.625h.379A64.9,64.9,0,0,0,2709.071,2168.717Z" transform="translate(60.268 756.774)"/><path class="dotted-quote" d="M2808.008,2168.717a64.9,64.9,0,0,0-129.789-1.645q-.012.821,0,1.645v1.02a87.866,87.866,0,0,0,85.377,87.828v-6.308a24.861,24.861,0,0,1-20.83-17.625h.379A64.9,64.9,0,0,0,2808.008,2168.717Z" transform="translate(120.534 756.774)"/><path class="dotted-quote" d="M2906.944,2168.717a64.9,64.9,0,0,0-129.789-1.645q-.012.821,0,1.645v1.02a87.864,87.864,0,0,0,85.375,87.828v-6.308a24.86,24.86,0,0,1-20.829-17.625h.378A64.9,64.9,0,0,0,2906.944,2168.717Z" transform="translate(180.802 756.774)"/><path class="dotted-quote" d="M3005.878,2168.717a64.9,64.9,0,1,0-129.788-1.645q-.01.821,0,1.645v1.02a87.866,87.866,0,0,0,85.377,87.828v-6.308a24.862,24.862,0,0,1-20.831-17.625h.38A64.9,64.9,0,0,0,3005.878,2168.717Z" transform="translate(241.07 756.774)"/><path class="dotted-quote" d="M3104.814,2168.717a64.9,64.9,0,1,0-129.788-1.645q-.012.821,0,1.645v1.02a87.865,87.865,0,0,0,85.377,87.828v-6.308a24.862,24.862,0,0,1-20.831-17.625h.38A64.9,64.9,0,0,0,3104.814,2168.717Z" transform="translate(301.337 756.774)"/><path class="dotted-quote" d="M3203.75,2168.717a64.9,64.9,0,1,0-129.788-1.645q-.012.821,0,1.645v1.02a87.864,87.864,0,0,0,85.377,87.828v-6.308a24.86,24.86,0,0,1-20.831-17.625h.378A64.9,64.9,0,0,0,3203.75,2168.717Z" transform="translate(361.604 756.774)"/><path class="dotted-quote" d="M3302.685,2168.717a64.9,64.9,0,0,0-129.788-1.645q-.01.821,0,1.645v1.02a87.865,87.865,0,0,0,85.376,87.828v-6.308a24.862,24.862,0,0,1-20.83-17.625h.379A64.9,64.9,0,0,0,3302.685,2168.717Z" transform="translate(421.872 756.774)"/><path class="dotted-quote" d="M3401.621,2168.717a64.9,64.9,0,0,0-129.788-1.645q-.01.821,0,1.645v1.02a87.865,87.865,0,0,0,85.376,87.828v-6.308a24.861,24.861,0,0,1-20.83-17.625h.379A64.9,64.9,0,0,0,3401.621,2168.717Z" transform="translate(482.139 756.774)"/><path class="dotted-quote" d="M3500.558,2168.717a64.9,64.9,0,0,0-129.788-1.645q-.012.821,0,1.645v1.02a87.864,87.864,0,0,0,85.376,87.828v-6.308a24.862,24.862,0,0,1-20.831-17.625h.38A64.9,64.9,0,0,0,3500.558,2168.717Z" transform="translate(542.407 756.774)"/><path class="dotted-quote" d="M3599.492,2168.717a64.9,64.9,0,1,0-129.788-1.645q-.01.821,0,1.645v1.02a87.865,87.865,0,0,0,85.377,87.828v-6.308a24.864,24.864,0,0,1-20.831-17.625h.38A64.9,64.9,0,0,0,3599.492,2168.717Z" transform="translate(602.674 756.774)"/><path class="dotted-quote" d="M3698.428,2168.717a64.9,64.9,0,1,0-129.788-1.645q-.01.821,0,1.645v1.02a87.865,87.865,0,0,0,85.377,87.828v-6.308a24.862,24.862,0,0,1-20.831-17.625h.38A64.9,64.9,0,0,0,3698.428,2168.717Z" transform="translate(662.942 756.774)"/><path class="dotted-quote" d="M3605.64,2286.95a64.9,64.9,0,1,0,129.788,1.645q.012-.823,0-1.645v-1.02a87.866,87.866,0,0,0-85.376-87.829v6.308a24.864,24.864,0,0,1,20.83,17.625h-.379A64.9,64.9,0,0,0,3605.64,2286.95Z" transform="translate(685.48 814.708)"/><path class="dotted-quote" d="M3506.7,2286.95a64.9,64.9,0,1,0,129.788,1.645q.012-.823,0-1.645v-1.02a87.865,87.865,0,0,0-85.376-87.829v6.308a24.866,24.866,0,0,1,20.831,17.625h-.38A64.9,64.9,0,0,0,3506.7,2286.95Z" transform="translate(625.213 814.708)"/><path class="dotted-quote" d="M3407.769,2286.95a64.9,64.9,0,1,0,129.788,1.645q.01-.823,0-1.645v-1.02a87.866,87.866,0,0,0-85.377-87.829v6.308a24.866,24.866,0,0,1,20.831,17.625h-.38A64.9,64.9,0,0,0,3407.769,2286.95Z" transform="translate(564.946 814.708)"/><path class="dotted-quote" d="M3308.833,2286.95a64.9,64.9,0,1,0,129.788,1.645q.01-.823,0-1.645v-1.02a87.866,87.866,0,0,0-85.377-87.829v6.308a24.866,24.866,0,0,1,20.831,17.625h-.38A64.9,64.9,0,0,0,3308.833,2286.95Z" transform="translate(504.678 814.708)"/><path class="dotted-quote" d="M3209.9,2286.95a64.9,64.9,0,1,0,129.788,1.645q.012-.823,0-1.645v-1.02a87.866,87.866,0,0,0-85.377-87.829v6.308a24.866,24.866,0,0,1,20.831,17.625h-.38A64.9,64.9,0,0,0,3209.9,2286.95Z" transform="translate(444.41 814.708)"/><path class="dotted-quote" d="M3110.962,2286.95a64.9,64.9,0,1,0,129.788,1.645q.01-.823,0-1.645v-1.02a87.866,87.866,0,0,0-85.376-87.829v6.308a24.867,24.867,0,0,1,20.83,17.625h-.379A64.9,64.9,0,0,0,3110.962,2286.95Z" transform="translate(384.143 814.708)"/><path class="dotted-quote" d="M3012.026,2286.95a64.9,64.9,0,1,0,129.788,1.645q.01-.823,0-1.645v-1.02a87.866,87.866,0,0,0-85.377-87.829v6.308a24.866,24.866,0,0,1,20.831,17.625h-.38A64.9,64.9,0,0,0,3012.026,2286.95Z" transform="translate(323.876 814.708)"/><path class="dotted-quote" d="M2913.09,2286.95a64.9,64.9,0,1,0,129.788,1.645q.012-.823,0-1.645v-1.02A87.866,87.866,0,0,0,2957.5,2198.1v6.308a24.866,24.866,0,0,1,20.831,17.625h-.38A64.9,64.9,0,0,0,2913.09,2286.95Z" transform="translate(263.608 814.708)"/><path class="dotted-quote" d="M2814.154,2286.95a64.9,64.9,0,0,0,129.79,1.645q.01-.823,0-1.645v-1.02a87.866,87.866,0,0,0-85.377-87.829v6.308a24.864,24.864,0,0,1,20.829,17.625h-.378A64.9,64.9,0,0,0,2814.154,2286.95Z" transform="translate(203.341 814.708)"/><path class="dotted-quote" d="M2715.219,2286.95a64.9,64.9,0,1,0,129.788,1.645q.01-.823,0-1.645v-1.02a87.866,87.866,0,0,0-85.377-87.829v6.308a24.866,24.866,0,0,1,20.831,17.625h-.38A64.9,64.9,0,0,0,2715.219,2286.95Z" transform="translate(143.074 814.708)"/><path class="dotted-quote" d="M2616.283,2286.95a64.9,64.9,0,1,0,129.788,1.645q.012-.823,0-1.645v-1.02a87.866,87.866,0,0,0-85.377-87.829v6.308a24.866,24.866,0,0,1,20.831,17.625h-.38A64.9,64.9,0,0,0,2616.283,2286.95Z" transform="translate(82.806 814.708)"/><path class="dotted-quote" d="M2517.347,2286.95a64.9,64.9,0,1,0,129.788,1.645q.012-.823,0-1.645v-1.02a87.865,87.865,0,0,0-85.375-87.829v6.308a24.863,24.863,0,0,1,20.829,17.625h-.378A64.9,64.9,0,0,0,2517.347,2286.95Z" transform="translate(22.538 814.708)"/></g></svg>