<svg xmlns="http://www.w3.org/2000/svg" width="18.645" height="15.538" viewBox="0 0 18.645 15.538"><defs><style>.twitter-a{fill:#212227;}</style></defs><path class="twitter-a" d="M5.857,15.537c7.035,0,10.885-5.979,10.885-11.155,0-.169,0-.336-.008-.5a7.9,7.9,0,0,0,1.911-2.033,7.608,7.608,0,0,1-2.2.619A3.928,3.928,0,0,0,18.129.291a7.5,7.5,0,0,1-2.432.947A3.776,3.776,0,0,0,12.907,0a3.879,3.879,0,0,0-3.83,3.923,4.413,4.413,0,0,0,.1.893A10.774,10.774,0,0,1,1.29.717,4,4,0,0,0,.777,2.692a3.956,3.956,0,0,0,1.7,3.264,3.8,3.8,0,0,1-1.732-.49v.054A3.906,3.906,0,0,0,3.814,9.366a3.771,3.771,0,0,1-1.724.069,3.84,3.84,0,0,0,3.573,2.722A7.557,7.557,0,0,1,.912,13.839,7.186,7.186,0,0,1,0,13.786a10.692,10.692,0,0,0,5.857,1.752"/></svg>